<svg width="81" height="63" viewBox="0 0 81 63" fill="none" xmlns="http://www.w3.org/2000/svg">
<path d="M40.8818 48.5205L41.8406 48.8049L41.8412 48.8027L40.8818 48.5205ZM36.6406 56.667L35.8856 56.0113L35.8849 56.0121L36.6406 56.667ZM14.8467 61.916L14.557 62.8732L14.5686 62.8766L14.8467 61.916ZM9.09375 58.9346L8.46904 59.7155L8.47536 59.7204L9.09375 58.9346ZM4.72656 53.8535L3.86194 54.3559L3.86597 54.3629L3.87011 54.3697L4.72656 53.8535ZM1.95508 46.4629L0.979571 46.6829L1.95508 46.4629ZM2.45898 14.2549L1.50249 13.9631L1.50093 13.9683L2.45898 14.2549ZM6.7002 6.15039L5.94946 5.48974L5.94451 5.49546L6.7002 6.15039ZM13.251 1.53125L13.6134 2.4633L13.6224 2.45973L13.251 1.53125ZM28.4941 0.985352L28.201 1.94141L28.2085 1.94372L28.2161 1.94592L28.4941 0.985352ZM38.6143 8.96387L37.7496 9.46629L37.7526 9.4714L38.6143 8.96387ZM41.3857 16.3125L40.4102 16.5325L40.4107 16.5345L41.3857 16.3125ZM29.8379 18.6221L28.847 18.7564L28.8481 18.7647L28.8493 18.7729L29.8379 18.6221ZM28.7881 14.4229L27.8611 14.7981L27.8643 14.8059L28.7881 14.4229ZM17.9961 10.2656L17.5489 9.37115L17.5393 9.37606L17.9961 10.2656ZM15.3506 12.8271L16.1951 13.3627L16.2009 13.3535L15.3506 12.8271ZM13.6709 17.4463L12.6908 17.2474L12.6887 17.2585L13.6709 17.4463ZM13.4609 44.0693L12.4697 44.2015L12.4708 44.2096L12.472 44.2177L13.4609 44.0693ZM14.5527 48.3945L13.6228 48.7622L13.628 48.7754L13.6336 48.7885L14.5527 48.3945ZM16.3164 51.292L15.569 51.9564L15.582 51.971L15.5956 51.9851L16.3164 51.292ZM18.71 52.8877L18.3588 53.8241L18.3682 53.8275L18.71 52.8877ZM25.3027 52.5938L25.7596 53.4834L25.7685 53.4787L25.3027 52.5938ZM27.9902 49.9902L27.1433 49.4585L27.14 49.4639L27.9902 49.9902ZM41.3516 26.0547V36.6367H43.3516V26.0547H41.3516ZM41.3516 36.6367C41.3516 41.1611 40.8683 45.0226 39.9225 48.2383L41.8412 48.8027C42.855 45.3556 43.3516 41.2946 43.3516 36.6367H41.3516ZM39.9231 48.2361C38.9751 51.4324 37.6212 54.0128 35.8856 56.0113L37.3957 57.3227C39.3554 55.066 40.829 52.2153 41.8406 48.8049L39.9231 48.2361ZM35.8849 56.0121C34.1671 57.9941 32.1283 59.4525 29.7604 60.3997L30.5032 62.2566C33.1745 61.1881 35.4748 59.5391 37.3963 57.3219L35.8849 56.0121ZM29.7604 60.3997C27.3739 61.3543 24.7026 61.8398 21.7334 61.8398V63.8398C24.923 63.8398 27.8507 63.3176 30.5032 62.2566L29.7604 60.3997ZM21.7334 61.8398C19.3535 61.8398 17.1525 61.5424 15.1247 60.9555L14.5686 62.8766C16.7961 63.5214 19.1862 63.8398 21.7334 63.8398V61.8398ZM15.1363 60.9589C13.1252 60.3503 11.3196 59.4136 9.71214 58.1487L8.47536 59.7204C10.2833 61.1431 12.3129 62.194 14.557 62.8731L15.1363 60.9589ZM9.71844 58.1537C8.14058 56.8914 6.76042 55.2907 5.58302 53.3373L3.87011 54.3697C5.15625 56.5036 6.68754 58.2902 8.46906 59.7154L9.71844 58.1537ZM5.59119 53.3511C4.44839 51.3844 3.55686 49.0203 2.93059 46.2429L0.979571 46.6829C1.64106 49.6164 2.59719 52.1794 3.86194 54.3559L5.59119 53.3511ZM2.93059 46.2429C2.30657 43.4756 1.98926 40.2764 1.98926 36.6367H-0.0107422C-0.0107422 40.3877 0.315822 43.7393 0.979571 46.6829L2.93059 46.2429ZM1.98926 36.6367V26.0547H-0.0107422V36.6367H1.98926ZM1.98926 26.0547C1.98926 21.5296 2.4727 17.6983 3.41704 14.5415L1.50093 13.9683C0.485631 17.3623 -0.0107422 21.3975 -0.0107422 26.0547H1.98926ZM3.41546 14.5467C4.3921 11.3455 5.7472 8.77688 7.45588 6.80532L5.94451 5.49546C4.01386 7.72312 2.54149 10.5575 1.50251 13.9631L3.41546 14.5467ZM7.45091 6.81102C9.19653 4.82735 11.2484 3.38297 13.6134 2.46325L12.8885 0.599245C10.2145 1.63916 7.89917 3.27421 5.94948 5.48976L7.45091 6.81102ZM13.6224 2.45973C16.0089 1.5051 18.6802 1.01953 21.6494 1.01953V-0.980469C18.4598 -0.980469 15.5321 -0.458225 12.8796 0.602774L13.6224 2.45973ZM21.6494 1.01953C24.0255 1.01953 26.2071 1.32996 28.201 1.94141L28.7873 0.0292969C26.5819 -0.64702 24.2004 -0.980469 21.6494 -0.980469V1.01953ZM28.2161 1.94592C30.2267 2.52794 32.031 3.43777 33.6367 4.67495L34.8574 3.09067C33.0478 1.69635 31.0168 0.67453 28.7722 0.0247879L28.2161 1.94592ZM33.6367 4.67495C35.2308 5.90317 36.6038 7.49432 37.7496 9.46628L39.4789 8.46145C38.2172 6.29018 36.6787 4.49396 34.8574 3.09067L33.6367 4.67495ZM37.7526 9.4714C38.8931 11.4076 39.784 13.7555 40.4102 16.5325L42.3612 16.0925C41.6997 13.1586 40.743 10.6074 39.4759 8.45633L37.7526 9.4714ZM40.4107 16.5345C41.0343 19.273 41.3516 22.4434 41.3516 26.0547H43.3516C43.3516 22.3313 43.0249 19.007 42.3608 16.0905L40.4107 16.5345ZM31.2158 38.2324V24.417H29.2158V38.2324H31.2158ZM31.2158 24.417C31.2158 22.17 31.088 20.1859 30.8265 18.4713L28.8493 18.7729C29.0917 20.3617 29.2158 22.2408 29.2158 24.417H31.2158ZM30.8288 18.4877C30.597 16.7776 30.2298 15.2891 29.7118 14.0398L27.8643 14.8059C28.2982 15.8522 28.6309 17.1631 28.847 18.7564L30.8288 18.4877ZM29.715 14.0477C29.2031 12.7829 28.5529 11.7142 27.7452 10.8743L26.3036 12.2605C26.8957 12.8763 27.4213 13.7113 27.8611 14.798L29.715 14.0477ZM27.7452 10.8743C26.9477 10.0449 26.0254 9.42663 24.982 9.03535L24.2797 10.908C25.028 11.1886 25.7014 11.6342 26.3036 12.2605L27.7452 10.8743ZM24.982 9.03535C23.9592 8.65181 22.8444 8.46777 21.6494 8.46777V10.4678C22.638 10.4678 23.5108 10.6197 24.2797 10.908L24.982 9.03535ZM21.6494 8.46777C20.1463 8.46777 18.7714 8.75994 17.5489 9.3712L18.4433 11.1601C19.3484 10.7075 20.4091 10.4678 21.6494 10.4678V8.46777ZM17.5393 9.37606C16.3137 10.0054 15.3058 10.9997 14.5003 12.3008L16.2009 13.3535C16.8511 12.3031 17.6069 11.5896 18.4529 11.1552L17.5393 9.37606ZM14.5061 12.2916C13.6905 13.5777 13.0971 15.2454 12.6909 17.2474L14.6509 17.6451C15.0286 15.7839 15.5549 14.3722 16.1951 13.3627L14.5061 12.2916ZM12.6887 17.2585C12.3092 19.2436 12.125 21.6342 12.125 24.417H14.125C14.125 21.7128 14.3048 19.4562 14.6531 17.6341L12.6887 17.2585ZM12.125 24.417V38.2324H14.125V24.417H12.125ZM12.125 38.2324C12.125 40.4757 12.2385 42.4671 12.4697 44.2015L14.4522 43.9372C14.2355 42.3122 14.125 40.4123 14.125 38.2324H12.125ZM12.472 44.2177C12.7319 45.9506 13.1118 47.4698 13.6228 48.7622L15.4827 48.0269C15.0418 46.9117 14.6938 45.5474 14.4499 43.921L12.472 44.2177ZM13.6336 48.7885C14.1691 50.0381 14.8097 51.1021 15.569 51.9564L17.0638 50.6276C16.4794 49.9701 15.9441 49.1025 15.4719 48.0006L13.6336 48.7885ZM15.5956 51.9851C16.3931 52.8145 17.3154 53.4327 18.3588 53.824L19.0611 51.9514C18.3128 51.6708 17.6395 51.2252 17.0372 50.5989L15.5956 51.9851ZM18.3682 53.8275C19.413 54.2074 20.5379 54.3916 21.7334 54.3916V52.3916C20.7453 52.3916 19.8546 52.2398 19.0517 51.9479L18.3682 53.8275ZM21.7334 54.3916C23.2115 54.3916 24.5621 54.0982 25.7595 53.4833L24.8459 51.7042C23.9718 52.1531 22.9428 52.3916 21.7334 52.3916V54.3916ZM25.7685 53.4787C27.0126 52.8239 28.0331 51.8209 28.8405 50.5166L27.14 49.4639C26.4917 50.5111 25.7205 51.2439 24.837 51.7088L25.7685 53.4787ZM28.8371 50.522C29.6797 49.18 30.2738 47.4831 30.6526 45.4723L28.6872 45.102C28.3382 46.9544 27.8124 48.3929 27.1433 49.4585L28.8371 50.522ZM30.6526 45.4723C31.0317 43.4604 31.2158 41.0429 31.2158 38.2324H29.2158C29.2158 40.9649 29.036 43.2505 28.6872 45.102L30.6526 45.4723ZM80.0605 0.733398H81.0605V-0.266602H80.0605V0.733398ZM80.0605 62V63H81.0605V62H80.0605ZM67.9668 62H66.9668V63H67.9668V62ZM67.9668 14.6748H68.9668V13.3076L67.6638 13.7218L67.9668 14.6748ZM53.4375 19.2939H52.4375V20.6612L53.7405 20.2469L53.4375 19.2939ZM53.4375 9.76172L53.1017 8.8198L52.4375 9.05661V9.76172H53.4375ZM78.7588 0.733398V-0.266602H78.5858L78.423 -0.208521L78.7588 0.733398ZM79.0605 0.733398V62H81.0605V0.733398H79.0605ZM80.0605 61H67.9668V63H80.0605V61ZM68.9668 62V14.6748H66.9668V62H68.9668ZM67.6638 13.7218L53.1345 18.3409L53.7405 20.2469L68.2698 15.6278L67.6638 13.7218ZM54.4375 19.2939V9.76172H52.4375V19.2939H54.4375ZM53.7733 10.7036L79.0946 1.67532L78.423 -0.208521L53.1017 8.8198L53.7733 10.7036ZM78.7588 1.7334H80.0605V-0.266602H78.7588V1.7334Z" fill="#D9D9D9"/>
</svg>
