<svg width="75" height="75" viewBox="0 0 75 75" fill="none" xmlns="http://www.w3.org/2000/svg">
<g clip-path="url(#clip0_152_1221)">
<path d="M75 37.5C75 43.047 73.7955 48.3124 71.6343 53.0497C67.9396 61.1481 61.4479 67.7004 53.3953 71.4752C51.9367 72.1579 50.4261 72.7501 48.8708 73.2428C47.1216 73.8018 45.3169 74.2315 43.4647 74.5268C43.4572 74.5285 43.4481 74.5302 43.4401 74.5302C42.5314 74.6756 41.6142 74.7871 40.6855 74.8655C40.4875 74.8821 40.2889 74.8976 40.0898 74.9113C39.8094 74.9296 39.5279 74.9462 39.2447 74.9588C38.6662 74.9863 38.0848 75 37.5 75C36.8998 75 36.3047 74.9863 35.7124 74.9571C35.4446 74.9451 35.1763 74.9296 34.9085 74.9096C34.7082 74.8959 34.5091 74.8821 34.31 74.8655C33.3595 74.786 32.4183 74.6693 31.4896 74.5193C31.0455 74.4473 30.6032 74.3694 30.1655 74.2819C28.2658 73.9054 26.4198 73.387 24.6368 72.7346C23.6034 72.3581 22.5918 71.937 21.603 71.4735C21.2666 71.3156 20.9312 71.1519 20.5988 70.982C19.7451 70.5505 18.9108 70.0865 18.0965 69.5921C14.0173 67.1219 10.4479 63.8952 7.57942 60.1072C5.85766 57.8327 4.38995 55.3562 3.21751 52.7172C1.14956 48.0675 0 42.9182 0 37.5C0 16.7891 16.7891 0 37.5 0C58.2109 0 75 16.7891 75 37.5Z" fill="#B2C3FF"/>
<path d="M30.1655 48.6643V74.2819C28.2658 73.9054 26.4199 73.387 24.6369 72.7346C23.6035 72.3581 22.5918 71.937 21.603 71.4735C21.2666 71.3156 20.9313 71.1519 20.5988 70.982C19.7451 70.5505 18.9108 70.0865 18.0966 69.5921C14.0173 67.1219 10.4479 63.8952 7.57944 60.1072C5.85768 57.8327 4.38998 55.3562 3.21753 52.7172V48.6643C3.21753 43.9625 6.41043 40.0057 10.7466 38.847C10.9057 38.8041 11.0647 38.764 11.2272 38.7308C11.657 38.6358 12.0993 38.5712 12.5496 38.5345C12.8237 38.5134 13.1006 38.5008 13.3805 38.5008H20.0003C20.7396 38.5008 21.4606 38.5792 22.1558 38.7308C22.1953 38.7383 22.2353 38.7474 22.2748 38.7566C22.3915 38.7829 22.5094 38.8115 22.6238 38.8424C22.6273 38.8441 22.6301 38.8441 22.633 38.8453C23.778 39.1514 24.8417 39.6521 25.7893 40.3101C28.434 42.1452 30.1655 45.2019 30.1655 48.6643Z" fill="#3B63EE"/>
<path d="M30.1654 48.6643V74.2819C28.2657 73.9054 26.4198 73.387 24.6368 72.7346C23.6034 72.3581 22.5917 71.937 21.6029 71.4735C21.2665 71.3156 20.9312 71.1519 20.5987 70.982C19.745 70.5505 18.9107 70.0865 18.0965 69.5921C14.0172 67.1219 10.4478 63.8952 7.57935 60.1072V48.6643C7.57935 43.9625 10.7722 40.0057 15.1084 38.847C15.2681 38.8041 15.4271 38.764 15.5891 38.7308C16.0194 38.6358 16.4617 38.5712 16.9114 38.5345C17.1855 38.5134 17.4625 38.5008 17.7428 38.5008H20.0002C20.7395 38.5008 21.4605 38.5792 22.1557 38.7308C22.1952 38.7383 22.2352 38.7474 22.2747 38.7566C22.3914 38.7829 22.5093 38.8115 22.6237 38.8424C22.6272 38.8441 22.63 38.8441 22.6329 38.8453C23.7779 39.1514 24.8416 39.6521 25.7892 40.3101C28.4339 42.1452 30.1654 45.2019 30.1654 48.6643Z" fill="#4770FF"/>
<path d="M22.6582 38.7302L22.6342 38.8453L19.5935 52.9873C19.3016 54.3463 18.1057 55.3316 16.7164 55.3328C16.7078 55.3328 16.6998 55.3328 16.6918 55.3328C16.6827 55.3328 16.6741 55.3328 16.6649 55.3328C15.275 55.3316 14.0797 54.3463 13.7879 52.9873L10.7472 38.8464L10.7231 38.7302H22.6582Z" fill="#F2F0EC"/>
<path d="M16.6907 42.6619L12.1147 45.2047L10.7231 38.7302L13.5664 37.056" fill="#D8D5D0"/>
<path d="M16.6907 42.6619L21.2666 45.2047L22.6582 38.7302L19.8149 37.056" fill="#D8D5D0"/>
<path d="M3.02856 36.0512V20.723C3.02856 19.1654 3.28835 17.6394 3.80104 16.1871C5.71964 10.7283 10.8998 7.05929 16.6911 7.05929C17.4086 7.05929 18.1245 7.11479 18.8203 7.22466C22.0017 7.7219 24.9211 9.34582 27.0377 11.7977C29.1766 14.2759 30.3548 17.4454 30.3548 20.723V36.0512" fill="#3D4159"/>
<path d="M8.64884 21.3215C8.64884 26.7431 11.824 33.0156 13.5675 36.0512H3.02808V20.723C3.02808 19.166 3.28843 17.6399 3.80055 16.1871C5.70771 10.7597 10.8404 7.10163 16.5916 7.06043C12.3911 7.16515 8.64884 13.9046 8.64884 21.3215Z" fill="#2A2F4F"/>
<path d="M20.3178 34.5858V39.0364C20.3178 40.6654 19.2438 42.0427 17.764 42.4999C17.4253 42.6052 17.0642 42.6619 16.6912 42.6619C14.6884 42.6619 13.0657 41.0391 13.0657 39.0364V34.5858H20.3178Z" fill="#EAB599"/>
<path d="M20.3177 38.7543V39.0364C20.3177 40.6654 19.2437 42.0427 17.764 42.4999C16.429 42.0897 15.4254 40.9286 15.24 39.5084C15.482 39.5233 15.7258 39.5308 15.9701 39.5308C16.6562 39.5308 17.3291 39.4764 17.9837 39.3688C18.7911 39.2389 19.5716 39.0312 20.3177 38.7543Z" fill="#F6CAAE"/>
<path d="M6.74458 27.2924C6.74458 28.9713 5.51834 30.3635 3.91216 30.6215C3.73707 30.6501 3.55625 30.665 3.372 30.665C1.50948 30.665 0 29.1555 0 27.2924C0 25.4299 1.50948 23.9204 3.372 23.9204C3.55625 23.9204 3.73707 23.9353 3.91216 23.9639C5.51834 24.222 6.74458 25.6136 6.74458 27.2924Z" fill="#F6CAAE"/>
<path d="M6.74448 27.2924C6.74448 28.9713 5.51824 30.3635 3.91206 30.6215C3.62081 29.5612 3.4646 28.4449 3.4646 27.2924C3.4646 26.1406 3.62081 25.0242 3.91206 23.9639C5.51824 24.222 6.74448 25.6136 6.74448 27.2924Z" fill="#EAB599"/>
<path d="M4.57769 27.2924C4.57769 27.9585 4.0381 28.4981 3.37206 28.4981C2.70658 28.4981 2.16699 27.9585 2.16699 27.2924C2.16699 26.627 2.70658 26.0874 3.37206 26.0874C4.0381 26.0874 4.57769 26.627 4.57769 27.2924Z" fill="#EAB599"/>
<path d="M25.3503 22.9866V34.5783C23.5588 36.2886 21.2614 37.4731 18.7053 37.8851C18.6853 37.8885 18.6636 37.892 18.6435 37.8954C18.0084 37.9967 17.3567 38.047 16.6912 38.047C9.76235 38.047 4.14502 32.4297 4.14502 25.5009V20.723C4.14502 20.1113 4.18851 19.5093 4.27319 18.9211C7.25838 21.068 11.5385 20.8557 14.2656 18.2785C15.1685 17.4253 15.7962 16.4097 16.151 15.3322C16.3484 17.2188 17.2113 19.055 18.7408 20.5009C20.5616 22.2198 22.9671 23.049 25.3503 22.9866Z" fill="#EAB599"/>
<path d="M25.3503 22.9866V34.5783C23.5587 36.2886 21.2613 37.4731 18.7053 37.8851C18.6853 37.8885 18.6635 37.892 18.6435 37.8954C12.6422 36.9575 8.052 31.7642 8.052 25.5009V20.723C8.052 20.5959 8.05429 20.4695 8.05887 20.3436C10.271 20.5702 12.569 19.8824 14.2656 18.2779C15.1685 17.4253 15.7962 16.4091 16.151 15.3322C16.3484 17.2188 17.2113 19.055 18.7408 20.5009C20.5615 22.2198 22.9671 23.049 25.3503 22.9866Z" fill="#F6CAAE"/>
<path d="M23.4301 24.4411C23.4301 23.2899 22.4969 22.3572 21.3462 22.3572C20.1955 22.3572 19.2622 23.2899 19.2622 24.4411" fill="#EAB599"/>
<path d="M14.1227 24.4411C14.1227 23.2899 13.1894 22.3572 12.0387 22.3572C10.888 22.3572 9.95532 23.2899 9.95532 24.4411" fill="#EAB599"/>
<path d="M13.4622 25.3281C13.4622 26.1143 12.8248 26.7517 12.0386 26.7517C11.2523 26.7517 10.6155 26.1143 10.6155 25.3281C10.6155 24.5419 11.2523 23.905 12.0386 23.905C12.8248 23.905 13.4622 24.5419 13.4622 25.3281Z" fill="#3D4159"/>
<path d="M22.7692 25.3281C22.7692 26.1143 22.1324 26.7517 21.3462 26.7517C20.56 26.7517 19.9231 26.1143 19.9231 25.3281C19.9231 24.5419 20.56 23.905 21.3462 23.905C22.1324 23.905 22.7692 24.5419 22.7692 25.3281Z" fill="#3D4159"/>
<path d="M18.116 28.9118H15.2692C14.9299 28.9118 14.6553 28.6366 14.6553 28.2978C14.6553 27.9591 14.9299 27.6838 15.2692 27.6838H18.116C18.4547 27.6838 18.7294 27.9591 18.7294 28.2978C18.7294 28.6366 18.4547 28.9118 18.116 28.9118Z" fill="#EAB599"/>
<path d="M16.6923 32.7965C15.6417 32.7965 14.5911 32.5333 13.6333 32.0063C13.3632 31.8581 13.2648 31.5187 13.413 31.2487C13.5617 30.9786 13.9011 30.8802 14.1711 31.0284C15.7499 31.8964 17.6347 31.8964 19.2134 31.0284C19.4835 30.8796 19.8228 30.9786 19.9716 31.2487C20.1198 31.5187 20.0214 31.8581 19.7513 32.0063C18.7934 32.5333 17.7428 32.7965 16.6923 32.7965Z" fill="#EAB599"/>
<path d="M13.1721 25.0769C13.1721 25.4139 12.8986 25.6868 12.5621 25.6868C12.2251 25.6868 11.9521 25.4139 11.9521 25.0769C11.9521 24.7398 12.2251 24.4669 12.5621 24.4669C12.8986 24.4669 13.1721 24.7398 13.1721 25.0769Z" fill="white"/>
<path d="M22.549 25.0769C22.549 25.4139 22.276 25.6868 21.9396 25.6868C21.6025 25.6868 21.3296 25.4139 21.3296 25.0769C21.3296 24.7398 21.6025 24.4669 21.9396 24.4669C22.276 24.4669 22.549 24.7398 22.549 25.0769Z" fill="white"/>
<path d="M25.2319 28.795C25.2319 29.6579 24.5321 30.3577 23.6686 30.3577C22.8058 30.3577 22.106 29.6579 22.106 28.795C22.106 27.9316 22.8058 27.2318 23.6686 27.2318C24.5321 27.2318 25.2319 27.9316 25.2319 28.795Z" fill="#EAB599"/>
<path d="M11.2775 28.795C11.2775 29.6579 10.5782 30.3577 9.71479 30.3577C8.85191 30.3577 8.1521 29.6579 8.1521 28.795C8.1521 27.9316 8.85191 27.2318 9.71479 27.2318C10.5782 27.2318 11.2775 27.9316 11.2775 28.795Z" fill="#EAB599"/>
<path d="M71.6342 48.3553V53.0497C67.9395 61.1481 61.4478 67.7004 53.3952 71.4752C51.9366 72.1579 50.426 72.7501 48.8707 73.2428C47.1215 73.8018 45.3168 74.2315 43.4645 74.5268C43.4571 74.5285 43.448 74.5302 43.4399 74.5302V48.3553C43.4399 42.7763 47.7366 38.1992 53.204 37.7586C53.4919 37.734 53.7808 37.7237 54.0732 37.7237H60.998C61.8169 37.7237 62.6139 37.8136 63.3796 37.9898C68.106 39.0701 71.6342 43.3027 71.6342 48.3553Z" fill="#BFD5DE"/>
<path d="M71.6343 48.3553V53.0497C67.9396 61.1481 61.4479 67.7004 53.3953 71.4752C51.9367 72.1579 50.4261 72.7501 48.8708 73.2428V48.3553C48.8708 42.4839 53.6327 37.7237 59.5058 37.7237H60.9993C66.8741 37.7237 71.6343 42.4839 71.6343 48.3553Z" fill="#DDE8ED"/>
<path d="M47.1292 25.9958C47.1292 27.7525 45.8463 29.2088 44.1663 29.4788C43.9826 29.5086 43.7938 29.524 43.601 29.524C41.652 29.524 40.0728 27.9448 40.0728 25.9958C40.0728 24.0469 41.652 22.4676 43.601 22.4676C43.7938 22.4676 43.9826 22.4831 44.1663 22.5128C45.8463 22.7835 47.1292 24.2397 47.1292 25.9958Z" fill="#D3A489"/>
<path d="M60.3916 41.5592L57.5369 46.138L54.6821 41.5592" fill="#4770FF"/>
<path d="M61.3776 59.0721L57.537 63.9187L53.6958 59.0721L57.5376 44.9467L61.3776 59.0721Z" fill="#4770FF"/>
<path d="M47.1292 25.9958C47.1292 27.7525 45.8463 29.2088 44.1663 29.4788C43.8613 28.3693 43.6982 27.2015 43.6982 25.9958C43.6982 24.7908 43.8613 23.6229 44.1663 22.5128C45.8463 22.7835 47.1292 24.2397 47.1292 25.9958Z" fill="#BF8E75"/>
<path d="M44.862 25.9958C44.862 26.6922 44.2973 27.257 43.6009 27.257C42.9045 27.257 42.3403 26.6922 42.3403 25.9958C42.3403 25.2995 42.9045 24.7353 43.6009 24.7353C44.2973 24.7353 44.862 25.2995 44.862 25.9958Z" fill="#BF8E75"/>
<path d="M57.5358 42.0759L52.7487 44.7367L51.2925 37.9623L54.2668 36.2103" fill="#BFD5DE"/>
<path d="M57.5356 42.0759L62.3233 44.7367L63.7795 37.9623L60.8046 36.2103" fill="#BFD5DE"/>
<path d="M67.9436 25.9958C67.9436 27.7525 69.2265 29.2088 70.9065 29.4788C71.0902 29.5086 71.279 29.524 71.4718 29.524C73.4207 29.524 75 27.9448 75 25.9958C75 24.0469 73.4207 22.4676 71.4718 22.4676C71.279 22.4676 71.0902 22.4831 70.9065 22.5128C69.2265 22.7835 67.9436 24.2397 67.9436 25.9958Z" fill="#D3A489"/>
<path d="M67.9436 25.9958C67.9436 27.7525 69.2265 29.2088 70.9065 29.4788C71.212 28.3693 71.3745 27.2015 71.3745 25.9958C71.3745 24.7908 71.212 23.6229 70.9065 22.5128C69.2265 22.7835 67.9436 24.2397 67.9436 25.9958Z" fill="#BF8E75"/>
<path d="M72.733 25.9958C72.733 26.6922 72.1682 27.257 71.4718 27.257C70.7755 27.257 70.2107 26.6922 70.2107 25.9958C70.2107 25.2995 70.7755 24.7353 71.4718 24.7353C72.1682 24.7353 72.733 25.2995 72.733 25.9958Z" fill="#BF8E75"/>
<path d="M70.6639 24.1207C70.6639 30.653 65.8917 36.0723 59.6432 37.0783C58.9583 37.191 58.2545 37.2477 57.5364 37.2477C50.286 37.2477 44.4094 31.3711 44.4094 24.1207C44.4094 20.6903 45.6008 15.5405 47.7551 13.2019C50.1538 10.5978 53.7163 10.9932 57.5364 10.9932C58.2545 10.9932 58.9577 11.0504 59.6432 11.1631C65.8917 12.1691 70.6639 17.5879 70.6639 24.1207Z" fill="#BF8E75"/>
<path d="M61.3307 33.6267V38.2828C61.3307 39.9874 60.2069 41.4282 58.6585 41.9065C58.3043 42.0164 57.9266 42.0759 57.5358 42.0759C55.441 42.0759 53.7427 40.3776 53.7427 38.2828V33.6267H61.3307Z" fill="#BF8E75"/>
<path d="M61.3305 37.9875V38.2828C61.3305 39.9874 60.2067 41.4282 58.6583 41.9065C57.2616 41.4774 56.2116 40.2626 56.0176 38.7766C56.2711 38.792 56.5257 38.8 56.782 38.8C57.4996 38.8 58.2034 38.7428 58.8889 38.6307C59.7335 38.4945 60.5494 38.2776 61.3305 37.9875Z" fill="#D3A489"/>
<path d="M70.6638 24.1207C70.6638 30.653 65.8916 36.0723 59.6431 37.0783C53.3952 36.0723 48.623 30.653 48.623 24.1207C48.623 20.0981 50.4324 16.4978 53.2825 14.0894C55.0598 12.5868 57.2427 11.5494 59.6431 11.1626C65.4682 12.1004 70.0121 16.8755 70.5991 22.8115C70.6421 23.2424 70.6638 23.6795 70.6638 24.1207Z" fill="#D3A489"/>
<path d="M57.5369 30.586C56.4371 30.586 55.3385 30.3108 54.3366 29.7598C54.0533 29.6047 53.9503 29.2494 54.106 28.9667C54.2611 28.684 54.6164 28.581 54.8991 28.7367C56.5504 29.6442 58.5228 29.6442 60.1748 28.7367C60.4569 28.581 60.8122 28.684 60.9673 28.9667C61.1229 29.2494 61.0199 29.6047 60.7373 29.7598C59.7353 30.3108 58.6356 30.586 57.5369 30.586Z" fill="#BF8E75"/>
<path d="M54.741 23.3568C54.741 24.1791 54.0744 24.8457 53.2516 24.8457C52.4293 24.8457 51.7627 24.1791 51.7627 23.3568C51.7627 22.534 52.4293 21.8674 53.2516 21.8674C54.0744 21.8674 54.741 22.534 54.741 23.3568Z" fill="#3D4159"/>
<path d="M63.3104 23.3568C63.3104 24.1791 62.6437 24.8457 61.8215 24.8457C60.9986 24.8457 60.332 24.1791 60.332 23.3568C60.332 22.534 60.9986 21.8674 61.8215 21.8674C62.6437 21.8674 63.3104 22.534 63.3104 23.3568Z" fill="#3D4159"/>
<path d="M54.4371 23.0936C54.4371 23.4461 54.1516 23.7322 53.7991 23.7322C53.4467 23.7322 53.1611 23.4461 53.1611 23.0936C53.1611 22.7417 53.4467 22.4556 53.7991 22.4556C54.1516 22.4556 54.4371 22.7417 54.4371 23.0936Z" fill="white"/>
<path d="M63.0797 23.0936C63.0797 23.4461 62.7942 23.7322 62.4417 23.7322C62.0892 23.7322 61.8037 23.4461 61.8037 23.0936C61.8037 22.7417 62.0892 22.4556 62.4417 22.4556C62.7942 22.4556 63.0797 22.7417 63.0797 23.0936Z" fill="white"/>
<path d="M59.0257 27.1059H56.0474C55.6926 27.1059 55.4048 26.8181 55.4048 26.4633C55.4048 26.1086 55.6926 25.8213 56.0474 25.8213H59.0257C59.3805 25.8213 59.6683 26.1086 59.6683 26.4633C59.6677 26.8181 59.3805 27.1059 59.0257 27.1059Z" fill="#BF8E75"/>
<path d="M61.8586 48.0068H67.5813V49.7583H61.8586V48.0068Z" fill="#BFD5DE"/>
<path d="M56.7683 7.24354C60.7451 7.52735 63.938 10.7397 64.14 14.7835L64.1778 15.5428H66.4655L67.6974 23.7356L70.6815 22.8121L70.2809 14.784C70.0692 10.536 66.5559 7.20692 62.3044 7.22294L56.7683 7.24354Z" fill="#2A2F4F"/>
<path d="M70.0281 4.07467C73.1947 7.24125 73.1947 12.3756 70.0281 15.5422C66.8615 18.7088 61.7271 18.7088 58.5605 15.5422L70.0281 4.07467Z" fill="#3D4159"/>
<path d="M58.5604 15.5422H48.6087L47.3761 23.7356L44.3921 22.8121L44.7921 14.7835C45.0038 10.5366 48.5171 7.20634 52.7692 7.22236L67.1424 7.27672L69.0427 10.6968" fill="#3D4159"/>
<path d="M58.3048 7.24354C54.3279 7.52735 51.135 10.7397 50.933 14.7835L50.8953 15.5428H48.6082L47.3756 23.7356L44.3916 22.8121L44.7921 14.784C45.0039 10.536 48.5172 7.20692 52.7687 7.22294L58.3048 7.24354Z" fill="#2A2F4F"/>
<path d="M53.3953 68.6634V71.4752C48.5693 73.736 43.1832 75 37.5 75C31.8169 75 26.429 73.736 21.603 71.4735V68.6634C21.603 63.1147 25.3699 58.4478 30.4865 57.0797C30.6736 57.0293 30.8619 56.983 31.053 56.9418C31.5611 56.8314 32.083 56.7553 32.6128 56.7123C32.9373 56.686 33.2634 56.6723 33.5941 56.6723H41.403C42.2768 56.6723 43.1265 56.7644 43.947 56.9418C43.9945 56.951 44.042 56.9618 44.0878 56.9727C44.2257 57.0047 44.363 57.0385 44.4992 57.0751C44.5044 57.0763 44.5055 57.0763 44.5101 57.078C45.8605 57.439 47.1171 58.0301 48.2329 58.806C51.3537 60.9707 53.3953 64.5779 53.3953 68.6634Z" fill="#3D4159"/>
<path d="M44.5391 56.9418L44.51 57.078L40.6853 74.8655C40.4874 74.8821 40.2888 74.8976 40.0897 74.9113C39.8093 74.9296 39.5278 74.9462 39.2445 74.9588C38.666 74.9863 38.0847 75 37.4999 75C36.8996 75 36.3046 74.9863 35.7123 74.9571C35.4445 74.9451 35.1762 74.9296 34.9084 74.9096C34.7081 74.8959 34.509 74.8821 34.3098 74.8655L30.4864 57.0797L30.4578 56.9418H44.5391Z" fill="#4770FF"/>
<path d="M40.7181 60.9993L37.4989 66.1617L34.2803 60.9993" fill="#3D4159"/>
<path d="M40.0898 74.9113C39.8094 74.9296 39.5279 74.9462 39.2446 74.9588C38.6661 74.9863 38.0848 75 37.5 75C36.8997 75 36.3046 74.9863 35.7124 74.9571C35.4446 74.9451 35.1762 74.9296 34.9084 74.9096L37.5 64.8182L40.0898 74.9113Z" fill="#3D4159"/>
<path d="M37.4983 61.5812L32.0995 64.5813L30.4573 56.9429L33.8115 54.9671" fill="#6C8DFF"/>
<path d="M37.4983 61.5812L42.8965 64.5813L44.5387 56.9429L41.1844 54.9671" fill="#6C8DFF"/>
<path d="M44.7429 67.2506H46.4556L43.4646 74.5268C42.081 74.7488 40.6729 74.8941 39.2446 74.9588L44.4992 57.0751L44.5392 56.9418L48.2328 58.148L44.7429 67.2506Z" fill="#2A2F4F"/>
<path d="M35.7125 74.9571C34.2825 74.8913 32.8732 74.7431 31.4896 74.5193L28.5016 67.2506H30.2142L26.7231 58.148L30.4179 56.9418L30.4579 57.0751L35.7125 74.9571Z" fill="#2A2F4F"/>
<path d="M41.7772 52.0535V57.3034C41.7772 59.226 40.5098 60.8505 38.764 61.3901C38.364 61.5143 37.9383 61.5812 37.4977 61.5812C35.1351 61.5812 33.2205 59.6661 33.2205 57.3034V52.0535H41.7772Z" fill="#EAB599"/>
<path d="M41.7772 56.971V57.304C41.7772 59.226 40.5098 60.8505 38.764 61.3907C37.1887 60.906 36.0042 59.5367 35.7856 57.8608C36.0717 57.8785 36.359 57.8871 36.6474 57.8871C37.4571 57.8871 38.2507 57.823 39.0232 57.6965C39.9759 57.5432 40.896 57.2977 41.7772 56.971Z" fill="#F6CAAE"/>
<path d="M25.7628 43.4486C25.7628 45.429 24.3157 47.0713 22.4212 47.3762C22.214 47.4094 22.0012 47.4272 21.7843 47.4272C19.5864 47.4272 17.8052 45.6465 17.8052 43.4486C17.8052 41.2508 19.5859 39.4695 21.7843 39.4695C22.0012 39.4695 22.214 39.4873 22.4212 39.521C24.3157 39.826 25.7628 41.4682 25.7628 43.4486Z" fill="#F6CAAE"/>
<path d="M25.763 43.4486C25.763 45.429 24.3159 47.0713 22.4214 47.3762C22.0775 46.1248 21.8938 44.8076 21.8938 43.4486C21.8938 42.0891 22.0775 40.7724 22.4214 39.521C24.3159 39.826 25.763 41.4682 25.763 43.4486Z" fill="#EAB599"/>
<path d="M23.2064 43.4486C23.2064 44.2337 22.5695 44.8706 21.7845 44.8706C20.9988 44.8706 20.3625 44.2337 20.3625 43.4486C20.3625 42.663 20.9988 42.0267 21.7845 42.0267C22.5695 42.0267 23.2064 42.663 23.2064 43.4486Z" fill="#EAB599"/>
<path d="M49.2341 43.4486C49.2341 45.429 50.6812 47.0713 52.5758 47.3762C52.7824 47.4094 52.9958 47.4272 53.2127 47.4272C55.4105 47.4272 57.1918 45.6465 57.1918 43.4486C57.1918 41.2508 55.4111 39.4695 53.2127 39.4695C52.9958 39.4695 52.7824 39.4873 52.5758 39.521C50.6812 39.826 49.2341 41.4682 49.2341 43.4486Z" fill="#F6CAAE"/>
<path d="M49.2341 43.4486C49.2341 45.429 50.6812 47.0713 52.5758 47.3762C52.9197 46.1248 53.1034 44.8076 53.1034 43.4486C53.1034 42.0891 52.9197 40.7724 52.5758 39.521C50.6812 39.826 49.2341 41.4682 49.2341 43.4486Z" fill="#EAB599"/>
<path d="M52.3018 35.6976V41.3343C52.3018 48.7009 46.9202 54.8115 39.8741 55.9456C39.8507 55.9496 39.8255 55.9536 39.802 55.9576C39.0524 56.0778 38.2834 56.1367 37.4983 56.1367C29.3232 56.1367 22.6965 49.5094 22.6965 41.3349V35.6976C22.6965 33.9764 22.9901 32.3221 23.5325 30.7852C25.557 25.0242 31.0461 20.894 37.4983 20.894H37.4995C38.2834 20.894 39.0536 20.9547 39.8043 21.0731C46.8848 22.1792 52.3018 28.3064 52.3018 35.6976Z" fill="#EAB599"/>
<path d="M54.6346 43.4486C54.6346 44.2337 53.9983 44.8706 53.2127 44.8706C52.4276 44.8706 51.7908 44.2337 51.7908 43.4486C51.7908 42.663 52.4276 42.0267 53.2127 42.0267C53.9983 42.0267 54.6346 42.663 54.6346 43.4486Z" fill="#EAB599"/>
<path d="M52.3013 35.6976V41.3343C52.3013 48.7003 46.9203 54.8115 39.8741 55.9456C39.8501 55.9496 39.8255 55.9536 39.8015 55.9576C32.7216 54.851 27.3057 48.7244 27.3057 41.3343V35.6976C27.3057 28.3064 32.7227 22.1792 39.8043 21.0732C46.8848 22.1792 52.3013 28.3064 52.3013 35.6976Z" fill="#F6CAAE"/>
<path d="M34.3461 40.472C34.3461 41.3996 33.5942 42.1514 32.6672 42.1514C31.7397 42.1514 30.9878 41.3996 30.9878 40.472C30.9878 39.5451 31.7397 38.7932 32.6672 38.7932C33.5942 38.7932 34.3461 39.5451 34.3461 40.472Z" fill="#3D4159"/>
<path d="M44.01 40.472C44.01 41.3996 43.2581 42.1514 42.3305 42.1514C41.403 42.1514 40.6511 41.3996 40.6511 40.472C40.6511 39.5451 41.403 38.7932 42.3305 38.7932C43.2581 38.7932 44.01 39.5451 44.01 40.472Z" fill="#3D4159"/>
<path d="M34.0038 40.1762C34.0038 40.5733 33.6816 40.8955 33.284 40.8955C32.8868 40.8955 32.5647 40.5733 32.5647 40.1762C32.5647 39.7785 32.8868 39.4564 33.284 39.4564C33.6816 39.4564 34.0038 39.7785 34.0038 40.1762Z" fill="white"/>
<path d="M43.7496 40.1762C43.7496 40.5733 43.4275 40.8955 43.0304 40.8955C42.6327 40.8955 42.3105 40.5733 42.3105 40.1762C42.3105 39.7785 42.6327 39.4564 43.0304 39.4564C43.4275 39.4564 43.7496 39.7785 43.7496 40.1762Z" fill="white"/>
<path d="M39.1782 44.042H35.8194C35.4194 44.042 35.095 43.7176 35.095 43.3176C35.095 42.9171 35.4194 42.5932 35.8194 42.5932H39.1782C39.5782 42.5932 39.9026 42.9171 39.9026 43.3176C39.9021 43.7176 39.5776 44.042 39.1782 44.042Z" fill="#EAB599"/>
<path d="M37.4988 48.6248C36.2594 48.6248 35.0194 48.3141 33.8899 47.6927C33.5712 47.5176 33.4545 47.117 33.6301 46.7989C33.8052 46.4802 34.2058 46.364 34.5245 46.5385C36.387 47.5628 38.6106 47.5628 40.4731 46.5385C40.7918 46.3634 41.1924 46.4796 41.3675 46.7989C41.5431 47.117 41.4264 47.5176 41.1077 47.6927C39.9776 48.3141 38.7382 48.6248 37.4988 48.6248Z" fill="#EAB599"/>
<path d="M52.3017 30.582V36.3562H49.5465V31.834L29.659 28.1387L25.451 27.3565V36.3562H22.6958V30.5815C22.6958 23.9988 28.031 18.6636 34.6125 18.6636H40.3849C40.5417 18.6636 40.6985 18.6665 40.8553 18.6745C47.2176 18.9194 52.3017 24.1562 52.3017 30.582Z" fill="#2A2F4F"/>
<path d="M52.3019 30.582V36.3562H49.5467V31.834L29.6592 28.1387C30.755 22.8756 35.3211 18.8879 40.8555 18.6745C47.2178 18.9194 52.3019 24.1562 52.3019 30.582Z" fill="#3D4159"/>
</g>
<defs>
<clipPath id="clip0_152_1221">
<rect width="75" height="75" fill="white"/>
</clipPath>
</defs>
</svg>
