<svg width="75" height="75" viewBox="0 0 75 75" fill="none" xmlns="http://www.w3.org/2000/svg">
<g clip-path="url(#clip0_152_1242)">
<path d="M50.5635 71.5458L69.8483 56.0439C73.1177 50.6305 74.9998 44.2853 74.9998 37.5C74.9998 17.661 58.9172 1.57834 39.0782 1.57834C19.2392 1.57834 3.15649 17.661 3.15649 37.5C3.15649 57.339 19.2392 73.4217 39.0782 73.4217C43.0948 73.4217 46.9573 72.762 50.5635 71.5458Z" fill="#B2C3FF"/>
<path d="M69.8483 31.2381C69.8483 27.2175 66.5588 23.928 62.5382 23.928H52.2089V42.1224C52.2089 46.04 49.0215 49.2275 45.1037 49.2275H23.955C22.434 49.2275 21.0133 49.9383 20.0569 51.178C19.2621 52.2083 18.3818 53.1303 17.4343 53.9366V61.2465C17.4343 65.2671 20.7238 68.5566 24.7444 68.5566H45.8931C47.3636 68.5566 48.7306 69.2628 49.6288 70.4271C49.9275 70.8144 50.2393 71.1875 50.5634 71.546C58.6775 68.8096 65.4937 63.2539 69.8481 56.0441V31.2381H69.8483Z" fill="#E9EFFF"/>
<path d="M40.1759 49.2274H23.955C22.434 49.2274 21.0133 49.9382 20.0569 51.1778C19.2621 52.2081 18.3818 53.1302 17.4343 53.9364V61.2464C17.4343 65.2669 20.7238 68.5564 24.7444 68.5564H42.8628C34.5911 61.7164 38.8385 51.8358 40.1759 49.2274Z" fill="#BEC8F7"/>
<path d="M45.1037 4.80392H7.31007C3.28952 4.80392 0 8.09344 0 12.114V42.1223C0 46.1428 3.28952 49.4323 7.31007 49.4323C8.33786 49.4323 8.90747 50.6126 8.27892 51.4256C7.60947 52.2918 6.85864 53.0995 6.02541 53.8335C4.47067 55.2029 5.34525 58.0104 7.31682 58.0042C12.3275 57.9887 17.0234 55.4453 20.2193 51.3027C21.1175 50.1385 22.4846 49.4322 23.955 49.4322H45.1037C49.1243 49.4322 52.4138 46.1427 52.4138 42.1221V12.114C52.414 8.09344 49.1243 4.80392 45.1037 4.80392Z" fill="#5E81FF"/>
<path d="M0 12.114V42.1223C0 46.1428 3.28952 49.4323 7.31007 49.4323C8.33786 49.4323 8.90747 50.6126 8.27892 51.4256C7.60947 52.2918 6.85864 53.0996 6.02541 53.8335C4.47067 55.2029 5.34539 58.0104 7.31682 58.0042C12.3275 57.9887 17.0234 55.4453 20.2193 51.3027C21.1175 50.1385 22.4846 49.4322 23.955 49.4322H26.2069C14.6225 40.9389 21.432 30.2099 21.432 30.2099V24.6113C14.1628 14.5603 24.1811 4.80379 24.1811 4.80379H7.31007C3.28952 4.80393 0 8.09345 0 12.114Z" fill="#4770FF"/>
<path d="M11.8821 30.21C13.4282 30.21 14.6815 28.9567 14.6815 27.4106C14.6815 25.8646 13.4282 24.6113 11.8821 24.6113C10.3361 24.6113 9.08276 25.8646 9.08276 27.4106C9.08276 28.9567 10.3361 30.21 11.8821 30.21Z" fill="#E9EFFF"/>
<path d="M21.4319 30.21C22.978 30.21 24.2313 28.9567 24.2313 27.4106C24.2313 25.8646 22.978 24.6113 21.4319 24.6113C19.8859 24.6113 18.6326 25.8646 18.6326 27.4106C18.6326 28.9567 19.8859 30.21 21.4319 30.21Z" fill="#E9EFFF"/>
<path d="M30.9817 30.21C32.5278 30.21 33.7811 28.9567 33.7811 27.4106C33.7811 25.8646 32.5278 24.6113 30.9817 24.6113C29.4357 24.6113 28.1824 25.8646 28.1824 27.4106C28.1824 28.9567 29.4357 30.21 30.9817 30.21Z" fill="#E9EFFF"/>
<path d="M40.5315 30.21C42.0776 30.21 43.3309 28.9567 43.3309 27.4106C43.3309 25.8646 42.0776 24.6113 40.5315 24.6113C38.9855 24.6113 37.7322 25.8646 37.7322 27.4106C37.7322 28.9567 38.9855 30.21 40.5315 30.21Z" fill="#E9EFFF"/>
</g>
<defs>
<clipPath id="clip0_152_1242">
<rect width="75" height="75" fill="white"/>
</clipPath>
</defs>
</svg>
