<svg width="75" height="75" viewBox="0 0 75 75" fill="none" xmlns="http://www.w3.org/2000/svg">
<g clip-path="url(#clip0_152_1226)">
<path d="M69.9107 54.5402C72.1399 49.8661 73.389 44.6347 73.389 39.111C73.389 19.2901 57.321 3.22207 37.5 3.22207C17.6791 3.22207 1.61108 19.2901 1.61108 39.111C1.61108 40.2362 1.66543 41.3483 1.7668 42.4471L69.9107 54.5402Z" fill="#B2C3FF"/>
<path d="M63.3049 0H37.1062V2.08506C37.1062 3.08291 36.2973 3.89194 35.2995 3.89194H35.1019L35.2749 4.1603C35.2749 4.1603 32.8503 6.07002 35.2749 8.1167C35.2749 8.1167 32.5328 10.3444 35.2749 12.6098C35.2749 12.6098 30.2135 18.0177 35.2749 24.3933C35.2749 24.3933 33.012 26.6988 35.7952 28.8864C35.7952 28.8864 33.468 31.6421 36.133 33.83C38.7981 36.0179 36.133 40.2094 36.133 40.2094C36.133 40.2094 34.2202 41.9291 36.133 43.8419C38.0458 45.7545 36.133 50.2213 36.133 50.2213C36.133 50.2213 34.2152 51.936 36.133 53.8538C38.0507 55.7716 36.133 60.2332 36.133 60.2332C36.133 60.2332 34.1125 61.8453 36.133 63.8657C38.1534 65.8862 36.133 70.2451 36.133 70.2451C36.133 70.2451 33.7372 72.4348 35.6862 74.954C36.2872 74.9839 36.8916 75 37.5 75C44.841 75 51.6666 72.7951 57.3521 69.0125L57.3517 69.0117L63.63 63.7099L63.6301 63.71C66.17 61.0128 68.2974 57.9227 69.9105 54.5401V6.60571C69.9107 2.97261 66.9381 0 63.3049 0Z" fill="#2A428C"/>
<path d="M36.4263 40.2094C36.4263 40.2094 39.0914 36.0179 36.4263 33.83C33.7611 31.6421 36.0885 28.8864 36.0885 28.8864C33.3053 26.6988 35.5682 24.3933 35.5682 24.3933C30.5068 18.0177 35.5682 12.6098 35.5682 12.6098C32.8261 10.3444 35.5682 8.1167 35.5682 8.1167C33.1436 6.07002 35.5682 4.1603 35.5682 4.1603L35.3921 3.88726C35.3613 3.88872 35.3309 3.89194 35.2997 3.89194H19.0664C18.6895 4.72119 18.4775 5.63965 18.4775 6.60586V69.5465C23.5935 72.7509 29.5743 74.7018 35.9908 74.9676C34.0226 72.4427 36.4263 70.2451 36.4263 70.2451C36.4263 70.2451 38.4467 65.8862 36.4263 63.8657C34.4058 61.8453 36.4263 60.2332 36.4263 60.2332C36.4263 60.2332 38.344 55.7716 36.4263 53.8538C34.5085 51.936 36.4263 50.2213 36.4263 50.2213C36.4263 50.2213 38.3391 45.7547 36.4263 43.8419C34.5135 41.9291 36.4263 40.2094 36.4263 40.2094Z" fill="#1C2E7A"/>
<path d="M60.2812 5.25894H57.0603C56.4536 5.25894 55.9617 4.76719 55.9617 4.1603C55.9617 3.55342 56.4536 3.06167 57.0603 3.06167H60.2812C60.8879 3.06167 61.3798 3.55342 61.3798 4.1603C61.3798 4.76719 60.8879 5.25894 60.2812 5.25894Z" fill="#6289CC"/>
<path d="M25.0833 0C22.3131 0 19.9288 1.72896 18.9514 4.1603H35.568C36.5659 4.1603 37.3748 3.35142 37.3748 2.35356V0H25.0833Z" fill="#3C58A0"/>
<path d="M60.3804 8.1167H35.2749C35.2749 8.1167 32.5328 10.3444 35.2749 12.6098C35.2749 12.6098 30.2135 18.0177 35.2749 24.3933C35.2749 24.3933 33.012 26.6988 35.7952 28.8864H60.3804C63.6426 28.8864 66.2872 26.2419 66.2872 22.9796V14.0234C66.2872 10.7612 63.6426 8.1167 60.3804 8.1167Z" fill="#DEEEFF"/>
<path d="M35.5679 8.1167H28.0077C24.7453 8.1167 22.1008 10.7613 22.1008 14.0237V22.9797C22.1008 26.2419 24.7453 28.8866 28.0077 28.8866H36.0883C33.3051 26.699 35.568 24.3935 35.568 24.3935C30.5067 18.0179 35.568 12.61 35.568 12.61C32.826 10.3443 35.5679 8.1167 35.5679 8.1167Z" fill="#BECAF5"/>
<path d="M60.6835 12.6098H35.2749C35.2749 12.6098 30.2135 18.0177 35.2749 24.3933H60.6835C61.3951 24.3933 61.9719 23.8165 61.9719 23.1048V13.8981C61.9719 13.1867 61.3951 12.6098 60.6835 12.6098Z" fill="#6B8CFF"/>
<path d="M27.7047 12.6098C26.9931 12.6098 26.4163 13.1867 26.4163 13.8983V23.105C26.4163 23.8166 26.9931 24.3935 27.7047 24.3935H35.5682C30.5068 18.0179 35.5682 12.61 35.5682 12.61L27.7047 12.6098Z" fill="#4770FF"/>
<path d="M39.1485 33.83H36.4261C35.4162 33.83 34.5977 34.6487 34.5977 35.6584V38.3808C34.5977 39.3907 35.4164 40.2092 36.4261 40.2092H39.1485C40.1583 40.2092 40.9769 39.3905 40.9769 38.3808V35.6584C40.9769 34.6485 40.1583 33.83 39.1485 33.83Z" fill="#4770FF"/>
<path d="M39.2979 34.6356H37.9367C37.4317 34.6356 37.0225 35.0449 37.0225 35.5499V36.9111C37.0225 37.4161 37.4317 37.8253 37.9367 37.8253H39.2979C39.8029 37.8253 40.2122 37.4161 40.2122 36.9111V35.5499C40.2123 35.0449 39.8029 34.6356 39.2979 34.6356Z" fill="#6B8CFF"/>
<path d="M63.6301 63.7099C63.6301 60.4655 63.6301 56.6477 63.6301 55.6822C63.6301 54.6724 62.8114 53.8538 61.8017 53.8538H59.0793C58.0694 53.8538 57.2507 54.6724 57.2507 55.6822V68.4166C57.2507 68.6251 57.2874 68.8248 57.3518 69.0116C59.6436 67.487 61.7499 65.7064 63.6301 63.7099Z" fill="#4770FF"/>
<path d="M16.9837 31.1229C14.0101 31.1229 11.2278 31.9409 8.84814 33.3628C12.0865 43.771 19.9353 52.1471 30.0055 56.1032C31.8088 53.5266 32.8678 50.3905 32.8678 47.0067C32.8676 38.2343 25.7561 31.1229 16.9837 31.1229Z" fill="#FFDD40"/>
<path d="M26.482 57.1775C26.4798 56.9414 26.3213 56.739 26.0922 56.6823C25.0016 56.4123 24.8078 55.6228 24.798 55.1338C24.7933 54.8963 24.6175 54.6999 24.3843 54.6551C20.4988 53.9095 20.7449 50.8797 20.8428 50.2364C20.8567 50.1453 20.8467 50.0531 20.8113 49.9679C20.6198 49.5069 19.8165 48.065 16.9838 47.0068C14.2148 45.9725 14.1462 43.0444 14.2193 41.9738C14.2352 41.742 14.0896 41.5358 13.87 41.4602C11.6652 40.7005 11.6816 38.6669 11.8076 37.7654C11.8416 37.5217 11.6953 37.2955 11.4629 37.2141C10.369 36.8306 10.3394 35.8961 10.4255 35.3555C10.4613 35.1314 10.3385 34.9192 10.1308 34.8281C9.40967 34.5122 9.32837 33.8556 9.36147 33.4291C9.37026 33.3148 9.34038 33.2057 9.28252 33.1147C5.69731 35.1066 2.96494 38.4453 1.76685 42.4469C2.39072 49.2141 4.89077 55.4375 8.74565 60.5899C11.1476 62.0498 13.9675 62.8906 16.9838 62.8906C21.2247 62.8906 25.0743 61.2253 27.9229 58.5173C27.8496 58.4539 27.7589 58.4104 27.6578 58.3972C26.6671 58.2687 26.4862 57.6199 26.482 57.1775Z" fill="#FFB332"/>
<path d="M16.9838 36.0729C14.6396 36.0729 12.4698 36.813 10.6897 38.0689C13.8642 44.7508 19.0422 50.2954 25.448 53.9275C26.9912 52.0424 27.9177 49.6332 27.9177 47.0068C27.9177 40.9682 23.0225 36.0729 16.9838 36.0729Z" fill="#FCECA9"/>
<path d="M24.6522 54.7983C24.5809 54.727 24.489 54.6751 24.3841 54.6551C20.4986 53.9095 20.7447 50.8797 20.8426 50.2364C20.8565 50.1451 20.8465 50.0531 20.8111 49.9679C20.6196 49.5069 19.8163 48.065 16.9836 47.0068C14.2146 45.9725 14.146 43.0444 14.2191 41.9738C14.235 41.7422 14.0894 41.5358 13.8698 41.4602C11.665 40.7007 11.6814 38.6669 11.8074 37.7654C11.8251 37.6389 11.7934 37.5176 11.727 37.4183C8.34351 39.2771 6.04956 42.8736 6.04956 47.0068C6.04956 53.0455 10.9449 57.9407 16.9836 57.9407C19.9717 57.9407 22.6786 56.741 24.6522 54.7983Z" fill="#FFDD40"/>
<path d="M16.9836 33.351C14.2653 33.351 11.7303 34.1496 9.6001 35.5241C9.93145 36.3889 10.2946 37.2378 10.6895 38.0688C12.4696 36.813 14.6396 36.0728 16.9836 36.0728C23.0223 36.0728 27.9175 40.968 27.9175 47.0067C27.9175 49.6329 26.9909 52.0422 25.4478 53.9273C26.2479 54.381 27.0673 54.8042 27.9042 55.1966C29.6208 52.9134 30.6395 50.0769 30.6395 47.0067C30.6394 39.477 24.5135 33.351 16.9836 33.351Z" fill="#FFB332"/>
<path d="M16.9837 60.6627C20.6275 60.6627 23.9398 59.2254 26.3911 56.8915C26.3221 56.7902 26.2186 56.7136 26.0921 56.6824C25.0016 56.4124 24.8078 55.6228 24.7979 55.1339C24.7953 55.0031 24.7396 54.8859 24.6522 54.7985C22.6786 56.741 19.9719 57.9409 16.9837 57.9409C10.9451 57.9409 6.04971 53.0455 6.04971 47.0068C6.04971 42.8738 8.34365 39.2771 11.7271 37.4183C11.6656 37.3263 11.5747 37.2532 11.463 37.2139C10.3691 36.8304 10.3395 35.896 10.4256 35.3553C10.4423 35.2504 10.4233 35.1486 10.378 35.0602C6.17788 37.3917 3.32788 41.8718 3.32788 47.0067C3.32788 54.5366 9.45386 60.6627 16.9837 60.6627Z" fill="#FF9100"/>
<path d="M16.9838 41.1942C13.8843 41.1942 10.9927 42.0829 8.54834 43.6179C10.6089 54.7049 17.7643 64.0018 27.4958 68.9846C30.7898 66.0743 32.8677 61.819 32.8677 57.0781C32.8677 48.3057 25.7562 41.1942 16.9838 41.1942Z" fill="#FFDD40"/>
<path d="M26.482 67.2489C26.4798 67.0128 26.3213 66.8104 26.0922 66.7537C25.0017 66.4835 24.8079 65.694 24.798 65.2052C24.7934 64.9677 24.6176 64.7713 24.3844 64.7263C20.4989 63.9807 20.745 60.951 20.8428 60.3078C20.8567 60.2165 20.8468 60.1245 20.8113 60.0393C20.6199 59.5783 19.8166 58.1363 16.9838 57.0782C14.2148 56.0439 14.1463 53.1158 14.2194 52.0452C14.2352 51.8136 14.0896 51.6072 13.87 51.5316C11.6653 50.7719 11.6817 48.7383 11.8077 47.8368C11.8417 47.5931 11.6953 47.3669 11.463 47.2855C10.369 46.902 10.3395 45.9675 10.4256 45.4269C10.4613 45.2027 10.3386 44.9906 10.1309 44.8995C9.40972 44.5835 9.32842 43.927 9.36152 43.5004C9.37031 43.3862 9.34043 43.2771 9.28257 43.1861C6.69009 44.6265 4.54248 46.7706 3.09888 49.3605C6.08877 59.4104 13.36 67.6162 22.7999 71.8601C24.7178 71.1037 26.4538 69.9853 27.9229 68.5887C27.8495 68.5254 27.7588 68.4817 27.6577 68.4687C26.6672 68.3399 26.4863 67.6912 26.482 67.2489Z" fill="#FFB332"/>
<path d="M16.9837 46.1442C14.2823 46.1442 11.8115 47.1259 9.90356 48.7494C12.3576 55.8482 16.9754 61.937 22.9701 66.2262C25.9489 64.2728 27.9176 60.9063 27.9176 57.0782C27.9176 51.0394 23.0224 46.1442 16.9837 46.1442Z" fill="#FCECA9"/>
<path d="M20.8425 60.3076C20.8564 60.2164 20.8464 60.1244 20.811 60.0391C20.6195 59.5781 19.8162 58.1361 16.9835 57.0781C14.2145 56.0438 14.1459 53.1157 14.219 52.045C14.2349 51.8134 14.0893 51.607 13.8697 51.5314C11.6649 50.7718 11.6813 48.7381 11.8073 47.8367C11.825 47.7101 11.7933 47.5888 11.7269 47.4895C8.51758 49.2527 6.29014 52.5795 6.06909 56.4444C8.57544 60.9795 12.0341 64.9144 16.1764 67.9792C16.4431 67.9986 16.7116 68.012 16.9835 68.012C19.9715 68.012 22.6784 66.8123 24.652 64.8696C24.5806 64.7982 24.4888 64.7464 24.3839 64.7262C20.4985 63.9807 20.7446 60.951 20.8425 60.3076Z" fill="#FFDD40"/>
<path d="M16.9838 43.4222C14.0335 43.4222 11.2989 44.3628 9.06372 45.9598C9.30615 46.9055 9.58784 47.8354 9.90381 48.7493C11.8118 47.1258 14.2825 46.144 16.984 46.144C23.0227 46.144 27.9179 51.0393 27.9179 57.0779C27.9179 60.906 25.9491 64.2727 22.9704 66.2259C23.7584 66.7897 24.5707 67.3217 25.4045 67.8215C28.5901 65.3193 30.6398 61.4335 30.6398 57.0779C30.6396 49.5482 24.5137 43.4222 16.9838 43.4222Z" fill="#FFB332"/>
<path d="M26.0919 66.7537C25.0013 66.4835 24.8075 65.694 24.7977 65.2052C24.7951 65.0744 24.7394 64.9572 24.652 64.8697C22.6784 66.8123 19.9716 68.0121 16.9835 68.0121C16.7118 68.0121 16.4433 67.9988 16.1765 67.9793C17.374 68.8654 18.6291 69.6779 19.9343 70.412C22.4024 69.8651 24.621 68.6477 26.3909 66.9627C26.3219 66.8615 26.2185 66.7849 26.0919 66.7537Z" fill="#FF9100"/>
<path d="M6.06929 56.4444C6.29033 52.5795 8.51777 49.2527 11.7271 47.4895C11.6656 47.3977 11.5746 47.3244 11.463 47.2853C10.369 46.9018 10.3395 45.9674 10.4256 45.4267C10.4423 45.3217 10.4232 45.22 10.378 45.1315C7.52095 46.7175 5.28984 49.2984 4.1543 52.4026C4.70991 53.7951 5.35063 55.1442 6.06929 56.4444Z" fill="#FF9100"/>
<path d="M2.37866 31.7017C15.4676 28.7206 13.9377 18.9063 12.1124 13.7443C7.28794 18.5726 3.83384 24.7695 2.37866 31.7017Z" fill="#73C3F9"/>
<path d="M48.9883 33.83H46.2659C45.2561 33.83 44.4375 34.6487 44.4375 35.6584V38.3808C44.4375 39.3907 45.2562 40.2092 46.2659 40.2092H48.9883C49.9982 40.2092 50.8167 39.3905 50.8167 38.3808V35.6584C50.8169 34.6485 49.9982 33.83 48.9883 33.83Z" fill="#4770FF"/>
<path d="M49.1378 34.6356H47.7765C47.2716 34.6356 46.8623 35.0449 46.8623 35.5499V36.9111C46.8623 37.4161 47.2716 37.8253 47.7765 37.8253H49.1378C49.6427 37.8253 50.052 37.4161 50.052 36.9111V35.5499C50.052 35.0449 49.6427 34.6356 49.1378 34.6356Z" fill="#6B8CFF"/>
<path d="M39.1485 43.8419H36.4261C35.4162 43.8419 34.5977 44.6606 34.5977 45.6703V48.3927C34.5977 49.4026 35.4164 50.2211 36.4261 50.2211H39.1485C40.1583 50.2211 40.9769 49.4024 40.9769 48.3927V45.6703C40.9769 44.6604 40.1583 43.8419 39.1485 43.8419Z" fill="#4770FF"/>
<path d="M39.2979 44.6476H37.9367C37.4317 44.6476 37.0225 45.0568 37.0225 45.5618V46.923C37.0225 47.428 37.4317 47.8373 37.9367 47.8373H39.2979C39.8029 47.8373 40.2122 47.428 40.2122 46.923V45.5618C40.2123 45.0568 39.8029 44.6476 39.2979 44.6476Z" fill="#6B8CFF"/>
<path d="M48.9883 43.8419H46.2659C45.2561 43.8419 44.4375 44.6606 44.4375 45.6703V48.3927C44.4375 49.4026 45.2562 50.2211 46.2659 50.2211H48.9883C49.9982 50.2211 50.8167 49.4024 50.8167 48.3927V45.6703C50.8169 44.6604 49.9982 43.8419 48.9883 43.8419Z" fill="#4770FF"/>
<path d="M49.1378 44.6476H47.7765C47.2716 44.6476 46.8623 45.0568 46.8623 45.5618V46.923C46.8623 47.428 47.2716 47.8373 47.7765 47.8373H49.1378C49.6427 47.8373 50.052 47.428 50.052 46.923V45.5618C50.052 45.0568 49.6427 44.6476 49.1378 44.6476Z" fill="#6B8CFF"/>
<path d="M39.1485 53.8538H36.4261C35.4162 53.8538 34.5977 54.6725 34.5977 55.6822V58.4046C34.5977 59.4145 35.4164 60.2331 36.4261 60.2331H39.1485C40.1583 60.2331 40.9769 59.4144 40.9769 58.4046V55.6822C40.9769 54.6724 40.1583 53.8538 39.1485 53.8538Z" fill="#4770FF"/>
<path d="M39.2979 54.6595H37.9367C37.4317 54.6595 37.0225 55.0688 37.0225 55.5737V56.935C37.0225 57.4399 37.4317 57.8492 37.9367 57.8492H39.2979C39.8029 57.8492 40.2122 57.4399 40.2122 56.935V55.5737C40.2123 55.0688 39.8029 54.6595 39.2979 54.6595Z" fill="#6B8CFF"/>
<path d="M48.9883 53.8538H46.2659C45.2561 53.8538 44.4375 54.6725 44.4375 55.6822V58.4046C44.4375 59.4145 45.2562 60.2331 46.2659 60.2331H48.9883C49.9982 60.2331 50.8167 59.4144 50.8167 58.4046V55.6822C50.8169 54.6724 49.9982 53.8538 48.9883 53.8538Z" fill="#4770FF"/>
<path d="M49.1378 54.6595H47.7765C47.2716 54.6595 46.8623 55.0688 46.8623 55.5737V56.935C46.8623 57.4399 47.2716 57.8492 47.7765 57.8492H49.1378C49.6427 57.8492 50.052 57.4399 50.052 56.935V55.5737C50.052 55.0688 49.6427 54.6595 49.1378 54.6595Z" fill="#6B8CFF"/>
<path d="M61.9513 54.6595H60.59C60.0851 54.6595 59.6758 55.0688 59.6758 55.5737V60.2332C59.6758 60.7381 60.0851 61.1474 60.59 61.1474H61.9513C62.4562 61.1474 62.8655 60.7381 62.8655 60.2332V55.5737C62.8655 55.0688 62.4562 54.6595 61.9513 54.6595Z" fill="#6B8CFF"/>
<path d="M39.1485 63.8656H36.4261C35.4162 63.8656 34.5977 64.6843 34.5977 65.694V68.4164C34.5977 69.4263 35.4164 70.2448 36.4261 70.2448H39.1485C40.1583 70.2448 40.9769 69.4261 40.9769 68.4164V65.694C40.9769 64.6843 40.1583 63.8656 39.1485 63.8656Z" fill="#4770FF"/>
<path d="M39.2979 64.6712H37.9367C37.4317 64.6712 37.0225 65.0805 37.0225 65.5855V66.9467C37.0225 67.4517 37.4317 67.8609 37.9367 67.8609H39.2979C39.8029 67.8609 40.2122 67.4517 40.2122 66.9467V65.5855C40.2123 65.0807 39.8029 64.6712 39.2979 64.6712Z" fill="#6B8CFF"/>
<path d="M48.9883 63.8656H46.2659C45.2561 63.8656 44.4375 64.6843 44.4375 65.694V68.4164C44.4375 69.4263 45.2562 70.2448 46.2659 70.2448H48.9883C49.9982 70.2448 50.8167 69.4261 50.8167 68.4164V65.694C50.8169 64.6843 49.9982 63.8656 48.9883 63.8656Z" fill="#4770FF"/>
<path d="M49.1378 64.6712H47.7765C47.2716 64.6712 46.8623 65.0805 46.8623 65.5855V66.9467C46.8623 67.4517 47.2716 67.8609 47.7765 67.8609H49.1378C49.6427 67.8609 50.052 67.4517 50.052 66.9467V65.5855C50.052 65.0807 49.6427 64.6712 49.1378 64.6712Z" fill="#6B8CFF"/>
<path d="M61.8016 33.83H59.0791C58.0693 33.83 57.2507 34.6487 57.2507 35.6584V38.3808C57.2507 39.3907 58.0694 40.2092 59.0791 40.2092H61.8016C62.8114 40.2092 63.63 39.3905 63.63 38.3808V35.6584C63.6301 34.6485 62.8114 33.83 61.8016 33.83Z" fill="#88CE65"/>
<path d="M61.9513 34.6356H60.59C60.0851 34.6356 59.6758 35.0449 59.6758 35.5499V36.9111C59.6758 37.4161 60.0851 37.8253 60.59 37.8253H61.9513C62.4562 37.8253 62.8655 37.4161 62.8655 36.9111V35.5499C62.8655 35.0449 62.4562 34.6356 61.9513 34.6356Z" fill="#B4D667"/>
<path d="M61.8016 43.8419H59.0791C58.0693 43.8419 57.2507 44.6606 57.2507 45.6703V48.3927C57.2507 49.4026 58.0694 50.2211 59.0791 50.2211H61.8016C62.8114 50.2211 63.63 49.4024 63.63 48.3927V45.6703C63.6301 44.6604 62.8114 43.8419 61.8016 43.8419Z" fill="#FFC839"/>
<path d="M61.9513 44.6476H60.59C60.0851 44.6476 59.6758 45.0568 59.6758 45.5618V46.923C59.6758 47.428 60.0851 47.8373 60.59 47.8373H61.9513C62.4562 47.8373 62.8655 47.428 62.8655 46.923V45.5618C62.8655 45.0568 62.4562 44.6476 61.9513 44.6476Z" fill="#FFDD40"/>
</g>
<defs>
<clipPath id="clip0_152_1226">
<rect width="75" height="75" fill="white"/>
</clipPath>
</defs>
</svg>
