<svg width="75" height="75" viewBox="0 0 75 75" fill="none" xmlns="http://www.w3.org/2000/svg">
<g clip-path="url(#clip0_152_1232)">
<path d="M37.5 75C58.2107 75 75 58.2107 75 37.5C75 16.7893 58.2107 0 37.5 0C16.7893 0 0 16.7893 0 37.5C0 58.2107 16.7893 75 37.5 75Z" fill="#B2C3FF"/>
<path d="M51.5604 55.7417H16.6993C14.0912 55.7417 11.9768 53.6274 11.9768 51.0192C11.9768 48.411 14.0912 46.2967 16.6993 46.2967H51.5604C54.1686 46.2967 56.2829 48.411 56.2829 51.0192C56.2829 53.6274 54.1686 55.7417 51.5604 55.7417Z" fill="#4770FF"/>
<path d="M55.0062 26.9298L57.4365 24.4995L59.8668 26.9298L62.2972 24.4995L62.4303 24.6327V12.9517C62.4303 9.74356 59.8296 7.14273 56.6213 7.14273H40.0701V27.3328H49.7424L52.5759 24.4994L55.0062 26.9298Z" fill="#4770FF"/>
<path d="M49.7424 27.333L52.5759 24.4995L54.0744 25.9981V12.9517C54.0744 10.31 55.8384 8.0817 58.2523 7.37652C57.7346 7.22535 57.1876 7.14273 56.6212 7.14273H40.0701V27.3328H49.7424V27.333Z" fill="#3459DA"/>
<path d="M50.474 52.6657H17.7372C16.8921 52.6657 16.207 51.9806 16.207 51.1355C16.207 50.2904 16.8921 49.6053 17.7372 49.6053H50.4741C51.3192 49.6053 52.0043 50.2904 52.0043 51.1355C52.0042 51.9806 51.3192 52.6657 50.474 52.6657Z" fill="#3459DA"/>
<path d="M56.283 7.14273H23.546C20.3379 7.14273 17.7371 9.74341 17.7371 12.9517V51.1355H50.4738V12.9517C50.474 9.74356 53.0747 7.14273 56.283 7.14273Z" fill="white"/>
<path d="M28.2267 7.14273H23.546C20.3379 7.14273 17.7371 9.74341 17.7371 12.9517V51.1355H22.4177V12.9517C22.4177 9.74356 25.0185 7.14273 28.2267 7.14273Z" fill="#CED9FF"/>
<path d="M22.4177 17.1344H35.7521V20.2017H22.4177V17.1344Z" fill="#4770FF"/>
<path d="M41.2104 17.1344H45.8941V20.2017H41.2104V17.1344Z" fill="#4770FF"/>
<path d="M22.4177 25.5048H35.7521V28.5721H22.4177V25.5048Z" fill="#4770FF"/>
<path d="M41.2104 25.5048H45.8941V28.5721H41.2104V25.5048Z" fill="#4770FF"/>
<path d="M22.4177 34.1307H35.7521V37.198H22.4177V34.1307Z" fill="#4770FF"/>
<path d="M41.2104 34.1307H45.8941V37.198H41.2104V34.1307Z" fill="#4770FF"/>
<path d="M25.4192 45.1329H64.7476V64.1556H25.4192V45.1329Z" fill="#5D913F"/>
<path d="M62.4516 47.4289V61.8598H27.715V47.4289H62.4516ZM64.7476 45.1329H25.4192V64.1556H64.7476V45.1329Z" fill="#3D772A"/>
<path d="M25.4188 50.5383C26.0467 50.9773 26.8102 51.2355 27.6344 51.2355C29.7731 51.2355 31.5069 49.5018 31.5069 47.3631C31.5069 46.5324 31.2445 45.7635 30.7992 45.1329H25.4187V50.5383H25.4188Z" fill="#3D772A"/>
<path d="M27.6345 58.1112C26.8103 58.1112 26.0468 58.3695 25.4189 58.8085V64.1558H30.8408C31.2612 63.5363 31.507 62.7888 31.507 61.9838C31.507 59.845 29.7732 58.1112 27.6345 58.1112Z" fill="#3D772A"/>
<path d="M58.2405 47.3631C58.2405 49.5018 59.9743 51.2355 62.1129 51.2355C63.1306 51.2355 64.0562 50.8424 64.7473 50.2003V45.1329H58.9481C58.5028 45.7636 58.2405 46.5325 58.2405 47.3631Z" fill="#3D772A"/>
<path d="M64.7473 59.1463C64.0562 58.5043 63.1307 58.1111 62.1129 58.1111C59.9743 58.1111 58.2405 59.8449 58.2405 61.9835C58.2405 62.7886 58.4863 63.5361 58.9067 64.1555H64.7473V59.1463Z" fill="#3D772A"/>
<path d="M45.0831 61.1089C48.6534 61.1089 51.5477 58.2146 51.5477 54.6442C51.5477 51.0739 48.6534 48.1796 45.0831 48.1796C41.5127 48.1796 38.6184 51.0739 38.6184 54.6442C38.6184 58.2146 41.5127 61.1089 45.0831 61.1089Z" fill="#3D772A"/>
<path d="M29.3584 53.4198H36.7863V55.8687H29.3584V53.4198Z" fill="#6EAA50"/>
<path d="M53.3889 53.4198H60.8168V55.8687H53.3889V53.4198Z" fill="#6EAA50"/>
<path d="M44.6479 58.0844C43.9593 58.0635 43.3958 57.9381 42.8534 57.6877V56.1329L43.8864 56.0599V56.6651C43.8864 56.8529 43.9176 56.926 44.095 56.9886C44.241 57.0409 44.4394 57.0721 44.6479 57.0721V55.1206C43.688 54.8597 42.822 54.4528 42.822 53.2425C42.822 52.199 43.5418 51.4999 44.6479 51.3434V50.3834H45.4306V51.3226C45.9941 51.3538 46.5366 51.4791 47.0481 51.7189V53.1901L46.0253 53.2528V52.6892C46.0253 52.5015 45.9941 52.4284 45.8167 52.3658C45.7019 52.3346 45.5664 52.3031 45.4306 52.2927V54.129H45.4412C46.3593 54.4109 47.3192 54.8178 47.3192 56.0805C47.3192 57.2073 46.5366 57.8856 45.4306 58.0525V59.1272H44.6479V58.0844ZM44.6479 53.8582V52.3557C44.3141 52.4706 44.1054 52.7103 44.1054 53.1278C44.1055 53.5036 44.3141 53.7017 44.6479 53.8582ZM45.4306 55.3714V56.9991C45.7855 56.8843 46.0253 56.6234 46.0253 56.1329C46.0253 55.7366 45.7855 55.5174 45.4306 55.3714Z" fill="#6EAA50"/>
<path d="M30.5891 50.1609H69.9175V69.1837H30.5891V50.1609Z" fill="#97D729"/>
<path d="M67.6215 52.4569V66.8878H32.885V52.4569H67.6215ZM69.9175 50.1609H30.5891V69.1837H69.9175V50.1609Z" fill="#6EAA50"/>
<path d="M30.5888 55.5664C31.2166 56.0054 31.9801 56.2636 32.8043 56.2636C34.943 56.2636 36.6768 54.5298 36.6768 52.3912C36.6768 51.5604 36.4145 50.7915 35.9691 50.1609H30.5886V55.5664H30.5888Z" fill="#6EAA50"/>
<path d="M32.8044 63.1392C31.9802 63.1392 31.2167 63.3974 30.5889 63.8364V69.1837H36.0107C36.4311 68.5642 36.6769 67.8167 36.6769 67.0118C36.6769 64.873 34.9431 63.1392 32.8044 63.1392Z" fill="#6EAA50"/>
<path d="M63.4104 52.3912C63.4104 54.5298 65.1442 56.2636 67.2829 56.2636C68.3005 56.2636 69.2261 55.8705 69.9172 55.2284V50.1609H64.1181C63.6728 50.7915 63.4104 51.5604 63.4104 52.3912Z" fill="#6EAA50"/>
<path d="M69.9172 64.1744C69.2261 63.5323 68.3006 63.1392 67.2829 63.1392C65.1442 63.1392 63.4104 64.8729 63.4104 67.0116C63.4104 67.8167 63.6562 68.5642 64.0766 69.1835H69.9172V64.1744Z" fill="#6EAA50"/>
<path d="M50.253 66.137C53.8233 66.137 56.7176 63.2426 56.7176 59.6723C56.7176 56.102 53.8233 53.2077 50.253 53.2077C46.6826 53.2077 43.7883 56.102 43.7883 59.6723C43.7883 63.2426 46.6826 66.137 50.253 66.137Z" fill="#6EAA50"/>
<path d="M34.5283 58.4478H41.9562V60.8968H34.5283V58.4478Z" fill="#8BC727"/>
<path d="M58.5588 58.4478H65.9868V60.8968H58.5588V58.4478Z" fill="#8BC727"/>
<path d="M13.9653 73.9216C18.4911 73.9216 22.1601 70.2527 22.1601 65.7268C22.1601 61.201 18.4911 57.532 13.9653 57.532C9.43943 57.532 5.77051 61.201 5.77051 65.7268C5.77051 70.2527 9.43943 73.9216 13.9653 73.9216Z" fill="#FEE45A"/>
<path d="M13.9653 60.3712C17.3697 60.3712 20.1632 62.981 20.4578 66.3089C20.4748 66.1171 20.485 65.9231 20.485 65.7268C20.485 62.1261 17.566 59.2071 13.9653 59.2071C10.3646 59.2071 7.44556 62.1261 7.44556 65.7268C7.44556 65.9231 7.45581 66.1169 7.4728 66.3089C7.76738 62.981 10.5608 60.3712 13.9653 60.3712Z" fill="#FFD23C"/>
<path d="M13.9653 59.2783C17.521 59.2783 20.4138 62.1711 20.4138 65.7268C20.4138 69.2826 17.521 72.1754 13.9653 72.1754C10.4095 72.1754 7.51675 69.2826 7.51675 65.7268C7.51675 62.1711 10.4095 59.2783 13.9653 59.2783ZM13.9653 57.532C9.43936 57.532 5.77051 61.201 5.77051 65.7268C5.77051 70.2526 9.4395 73.9216 13.9653 73.9216C18.4911 73.9216 22.1601 70.2526 22.1601 65.7268C22.1601 61.2009 18.4912 57.532 13.9653 57.532Z" fill="#FAF58C"/>
</g>
<defs>
<clipPath id="clip0_152_1232">
<rect width="75" height="75" fill="white"/>
</clipPath>
</defs>
</svg>
