<svg width="93" height="64" viewBox="0 0 93 64" fill="none" xmlns="http://www.w3.org/2000/svg">
<path d="M40.8818 49.5205L41.8406 49.8049L41.8412 49.8027L40.8818 49.5205ZM36.6406 57.667L35.8856 57.0113L35.8849 57.0121L36.6406 57.667ZM14.8467 62.916L14.557 63.8732L14.5686 63.8766L14.8467 62.916ZM9.09375 59.9346L8.46904 60.7155L8.47536 60.7204L9.09375 59.9346ZM4.72656 54.8535L3.86194 55.3559L3.86597 55.3629L3.87011 55.3697L4.72656 54.8535ZM1.95508 47.4629L0.979571 47.6829L1.95508 47.4629ZM2.45898 15.2549L1.50249 14.9631L1.50093 14.9683L2.45898 15.2549ZM6.7002 7.15039L5.94946 6.48974L5.94451 6.49546L6.7002 7.15039ZM13.251 2.53125L13.6134 3.4633L13.6224 3.45973L13.251 2.53125ZM28.4941 1.98535L28.201 2.94141L28.2085 2.94372L28.2161 2.94592L28.4941 1.98535ZM38.6143 9.96387L37.7496 10.4663L37.7526 10.4714L38.6143 9.96387ZM41.3857 17.3125L40.4102 17.5325L40.4107 17.5345L41.3857 17.3125ZM29.8379 19.6221L28.847 19.7564L28.8481 19.7647L28.8493 19.7729L29.8379 19.6221ZM28.7881 15.4229L27.8611 15.7981L27.8643 15.8059L28.7881 15.4229ZM17.9961 11.2656L17.5489 10.3711L17.5393 10.3761L17.9961 11.2656ZM15.3506 13.8271L16.1951 14.3627L16.2009 14.3535L15.3506 13.8271ZM13.6709 18.4463L12.6908 18.2474L12.6887 18.2585L13.6709 18.4463ZM13.4609 45.0693L12.4697 45.2015L12.4708 45.2096L12.472 45.2177L13.4609 45.0693ZM14.5527 49.3945L13.6228 49.7622L13.628 49.7754L13.6336 49.7885L14.5527 49.3945ZM16.3164 52.292L15.569 52.9564L15.582 52.971L15.5956 52.9851L16.3164 52.292ZM18.71 53.8877L18.3588 54.8241L18.3682 54.8275L18.71 53.8877ZM25.3027 53.5938L25.7596 54.4834L25.7685 54.4787L25.3027 53.5938ZM27.9902 50.9902L27.1433 50.4585L27.14 50.4639L27.9902 50.9902ZM41.3516 27.0547V37.6367H43.3516V27.0547H41.3516ZM41.3516 37.6367C41.3516 42.1611 40.8683 46.0226 39.9225 49.2383L41.8412 49.8027C42.855 46.3556 43.3516 42.2946 43.3516 37.6367H41.3516ZM39.9231 49.2361C38.9751 52.4324 37.6212 55.0128 35.8856 57.0113L37.3957 58.3227C39.3554 56.066 40.829 53.2153 41.8406 49.8049L39.9231 49.2361ZM35.8849 57.0121C34.1671 58.9941 32.1283 60.4525 29.7604 61.3997L30.5032 63.2566C33.1745 62.1881 35.4748 60.5391 37.3963 58.3219L35.8849 57.0121ZM29.7604 61.3997C27.3739 62.3543 24.7026 62.8398 21.7334 62.8398V64.8398C24.923 64.8398 27.8507 64.3176 30.5032 63.2566L29.7604 61.3997ZM21.7334 62.8398C19.3535 62.8398 17.1525 62.5424 15.1247 61.9555L14.5686 63.8766C16.7961 64.5214 19.1862 64.8398 21.7334 64.8398V62.8398ZM15.1363 61.9589C13.1252 61.3503 11.3196 60.4136 9.71214 59.1487L8.47536 60.7204C10.2833 62.1431 12.3129 63.194 14.557 63.8731L15.1363 61.9589ZM9.71844 59.1537C8.14058 57.8914 6.76042 56.2907 5.58302 54.3373L3.87011 55.3697C5.15625 57.5036 6.68754 59.2902 8.46906 60.7154L9.71844 59.1537ZM5.59119 54.3511C4.44839 52.3844 3.55686 50.0203 2.93059 47.2429L0.979571 47.6829C1.64106 50.6164 2.59719 53.1794 3.86194 55.3559L5.59119 54.3511ZM2.93059 47.2429C2.30657 44.4756 1.98926 41.2764 1.98926 37.6367H-0.0107422C-0.0107422 41.3877 0.315822 44.7393 0.979571 47.6829L2.93059 47.2429ZM1.98926 37.6367V27.0547H-0.0107422V37.6367H1.98926ZM1.98926 27.0547C1.98926 22.5296 2.4727 18.6983 3.41704 15.5415L1.50093 14.9683C0.485631 18.3623 -0.0107422 22.3975 -0.0107422 27.0547H1.98926ZM3.41546 15.5467C4.3921 12.3455 5.7472 9.77688 7.45588 7.80532L5.94451 6.49546C4.01386 8.72312 2.54149 11.5575 1.50251 14.9631L3.41546 15.5467ZM7.45091 7.81102C9.19653 5.82735 11.2484 4.38297 13.6134 3.46325L12.8885 1.59925C10.2145 2.63916 7.89917 4.27421 5.94948 6.48976L7.45091 7.81102ZM13.6224 3.45973C16.0089 2.5051 18.6802 2.01953 21.6494 2.01953V0.0195312C18.4598 0.0195312 15.5321 0.541775 12.8796 1.60277L13.6224 3.45973ZM21.6494 2.01953C24.0255 2.01953 26.2071 2.32996 28.201 2.94141L28.7873 1.0293C26.5819 0.35298 24.2004 0.0195312 21.6494 0.0195312V2.01953ZM28.2161 2.94592C30.2267 3.52794 32.031 4.43777 33.6367 5.67495L34.8574 4.09067C33.0478 2.69635 31.0168 1.67453 28.7722 1.02479L28.2161 2.94592ZM33.6367 5.67495C35.2308 6.90317 36.6038 8.49432 37.7496 10.4663L39.4789 9.46145C38.2172 7.29018 36.6787 5.49396 34.8574 4.09067L33.6367 5.67495ZM37.7526 10.4714C38.8931 12.4076 39.784 14.7555 40.4102 17.5325L42.3612 17.0925C41.6997 14.1586 40.743 11.6074 39.4759 9.45633L37.7526 10.4714ZM40.4107 17.5345C41.0343 20.273 41.3516 23.4434 41.3516 27.0547H43.3516C43.3516 23.3313 43.0249 20.007 42.3608 17.0905L40.4107 17.5345ZM31.2158 39.2324V25.417H29.2158V39.2324H31.2158ZM31.2158 25.417C31.2158 23.17 31.088 21.1859 30.8265 19.4713L28.8493 19.7729C29.0917 21.3617 29.2158 23.2408 29.2158 25.417H31.2158ZM30.8288 19.4877C30.597 17.7776 30.2298 16.2891 29.7118 15.0398L27.8643 15.8059C28.2982 16.8522 28.6309 18.1631 28.847 19.7564L30.8288 19.4877ZM29.715 15.0477C29.2031 13.7829 28.5529 12.7142 27.7452 11.8743L26.3036 13.2605C26.8957 13.8763 27.4213 14.7113 27.8611 15.798L29.715 15.0477ZM27.7452 11.8743C26.9477 11.0449 26.0254 10.4266 24.982 10.0354L24.2797 11.908C25.028 12.1886 25.7014 12.6342 26.3036 13.2605L27.7452 11.8743ZM24.982 10.0354C23.9592 9.65181 22.8444 9.46777 21.6494 9.46777V11.4678C22.638 11.4678 23.5108 11.6197 24.2797 11.908L24.982 10.0354ZM21.6494 9.46777C20.1463 9.46777 18.7714 9.75994 17.5489 10.3712L18.4433 12.1601C19.3484 11.7075 20.4091 11.4678 21.6494 11.4678V9.46777ZM17.5393 10.3761C16.3137 11.0054 15.3058 11.9997 14.5003 13.3008L16.2009 14.3535C16.8511 13.3031 17.6069 12.5896 18.4529 12.1552L17.5393 10.3761ZM14.5061 13.2916C13.6905 14.5777 13.0971 16.2454 12.6909 18.2474L14.6509 18.6451C15.0286 16.7839 15.5549 15.3722 16.1951 14.3627L14.5061 13.2916ZM12.6887 18.2585C12.3092 20.2436 12.125 22.6342 12.125 25.417H14.125C14.125 22.7128 14.3048 20.4562 14.6531 18.6341L12.6887 18.2585ZM12.125 25.417V39.2324H14.125V25.417H12.125ZM12.125 39.2324C12.125 41.4757 12.2385 43.4671 12.4697 45.2015L14.4522 44.9372C14.2355 43.3122 14.125 41.4123 14.125 39.2324H12.125ZM12.472 45.2177C12.7319 46.9506 13.1118 48.4698 13.6228 49.7622L15.4827 49.0269C15.0418 47.9117 14.6938 46.5474 14.4499 44.921L12.472 45.2177ZM13.6336 49.7885C14.1691 51.0381 14.8097 52.1021 15.569 52.9564L17.0638 51.6276C16.4794 50.9701 15.9441 50.1025 15.4719 49.0006L13.6336 49.7885ZM15.5956 52.9851C16.3931 53.8145 17.3154 54.4327 18.3588 54.824L19.0611 52.9514C18.3128 52.6708 17.6395 52.2252 17.0372 51.5989L15.5956 52.9851ZM18.3682 54.8275C19.413 55.2074 20.5379 55.3916 21.7334 55.3916V53.3916C20.7453 53.3916 19.8546 53.2398 19.0517 52.9479L18.3682 54.8275ZM21.7334 55.3916C23.2115 55.3916 24.5621 55.0982 25.7595 54.4833L24.8459 52.7042C23.9718 53.1531 22.9428 53.3916 21.7334 53.3916V55.3916ZM25.7685 54.4787C27.0126 53.8239 28.0331 52.8209 28.8405 51.5166L27.14 50.4639C26.4917 51.5111 25.7205 52.2439 24.837 52.7088L25.7685 54.4787ZM28.8371 51.522C29.6797 50.18 30.2738 48.4831 30.6526 46.4723L28.6872 46.102C28.3382 47.9544 27.8124 49.3929 27.1433 50.4585L28.8371 51.522ZM30.6526 46.4723C31.0317 44.4604 31.2158 42.0429 31.2158 39.2324H29.2158C29.2158 41.9649 29.036 44.2505 28.6872 46.102L30.6526 46.4723ZM92.4062 53.5518H93.4062V52.5518H92.4062V53.5518ZM92.4062 63V64H93.4062V63H92.4062ZM50.582 63H49.582V64H50.582V63ZM50.582 54.9375L49.8507 54.2554L49.582 54.5435V54.9375H50.582ZM70.3604 33.7314L71.0916 34.4135L71.0979 34.4068L71.1041 34.3999L70.3604 33.7314ZM75.0635 27.8945L75.8891 28.4587L75.8934 28.4524L75.0635 27.8945ZM77.541 23.3174L76.6086 22.9558L76.6047 22.9663L77.541 23.3174ZM77.415 14.667L76.5059 15.0837L76.5093 15.0909L77.415 14.667ZM74.6855 11.5596L74.1592 12.4099L74.1681 12.4153L74.6855 11.5596ZM65.5312 11.8115L64.9765 10.9794L64.9685 10.9849L65.5312 11.8115ZM62.5078 15.5488L61.592 15.1472L61.5891 15.1539L61.5862 15.1608L62.5078 15.5488ZM61.5 20.9658V21.9658H62.5V20.9658H61.5ZM49.3643 20.9658H48.3643V21.9658H49.3643V20.9658ZM51.9678 10.9717L52.835 11.4696L52.837 11.4661L51.9678 10.9717ZM59.3164 3.70703L59.8092 4.57718L59.815 4.57385L59.3164 3.70703ZM81.4043 3.07715L80.9743 3.98007L80.9847 3.98486L81.4043 3.07715ZM88.123 9.04004L87.2582 9.54222L87.2647 9.55316L88.123 9.04004ZM89.4668 24.1992L90.4141 24.5196L90.4155 24.5154L89.4668 24.1992ZM86.6953 29.9102L85.8501 29.3757L85.848 29.379L86.6953 29.9102ZM76.8271 41.626L76.1152 40.9237L76.0974 40.9418L76.0805 40.9608L76.8271 41.626ZM66.2031 53.5518L65.4564 52.8866L63.973 54.5518H66.2031V53.5518ZM91.4062 53.5518V63H93.4062V53.5518H91.4062ZM92.4062 62H50.582V64H92.4062V62ZM51.582 63V54.9375H49.582V63H51.582ZM51.3133 55.6196L71.0916 34.4135L69.6291 33.0494L49.8507 54.2554L51.3133 55.6196ZM71.1041 34.3999C73.1091 32.1689 74.7079 30.1874 75.8891 28.4587L74.2378 27.3303C73.1235 28.961 71.5868 30.8708 69.6166 33.063L71.1041 34.3999ZM75.8934 28.4524C77.0676 26.7055 77.9372 25.1089 78.4773 23.6685L76.6047 22.9663C76.137 24.2133 75.3549 25.6682 74.2335 27.3367L75.8934 28.4524ZM78.4734 23.6789C79.0415 22.2138 79.3389 20.789 79.3389 19.4121H77.3389C77.3389 20.4987 77.1043 21.6775 76.6087 22.9559L78.4734 23.6789ZM79.3389 19.4121C79.3389 17.4565 79.0132 15.7225 78.3207 14.2431L76.5093 15.0909C77.0486 16.243 77.3389 17.6725 77.3389 19.4121H79.3389ZM78.3241 14.2503C77.6291 12.7341 76.5874 11.5409 75.203 10.7038L74.1681 12.4153C75.1913 13.034 75.9692 13.9124 76.506 15.0836L78.3241 14.2503ZM75.2119 10.7093C73.8422 9.86141 72.1929 9.46777 70.3184 9.46777V11.4678C71.9152 11.4678 73.1773 11.802 74.1592 12.4098L75.2119 10.7093ZM70.3184 9.46777C68.3026 9.46777 66.5074 9.95894 64.9765 10.9795L66.086 12.6436C67.2426 11.8724 68.6388 11.4678 70.3184 11.4678V9.46777ZM64.9685 10.9849C63.4829 11.9964 62.3599 13.3964 61.592 15.1472L63.4236 15.9505C64.0554 14.5099 64.9481 13.4184 66.094 12.6381L64.9685 10.9849ZM61.5862 15.1608C60.8548 16.8978 60.5 18.8385 60.5 20.9658H62.5C62.5 19.0619 62.8171 17.3913 63.4295 15.9369L61.5862 15.1608ZM61.5 19.9658H49.3643V21.9658H61.5V19.9658ZM50.3643 20.9658C50.3643 17.4932 51.1902 14.3347 52.835 11.4695L51.1005 10.4738C49.274 13.6555 48.3643 17.1598 48.3643 20.9658H50.3643ZM52.837 11.4661C54.4801 8.57734 56.797 6.28318 59.8092 4.57716L58.8236 2.8369C55.509 4.71421 52.9268 7.26316 51.0985 10.4773L52.837 11.4661ZM59.815 4.57385C62.8004 2.85663 66.3729 1.97754 70.5703 1.97754V-0.0224609C66.0893 -0.0224609 62.1593 0.918112 58.8178 2.84021L59.815 4.57385ZM70.5703 1.97754C74.7497 1.97754 78.2046 2.66108 80.9744 3.98001L81.8342 2.17429C78.7251 0.693739 74.9573 -0.0224609 70.5703 -0.0224609V1.97754ZM80.9847 3.98486C83.7824 5.27815 85.8587 7.13178 87.2583 9.54218L88.9878 8.5379C87.364 5.74127 84.9611 3.61963 81.8239 2.16944L80.9847 3.98486ZM87.2647 9.55316C88.6952 11.9459 89.4326 14.8404 89.4326 18.2783H91.4326C91.4326 14.5496 90.6304 11.2853 88.9814 8.52692L87.2647 9.55316ZM89.4326 18.2783C89.4326 20.1854 89.1284 22.0523 88.5181 23.883L90.4155 24.5154C91.093 22.4829 91.4326 20.4025 91.4326 18.2783H89.4326ZM88.5195 23.8788C87.9039 25.6989 87.0165 27.5312 85.8501 29.3757L87.5405 30.4446C88.7817 28.4819 89.7419 26.5068 90.4141 24.5196L88.5195 23.8788ZM85.848 29.379C84.7037 31.2045 83.3082 33.0666 81.6575 34.9649L83.1667 36.2773C84.8754 34.3123 86.3353 32.3671 87.5426 30.4413L85.848 29.379ZM81.6575 34.9649C79.9933 36.8788 78.1461 38.865 76.1152 40.9237L77.539 42.3283C79.5954 40.2437 81.4716 38.2267 83.1667 36.2773L81.6575 34.9649ZM76.0805 40.9608L65.4564 52.8866L66.9498 54.2169L77.5738 42.2912L76.0805 40.9608ZM66.2031 54.5518H92.4062V52.5518H66.2031V54.5518Z" fill="#D9D9D9"/>
</svg>
