<svg width="92" height="64" viewBox="0 0 92 64" fill="none" xmlns="http://www.w3.org/2000/svg">
<path d="M40.8818 49.5205L41.8406 49.8049L41.8412 49.8027L40.8818 49.5205ZM36.6406 57.667L35.8856 57.0113L35.8849 57.0121L36.6406 57.667ZM14.8467 62.916L14.557 63.8732L14.5686 63.8766L14.8467 62.916ZM9.09375 59.9346L8.46904 60.7155L8.47536 60.7204L9.09375 59.9346ZM4.72656 54.8535L3.86194 55.3559L3.86597 55.3629L3.87011 55.3697L4.72656 54.8535ZM1.95508 47.4629L0.979571 47.6829L1.95508 47.4629ZM2.45898 15.2549L1.50249 14.9631L1.50093 14.9683L2.45898 15.2549ZM6.7002 7.15039L5.94946 6.48974L5.94451 6.49546L6.7002 7.15039ZM13.251 2.53125L13.6134 3.4633L13.6224 3.45973L13.251 2.53125ZM28.4941 1.98535L28.201 2.94141L28.2085 2.94372L28.2161 2.94592L28.4941 1.98535ZM38.6143 9.96387L37.7496 10.4663L37.7526 10.4714L38.6143 9.96387ZM41.3857 17.3125L40.4102 17.5325L40.4107 17.5345L41.3857 17.3125ZM29.8379 19.6221L28.847 19.7564L28.8481 19.7647L28.8493 19.7729L29.8379 19.6221ZM28.7881 15.4229L27.8611 15.7981L27.8643 15.8059L28.7881 15.4229ZM17.9961 11.2656L17.5489 10.3711L17.5393 10.3761L17.9961 11.2656ZM15.3506 13.8271L16.1951 14.3627L16.2009 14.3535L15.3506 13.8271ZM13.6709 18.4463L12.6908 18.2474L12.6887 18.2585L13.6709 18.4463ZM13.4609 45.0693L12.4697 45.2015L12.4708 45.2096L12.472 45.2177L13.4609 45.0693ZM14.5527 49.3945L13.6228 49.7622L13.628 49.7754L13.6336 49.7885L14.5527 49.3945ZM16.3164 52.292L15.569 52.9564L15.582 52.971L15.5956 52.9851L16.3164 52.292ZM18.71 53.8877L18.3588 54.8241L18.3682 54.8275L18.71 53.8877ZM25.3027 53.5938L25.7596 54.4834L25.7685 54.4787L25.3027 53.5938ZM27.9902 50.9902L27.1433 50.4585L27.14 50.4639L27.9902 50.9902ZM41.3516 27.0547V37.6367H43.3516V27.0547H41.3516ZM41.3516 37.6367C41.3516 42.1611 40.8683 46.0226 39.9225 49.2383L41.8412 49.8027C42.855 46.3556 43.3516 42.2946 43.3516 37.6367H41.3516ZM39.9231 49.2361C38.9751 52.4324 37.6212 55.0128 35.8856 57.0113L37.3957 58.3227C39.3554 56.066 40.829 53.2153 41.8406 49.8049L39.9231 49.2361ZM35.8849 57.0121C34.1671 58.9941 32.1283 60.4525 29.7604 61.3997L30.5032 63.2566C33.1745 62.1881 35.4748 60.5391 37.3963 58.3219L35.8849 57.0121ZM29.7604 61.3997C27.3739 62.3543 24.7026 62.8398 21.7334 62.8398V64.8398C24.923 64.8398 27.8507 64.3176 30.5032 63.2566L29.7604 61.3997ZM21.7334 62.8398C19.3535 62.8398 17.1525 62.5424 15.1247 61.9555L14.5686 63.8766C16.7961 64.5214 19.1862 64.8398 21.7334 64.8398V62.8398ZM15.1363 61.9589C13.1252 61.3503 11.3196 60.4136 9.71214 59.1487L8.47536 60.7204C10.2833 62.1431 12.3129 63.194 14.557 63.8731L15.1363 61.9589ZM9.71844 59.1537C8.14058 57.8914 6.76042 56.2907 5.58302 54.3373L3.87011 55.3697C5.15625 57.5036 6.68754 59.2902 8.46906 60.7154L9.71844 59.1537ZM5.59119 54.3511C4.44839 52.3844 3.55686 50.0203 2.93059 47.2429L0.979571 47.6829C1.64106 50.6164 2.59719 53.1794 3.86194 55.3559L5.59119 54.3511ZM2.93059 47.2429C2.30657 44.4756 1.98926 41.2764 1.98926 37.6367H-0.0107422C-0.0107422 41.3877 0.315822 44.7393 0.979571 47.6829L2.93059 47.2429ZM1.98926 37.6367V27.0547H-0.0107422V37.6367H1.98926ZM1.98926 27.0547C1.98926 22.5296 2.4727 18.6983 3.41704 15.5415L1.50093 14.9683C0.485631 18.3623 -0.0107422 22.3975 -0.0107422 27.0547H1.98926ZM3.41546 15.5467C4.3921 12.3455 5.7472 9.77688 7.45588 7.80532L5.94451 6.49546C4.01386 8.72312 2.54149 11.5575 1.50251 14.9631L3.41546 15.5467ZM7.45091 7.81102C9.19653 5.82735 11.2484 4.38297 13.6134 3.46325L12.8885 1.59925C10.2145 2.63916 7.89917 4.27421 5.94948 6.48976L7.45091 7.81102ZM13.6224 3.45973C16.0089 2.5051 18.6802 2.01953 21.6494 2.01953V0.0195312C18.4598 0.0195312 15.5321 0.541775 12.8796 1.60277L13.6224 3.45973ZM21.6494 2.01953C24.0255 2.01953 26.2071 2.32996 28.201 2.94141L28.7873 1.0293C26.5819 0.35298 24.2004 0.0195312 21.6494 0.0195312V2.01953ZM28.2161 2.94592C30.2267 3.52794 32.031 4.43777 33.6367 5.67495L34.8574 4.09067C33.0478 2.69635 31.0168 1.67453 28.7722 1.02479L28.2161 2.94592ZM33.6367 5.67495C35.2308 6.90317 36.6038 8.49432 37.7496 10.4663L39.4789 9.46145C38.2172 7.29018 36.6787 5.49396 34.8574 4.09067L33.6367 5.67495ZM37.7526 10.4714C38.8931 12.4076 39.784 14.7555 40.4102 17.5325L42.3612 17.0925C41.6997 14.1586 40.743 11.6074 39.4759 9.45633L37.7526 10.4714ZM40.4107 17.5345C41.0343 20.273 41.3516 23.4434 41.3516 27.0547H43.3516C43.3516 23.3313 43.0249 20.007 42.3608 17.0905L40.4107 17.5345ZM31.2158 39.2324V25.417H29.2158V39.2324H31.2158ZM31.2158 25.417C31.2158 23.17 31.088 21.1859 30.8265 19.4713L28.8493 19.7729C29.0917 21.3617 29.2158 23.2408 29.2158 25.417H31.2158ZM30.8288 19.4877C30.597 17.7776 30.2298 16.2891 29.7118 15.0398L27.8643 15.8059C28.2982 16.8522 28.6309 18.1631 28.847 19.7564L30.8288 19.4877ZM29.715 15.0477C29.2031 13.7829 28.5529 12.7142 27.7452 11.8743L26.3036 13.2605C26.8957 13.8763 27.4213 14.7113 27.8611 15.798L29.715 15.0477ZM27.7452 11.8743C26.9477 11.0449 26.0254 10.4266 24.982 10.0354L24.2797 11.908C25.028 12.1886 25.7014 12.6342 26.3036 13.2605L27.7452 11.8743ZM24.982 10.0354C23.9592 9.65181 22.8444 9.46777 21.6494 9.46777V11.4678C22.638 11.4678 23.5108 11.6197 24.2797 11.908L24.982 10.0354ZM21.6494 9.46777C20.1463 9.46777 18.7714 9.75994 17.5489 10.3712L18.4433 12.1601C19.3484 11.7075 20.4091 11.4678 21.6494 11.4678V9.46777ZM17.5393 10.3761C16.3137 11.0054 15.3058 11.9997 14.5003 13.3008L16.2009 14.3535C16.8511 13.3031 17.6069 12.5896 18.4529 12.1552L17.5393 10.3761ZM14.5061 13.2916C13.6905 14.5777 13.0971 16.2454 12.6909 18.2474L14.6509 18.6451C15.0286 16.7839 15.5549 15.3722 16.1951 14.3627L14.5061 13.2916ZM12.6887 18.2585C12.3092 20.2436 12.125 22.6342 12.125 25.417H14.125C14.125 22.7128 14.3048 20.4562 14.6531 18.6341L12.6887 18.2585ZM12.125 25.417V39.2324H14.125V25.417H12.125ZM12.125 39.2324C12.125 41.4757 12.2385 43.4671 12.4697 45.2015L14.4522 44.9372C14.2355 43.3122 14.125 41.4123 14.125 39.2324H12.125ZM12.472 45.2177C12.7319 46.9506 13.1118 48.4698 13.6228 49.7622L15.4827 49.0269C15.0418 47.9117 14.6938 46.5474 14.4499 44.921L12.472 45.2177ZM13.6336 49.7885C14.1691 51.0381 14.8097 52.1021 15.569 52.9564L17.0638 51.6276C16.4794 50.9701 15.9441 50.1025 15.4719 49.0006L13.6336 49.7885ZM15.5956 52.9851C16.3931 53.8145 17.3154 54.4327 18.3588 54.824L19.0611 52.9514C18.3128 52.6708 17.6395 52.2252 17.0372 51.5989L15.5956 52.9851ZM18.3682 54.8275C19.413 55.2074 20.5379 55.3916 21.7334 55.3916V53.3916C20.7453 53.3916 19.8546 53.2398 19.0517 52.9479L18.3682 54.8275ZM21.7334 55.3916C23.2115 55.3916 24.5621 55.0982 25.7595 54.4833L24.8459 52.7042C23.9718 53.1531 22.9428 53.3916 21.7334 53.3916V55.3916ZM25.7685 54.4787C27.0126 53.8239 28.0331 52.8209 28.8405 51.5166L27.14 50.4639C26.4917 51.5111 25.7205 52.2439 24.837 52.7088L25.7685 54.4787ZM28.8371 51.522C29.6797 50.18 30.2738 48.4831 30.6526 46.4723L28.6872 46.102C28.3382 47.9544 27.8124 49.3929 27.1433 50.4585L28.8371 51.522ZM30.6526 46.4723C31.0317 44.4604 31.2158 42.0429 31.2158 39.2324H29.2158C29.2158 41.9649 29.036 44.2505 28.6872 46.102L30.6526 46.4723ZM62.9697 27.1807V26.1807H61.9697V27.1807H62.9697ZM74.5596 26.1309L75.0215 27.0178L75.0287 27.014L75.0359 27.0102L74.5596 26.1309ZM77.541 23.1074L76.6504 22.6526L76.6466 22.6602L77.541 23.1074ZM77.625 14.373L76.7225 14.8038L76.7285 14.8162L76.7347 14.8285L77.625 14.373ZM74.8955 11.5176L74.4015 12.387L74.409 12.3913L74.4167 12.3955L74.8955 11.5176ZM61.9619 17.6904V18.6904H62.9619V17.6904H61.9619ZM49.8262 17.6904H48.8262V18.6904H49.8262V17.6904ZM52.5137 8.91406L51.7061 8.32426L51.7018 8.33024L52.5137 8.91406ZM80.7744 2.99316L80.3775 3.91105L80.3845 3.91402L80.7744 2.99316ZM88.0391 8.83008L88.8683 8.27122L88.0391 8.83008ZM89.2988 24.0312L90.1933 24.4785L90.196 24.4729L89.2988 24.0312ZM85.4355 28.9023L86.0895 29.6589L86.0905 29.658L85.4355 28.9023ZM79.3887 32.3457L79.7215 33.2887L79.7313 33.2852L79.3887 32.3457ZM62.9697 33.6055H61.9697V34.6055H62.9697V33.6055ZM62.9697 36.377H61.9697V37.377H62.9697V36.377ZM62.9697 30.1201V29.1201H61.9697V30.1201H62.9697ZM86.4854 34.5293L85.8439 35.2965L85.8514 35.3027L86.4854 34.5293ZM90.3486 39.5264L89.4364 39.9362L89.4387 39.9412L90.3486 39.5264ZM90.0127 53.5098L90.9094 53.9524L90.9116 53.948L90.0127 53.5098ZM85.3936 59.1367L84.7811 58.3462L84.7757 58.3504L85.3936 59.1367ZM78.5068 62.6641L78.7923 63.6225L78.8016 63.6196L78.5068 62.6641ZM62.2979 62.79L62.0145 63.7491L62.0274 63.7528L62.2979 62.79ZM55.5791 59.5566L54.9882 60.3634L54.9946 60.3681L55.0011 60.3727L55.5791 59.5566ZM50.792 54.0977L49.909 54.5671L49.9126 54.5738L49.9163 54.5804L50.792 54.0977ZM49.0283 46.2451V45.2451H48.0283V46.2451H49.0283ZM61.1641 46.2451H62.1641V45.2451H61.1641V46.2451ZM65.5732 53.3418L65.1188 54.2326L65.126 54.2362L65.5732 53.3418ZM75.1895 53.3418L75.6439 54.2326L75.6508 54.229L75.1895 53.3418ZM78.3809 50.3184L77.5137 49.8202L77.5103 49.8263L78.3809 50.3184ZM78.2969 40.3662L77.4363 40.8756L77.441 40.8833L78.2969 40.3662ZM62.9697 28.1807H69.4365V26.1807H62.9697V28.1807ZM69.4365 28.1807C71.6128 28.1807 73.4925 27.8141 75.0215 27.0178L74.0976 25.2439C72.9392 25.8473 71.4035 26.1807 69.4365 26.1807V28.1807ZM75.0359 27.0102C76.5483 26.1909 77.694 25.0375 78.4354 23.5546L76.6466 22.6602C76.1003 23.7529 75.2584 24.6151 74.0833 25.2516L75.0359 27.0102ZM78.4316 23.5622C79.187 22.083 79.5488 20.3965 79.5488 18.5303H77.5488C77.5488 20.1354 77.2388 21.5004 76.6504 22.6526L78.4316 23.5622ZM79.5488 18.5303C79.5488 16.8295 79.214 15.2833 78.5153 13.9176L76.7347 14.8285C77.2678 15.8704 77.5488 17.0956 77.5488 18.5303H79.5488ZM78.5275 13.9423C77.8463 12.515 76.7853 11.4093 75.3744 10.6397L74.4167 12.3955C75.4692 12.9696 76.228 13.7675 76.7225 14.8038L78.5275 13.9423ZM75.3895 10.6481C73.9661 9.83936 72.2289 9.46777 70.2344 9.46777V11.4678C71.9911 11.4678 73.3614 11.7961 74.4015 12.387L75.3895 10.6481ZM70.2344 9.46777C68.6145 9.46777 67.0972 9.78964 65.6963 10.4434L66.542 12.2558C67.6606 11.7338 68.8867 11.4678 70.2344 11.4678V9.46777ZM65.6963 10.4434C64.2902 11.0996 63.1432 12.0338 62.2805 13.2479L63.9109 14.4064C64.5599 13.4929 65.4285 12.7754 66.542 12.2558L65.6963 10.4434ZM62.2805 13.2479C61.3862 14.5067 60.9619 16.0051 60.9619 17.6904H62.9619C62.9619 16.3523 63.2935 15.2752 63.9109 14.4064L62.2805 13.2479ZM61.9619 16.6904H49.8262V18.6904H61.9619V16.6904ZM50.8262 17.6904C50.8262 14.5197 51.6678 11.8031 53.3256 9.49789L51.7018 8.33024C49.7762 11.0081 48.8262 14.1424 48.8262 17.6904H50.8262ZM53.3212 9.50385C55.0313 7.16231 57.3271 5.32102 60.2373 3.98608L59.4034 2.16821C56.2107 3.63276 53.6353 5.68274 51.7061 8.32427L53.3212 9.50385ZM60.2373 3.98608C63.1462 2.65171 66.3616 1.97754 69.8984 1.97754V-0.0224609C66.1007 -0.0224609 62.5973 0.703106 59.4034 2.16821L60.2373 3.98608ZM69.8984 1.97754C73.9349 1.97754 77.4201 2.63215 80.3775 3.91102L81.1713 2.07531C77.9139 0.666681 74.1484 -0.0224609 69.8984 -0.0224609V1.97754ZM80.3845 3.91402C83.3296 5.16104 85.5918 6.988 87.2098 9.38893L88.8683 8.27122C87.015 5.52111 84.4341 3.4568 81.1643 2.07231L80.3845 3.91402ZM87.2098 9.38893C88.8113 11.7653 89.6426 14.7507 89.6426 18.4043H91.6426C91.6426 14.4433 90.7382 11.0459 88.8683 8.27122L87.2098 9.38893ZM89.6426 18.4043C89.6426 20.1751 89.2333 21.9003 88.4017 23.5896L90.196 24.4729C91.156 22.5229 91.6426 20.4968 91.6426 18.4043H89.6426ZM88.4044 23.584C87.5735 25.2459 86.3719 26.7676 84.7806 28.1467L86.0905 29.658C87.8586 28.1257 89.2325 26.3999 90.1933 24.4785L88.4044 23.584ZM84.7816 28.1458C83.2352 29.4826 81.3296 30.5734 79.046 31.4062L79.7313 33.2852C82.2069 32.3823 84.3326 31.1776 86.0895 29.6589L84.7816 28.1458ZM79.0559 31.4027C76.8002 32.1988 74.2417 32.6055 71.3682 32.6055V34.6055C74.4295 34.6055 77.2181 34.1723 79.7215 33.2887L79.0559 31.4027ZM71.3682 32.6055H62.9697V34.6055H71.3682V32.6055ZM63.9697 33.6055V27.1807H61.9697V33.6055H63.9697ZM63.9697 36.377V30.1201H61.9697V36.377H63.9697ZM62.9697 31.1201H71.3682V29.1201H62.9697V31.1201ZM71.3682 31.1201C74.6268 31.1201 77.4518 31.4901 79.8572 32.2117L80.4319 30.2961C77.7982 29.506 74.7723 29.1201 71.3682 29.1201V31.1201ZM79.8572 32.2117C82.2702 32.9356 84.2573 33.9699 85.8439 35.2965L87.1268 33.7621C85.2981 32.2332 83.0579 31.0839 80.4319 30.2961L79.8572 32.2117ZM85.8514 35.3027C87.4447 36.6087 88.6347 38.1517 89.4365 39.9362L91.2608 39.1166C90.3269 37.0378 88.9413 35.2494 87.1193 33.7559L85.8514 35.3027ZM89.4387 39.9412C90.2409 41.7008 90.6504 43.6708 90.6504 45.8672H92.6504C92.6504 43.4164 92.192 41.1592 91.2585 39.1116L89.4387 39.9412ZM90.6504 45.8672C90.6504 48.593 90.13 50.9871 89.1138 53.0716L90.9116 53.948C92.079 51.5532 92.6504 48.8523 92.6504 45.8672H90.6504ZM89.116 53.0671C88.0927 55.14 86.6513 56.8975 84.7812 58.3462L86.006 59.9273C88.1111 58.2965 89.7491 56.3027 90.9094 53.9524L89.116 53.0671ZM84.7757 58.3504C82.9221 59.8068 80.7387 60.929 78.212 61.7085L78.8016 63.6196C81.538 62.7754 83.9457 61.546 86.0114 59.923L84.7757 58.3504ZM78.2214 61.7057C75.6938 62.4586 72.9217 62.8398 69.8984 62.8398V64.8398C73.09 64.8398 76.0569 64.4373 78.7923 63.6225L78.2214 61.7057ZM69.8984 62.8398C67.4148 62.8398 64.9722 62.5026 62.5683 61.8273L62.0274 63.7528C64.6065 64.4772 67.231 64.8398 69.8984 64.8398V62.8398ZM62.5812 61.831C60.2188 61.133 58.0795 60.1023 56.1571 58.7406L55.0011 60.3727C57.11 61.8665 59.4498 62.9913 62.0145 63.7491L62.5812 61.831ZM56.17 58.7499C54.3012 57.3812 52.8021 55.6726 51.6677 53.6149L49.9163 54.5804C51.1894 56.8899 52.8817 58.8206 54.9882 60.3634L56.17 58.7499ZM51.675 53.6282C50.5904 51.5882 50.0283 49.1385 50.0283 46.2451H48.0283C48.0283 49.3986 48.642 52.1839 49.909 54.5671L51.675 53.6282ZM49.0283 47.2451H61.1641V45.2451H49.0283V47.2451ZM60.1641 46.2451C60.1641 47.9884 60.6026 49.5771 61.4962 50.9812L63.1835 49.9075C62.5093 48.8481 62.1641 47.6373 62.1641 46.2451H60.1641ZM61.4962 50.9812C62.3812 52.3719 63.5971 53.4562 65.1188 54.2326L66.0277 52.451C64.8059 51.8277 63.8662 50.9803 63.1835 49.9075L61.4962 50.9812ZM65.126 54.2362C66.677 55.0117 68.3859 55.3916 70.2344 55.3916V53.3916C68.6675 53.3916 67.269 53.0716 66.0205 52.4474L65.126 54.2362ZM70.2344 55.3916C72.2847 55.3916 74.1002 55.0202 75.6439 54.2326L74.735 52.451C73.5352 53.0632 72.0473 53.3916 70.2344 53.3916V55.3916ZM75.6508 54.229C77.2104 53.4181 78.4219 52.2781 79.2514 50.8104L77.5103 49.8263C76.8841 50.9341 75.968 51.8098 74.7281 52.4546L75.6508 54.229ZM79.248 50.8165C80.1028 49.3285 80.5146 47.6262 80.5146 45.7412H78.5146C78.5146 47.3276 78.1706 48.6768 77.5138 49.8202L79.248 50.8165ZM80.5146 45.7412C80.5146 43.393 80.0908 41.4017 79.1528 39.8491L77.441 40.8833C78.1266 42.0182 78.5146 43.6103 78.5146 45.7412H80.5146ZM79.1575 39.8569C78.2336 38.2958 76.9046 37.1474 75.2034 36.4227L74.4197 38.2628C75.7419 38.826 76.7365 39.6931 77.4363 40.8755L79.1575 39.8569ZM75.2034 36.4227C73.54 35.7143 71.6089 35.377 69.4365 35.377V37.377C71.4073 37.377 73.0596 37.6835 74.4197 38.2628L75.2034 36.4227ZM69.4365 35.377H62.9697V37.377H69.4365V35.377Z" fill="#D9D9D9"/>
</svg>
