<svg width="75" height="75" viewBox="0 0 75 75" fill="none" xmlns="http://www.w3.org/2000/svg">
<g clip-path="url(#clip0_152_1216)">
<path d="M8.55308 59.93C8.20723 60.2575 7.65278 60.2107 7.3689 59.8282C2.73896 53.5904 0 45.865 0 37.5C0 16.8006 16.771 0.0183252 37.4662 1.46694e-05C58.1317 -0.0181494 75 16.8344 75 37.5C75 47.9033 70.7635 57.3173 63.9218 64.1107C57.0593 55.3146 46.3592 49.6582 34.3383 49.6582C24.35 49.6582 15.2738 53.5633 8.55308 59.93Z" fill="#B2C3FF"/>
<path d="M65.9179 6.5918V54.2301C63.0312 57.5796 59.5625 60.4134 55.6687 62.574H19.3312C18.1906 61.9412 17.0867 61.2505 16.0231 60.5062C16.0206 60.4635 16.0193 60.4203 16.0193 60.3768V6.5918C16.0193 5.37832 17.0031 4.39453 18.2166 4.39453H63.7206C64.9341 4.39453 65.9179 5.37832 65.9179 6.5918Z" fill="#18295B"/>
<path d="M20.8739 60.5061C21.9375 61.2505 23.0416 61.9411 24.182 62.5739H19.3312C18.1906 61.9411 17.0867 61.2504 16.0231 60.5061C16.0206 60.4633 16.0193 60.4201 16.0193 60.3766V6.5918C16.0193 5.37832 17.0031 4.39453 18.2166 4.39453H23.0674C21.8539 4.39453 20.8701 5.37832 20.8701 6.5918V60.3766C20.8701 60.4201 20.8714 60.4632 20.8739 60.5061Z" fill="#18295B"/>
<path d="M57.2228 13.916V69.4006C51.4931 72.9505 44.7359 75 37.5 75C25.1273 75 14.1543 69.0081 7.32422 59.7677V13.916C7.32422 12.7025 8.30801 11.7188 9.52148 11.7188H55.0255C56.239 11.7188 57.2228 12.7025 57.2228 13.916Z" fill="#E9F3FE"/>
<path d="M13.916 11.7188C12.7025 11.7188 11.7188 12.7025 11.7188 13.916V64.7319C10.113 63.2111 8.64155 61.5498 7.32422 59.7677V13.916C7.32422 12.7025 8.30801 11.7188 9.52148 11.7188H13.916Z" fill="#C8E2FD"/>
<path d="M28.0762 20.1416C28.0762 20.7483 27.5843 21.2402 26.9776 21.2402H15.7471C15.1403 21.2402 14.6484 20.7483 14.6484 20.1416C14.6484 19.5349 15.1403 19.043 15.7471 19.043H26.9776C27.5843 19.043 28.0762 19.5349 28.0762 20.1416Z" fill="#1380E2"/>
<path d="M24.9023 61.1572C24.9023 61.764 24.4104 62.2559 23.8037 62.2559H15.7471C15.1403 62.2559 14.6484 61.764 14.6484 61.1572C14.6484 60.5505 15.1403 60.0586 15.7471 60.0586H23.8037C24.4104 60.0586 24.9023 60.5505 24.9023 61.1572Z" fill="#76B6FA"/>
<path d="M14.6484 24.5361C14.6484 23.9294 15.1403 23.4375 15.7471 23.4375H19.4092C20.0159 23.4375 20.5078 23.9294 20.5078 24.5361C20.5078 25.1429 20.0159 25.6348 19.4092 25.6348H15.7471C15.1403 25.6348 14.6484 25.1429 14.6484 24.5361ZM19.4092 55.6641H15.7471C15.1403 55.6641 14.6484 56.156 14.6484 56.7627C14.6484 57.3694 15.1403 57.8613 15.7471 57.8613H19.4092C20.0159 57.8613 20.5078 57.3694 20.5078 56.7627C20.5078 56.156 20.0159 55.6641 19.4092 55.6641Z" fill="#55A4F9"/>
<path d="M14.6484 31.1279C14.6484 30.5212 15.1403 30.0293 15.7471 30.0293H26.9776C27.5843 30.0293 28.0762 30.5212 28.0762 31.1279C28.0762 31.7347 27.5843 32.2266 26.9776 32.2266H15.7471C15.1403 32.2266 14.6484 31.7347 14.6484 31.1279ZM26.9776 47.6074H15.7471C15.1403 47.6074 14.6484 48.0993 14.6484 48.7061C14.6484 49.3128 15.1403 49.8047 15.7471 49.8047H26.9776C27.5843 49.8047 28.0762 49.3128 28.0762 48.7061C28.0762 48.0993 27.5843 47.6074 26.9776 47.6074ZM47.9736 21.2402H51.6357C52.2425 21.2402 52.7344 20.7483 52.7344 20.1416C52.7344 19.5349 52.2425 19.043 51.6357 19.043H47.9736C47.3669 19.043 46.875 19.5349 46.875 20.1416C46.875 20.7483 47.3669 21.2402 47.9736 21.2402ZM51.6357 30.3955H45.0439C44.4372 30.3955 43.9453 30.8874 43.9453 31.4941C43.9453 32.1009 44.4372 32.5928 45.0439 32.5928H51.6357C52.2425 32.5928 52.7344 32.1009 52.7344 31.4941C52.7344 30.8874 52.2425 30.3955 51.6357 30.3955ZM51.6357 34.79H47.9736C47.3669 34.79 46.875 35.2819 46.875 35.8887C46.875 36.4954 47.3669 36.9873 47.9736 36.9873H51.6357C52.2425 36.9873 52.7344 36.4954 52.7344 35.8887C52.7344 35.2819 52.2425 34.79 51.6357 34.79ZM35.5225 42.8467H15.7471C15.1403 42.8467 14.6484 43.3386 14.6484 43.9453C14.6484 44.5521 15.1403 45.0439 15.7471 45.0439H35.5225C36.1292 45.0439 36.6211 44.5521 36.6211 43.9453C36.6211 43.3386 36.1292 42.8467 35.5225 42.8467ZM35.5225 34.79H15.7471C15.1403 34.79 14.6484 35.2819 14.6484 35.8887C14.6484 36.4954 15.1403 36.9873 15.7471 36.9873H35.5225C36.1292 36.9873 36.6211 36.4954 36.6211 35.8887C36.6211 35.2819 36.1292 34.79 35.5225 34.79Z" fill="#A7D0FC"/>
<path d="M73.2421 36.6932C73.1743 37.0989 73.0683 37.4916 72.9281 37.8678C72.4543 37.7325 71.9317 37.9298 71.6742 38.3757C71.4169 38.8211 71.5069 39.3719 71.8602 39.7144C71.6014 40.0273 71.3134 40.3153 71.0005 40.5741C70.6579 40.2209 70.1072 40.1309 69.6618 40.3881C69.2159 40.6456 69.0186 41.1683 69.1539 41.6418C68.7777 41.782 68.385 41.8881 67.9792 41.9559C67.8594 41.4784 67.4273 41.1246 66.9127 41.1246C66.3979 41.1246 65.9658 41.4782 65.8461 41.9559C65.4404 41.8881 65.0477 41.782 64.6715 41.6418C64.8068 41.1681 64.6095 40.6455 64.1636 40.3881C63.7182 40.1309 63.1674 40.2208 62.8249 40.5741C62.512 40.3153 62.224 40.0273 61.9652 39.7144C62.3184 39.3718 62.4084 38.8211 62.1512 38.3757C61.8937 37.9296 61.371 37.7323 60.8973 37.8678C60.7571 37.4916 60.6511 37.0989 60.5833 36.6932C61.0608 36.5733 61.4145 36.1412 61.4145 35.6266C61.4145 35.1119 61.0609 34.6797 60.5833 34.5601C60.6511 34.1543 60.7571 33.7616 60.8973 33.3854C61.371 33.5208 61.8937 33.3234 62.1512 32.8775C62.4084 32.4319 62.3184 31.8813 61.9652 31.5388C62.224 31.2259 62.512 30.9379 62.8249 30.6791C63.1675 31.0323 63.7182 31.1224 64.1636 30.8651C64.6097 30.6076 64.807 30.085 64.6715 29.6112C65.0477 29.471 65.4404 29.365 65.8461 29.2972C65.966 29.7747 66.3981 30.1285 66.9127 30.1285C67.4274 30.1285 67.8596 29.7747 67.9792 29.2972C68.385 29.365 68.7777 29.471 69.1539 29.6112C69.0186 30.0848 69.2159 30.6076 69.6618 30.8651C70.1074 31.1224 70.658 31.0323 71.0006 30.6791C71.3135 30.9379 71.6015 31.2259 71.8603 31.5388C71.5072 31.8814 71.4171 32.4321 71.6743 32.8777C71.9318 33.3236 72.4545 33.521 72.9282 33.3855C73.0684 33.7617 73.1745 34.1544 73.2423 34.5602C72.7647 34.68 72.411 35.1122 72.411 35.6268C72.4108 36.1412 72.7646 36.5733 73.2421 36.6932Z" fill="#345FF2"/>
<path d="M69.9672 35.6265C69.9672 37.3135 68.5996 38.6811 66.9125 38.6811C65.2255 38.6811 63.8579 37.3135 63.8579 35.6265C63.8579 33.9394 65.2255 32.5718 66.9125 32.5718C68.5996 32.5718 69.9672 33.9395 69.9672 35.6265Z" fill="#4770FF"/>
<path d="M67.9333 59.6515C67.7662 60.859 67.4514 62.0194 67.0077 63.1137L67.3156 63.2915C68.2824 63.8498 68.6137 65.0861 68.0555 66.0529C67.4972 67.0197 66.2609 67.351 65.2941 66.7928L64.9834 66.6133C64.2457 67.5577 63.3945 68.4089 62.4501 69.1466L62.6295 69.4573C63.1878 70.4241 62.8564 71.6605 61.8896 72.2187C60.9229 72.777 59.6865 72.4456 59.1283 71.4788L58.9504 71.1709C57.8561 71.6146 56.6957 71.9294 55.4883 72.0965V72.4543C55.4883 73.5706 54.5833 74.4757 53.4668 74.4757C52.3503 74.4757 51.4453 73.5706 51.4453 72.4543V72.0965C50.2378 71.9294 49.0775 71.6146 47.9832 71.1709L47.8053 71.4788C47.2471 72.4456 46.0107 72.777 45.0439 72.2187C44.0771 71.6605 43.7458 70.4241 44.3041 69.4573L44.4835 69.1466C43.5391 68.4089 42.6879 67.5577 41.9502 66.6133L41.6395 66.7928C40.6727 67.351 39.4364 67.0197 38.8781 66.0529C38.3199 65.0859 38.6512 63.8496 39.618 63.2915L39.9259 63.1137C39.4824 62.0193 39.1674 60.859 39.0003 59.6515H38.6426C37.5261 59.6515 36.6211 58.7465 36.6211 57.63C36.6211 56.5135 37.5261 55.6085 38.6426 55.6085H39.0003C39.1674 54.4011 39.4822 53.2406 39.9259 52.1464L39.618 51.9686C38.6512 51.4103 38.3199 50.174 38.8781 49.2072C39.4364 48.2402 40.6727 47.909 41.6395 48.4673L41.9502 48.6467C42.6879 47.7023 43.5391 46.8511 44.4835 46.1134L44.3041 45.8027C43.7458 44.8359 44.0771 43.5996 45.0439 43.0414C46.0107 42.4831 47.2471 42.8145 47.8053 43.7813L47.9832 44.0892C49.0775 43.6455 50.2378 43.3308 51.4453 43.1635V42.8058C51.4453 41.6893 52.3503 40.7843 53.4668 40.7843C54.5833 40.7843 55.4883 41.6893 55.4883 42.8058V43.1635C56.6957 43.3307 57.8561 43.6455 58.9504 44.0892L59.1283 43.7813C59.6865 42.8145 60.9229 42.4831 61.8896 43.0414C62.8564 43.5996 63.1878 44.8359 62.6295 45.8027L62.4501 46.1134C63.3945 46.8511 64.2457 47.7023 64.9834 48.6467L65.2941 48.4673C66.2609 47.909 67.4972 48.2404 68.0555 49.2072C68.6137 50.174 68.2824 51.4103 67.3156 51.9686L67.0077 52.1464C67.4512 53.2408 67.7662 54.4011 67.9333 55.6085H68.291C69.4075 55.6085 70.3125 56.5135 70.3125 57.63C70.3125 58.7465 69.4075 59.6515 68.291 59.6515H67.9333Z" fill="#4770FF"/>
<path d="M62.2127 57.63C62.2127 62.4604 58.297 66.376 53.4667 66.376C48.6364 66.376 44.7207 62.4604 44.7207 57.63C44.7207 52.7997 48.6364 48.884 53.4667 48.884C58.297 48.884 62.2127 52.7997 62.2127 57.63Z" fill="#E9F3FE"/>
<path d="M53.4667 47.7854C48.0383 47.7854 43.6221 52.2016 43.6221 57.63C43.6221 63.0584 48.0383 67.4747 53.4667 67.4747C58.8951 67.4747 63.3113 63.0584 63.3113 57.63C63.3113 52.2016 58.8951 47.7854 53.4667 47.7854ZM53.4667 65.2774C49.2499 65.2774 45.8193 61.8467 45.8193 57.63C45.8193 53.4133 49.2499 49.9827 53.4667 49.9827C57.6835 49.9827 61.1141 53.4133 61.1141 57.63C61.1141 61.8467 57.6835 65.2774 53.4667 65.2774Z" fill="#7291FF"/>
<path d="M63.0815 52.9871L54.2924 61.7761C54.078 61.9906 53.7967 62.0978 53.5156 62.0978C53.2345 62.0978 52.9533 61.9906 52.7388 61.7761L48.8325 57.8698C48.4035 57.4406 48.4035 56.7451 48.8325 56.3161C49.2616 55.8872 49.9572 55.8872 50.3861 56.3161L53.5156 59.4456L61.5279 51.4333C61.9569 51.0044 62.6526 51.0044 63.0815 51.4333C63.5106 51.8624 63.5106 52.5579 63.0815 52.9871Z" fill="#18295B"/>
</g>
<defs>
<clipPath id="clip0_152_1216">
<rect width="75" height="75" fill="white"/>
</clipPath>
</defs>
</svg>
