<svg width="93" height="63" viewBox="0 0 93 63" fill="none" xmlns="http://www.w3.org/2000/svg">
<path d="M40.8818 48.5205L41.8406 48.8049L41.8412 48.8027L40.8818 48.5205ZM36.6406 56.667L35.8856 56.0113L35.8849 56.0121L36.6406 56.667ZM14.8467 61.916L14.557 62.8732L14.5686 62.8766L14.8467 61.916ZM9.09375 58.9346L8.46903 59.7155L8.47536 59.7204L9.09375 58.9346ZM4.72656 53.8535L3.86194 54.3559L3.86597 54.3629L3.87011 54.3697L4.72656 53.8535ZM1.95508 46.4629L0.979571 46.6829L1.95508 46.4629ZM2.45898 14.2549L1.50249 13.9631L1.50093 13.9683L2.45898 14.2549ZM6.7002 6.15039L5.94946 5.48974L5.94451 5.49546L6.7002 6.15039ZM13.251 1.53125L13.6134 2.4633L13.6224 2.45973L13.251 1.53125ZM28.4941 0.985352L28.201 1.94141L28.2085 1.94372L28.2161 1.94592L28.4941 0.985352ZM38.6143 8.96387L37.7496 9.46629L37.7526 9.4714L38.6143 8.96387ZM41.3857 16.3125L40.4102 16.5325L40.4107 16.5345L41.3857 16.3125ZM29.8379 18.6221L28.847 18.7564L28.8481 18.7647L28.8493 18.7729L29.8379 18.6221ZM28.7881 14.4229L27.8611 14.7981L27.8643 14.8059L28.7881 14.4229ZM17.9961 10.2656L17.5489 9.37115L17.5393 9.37606L17.9961 10.2656ZM15.3506 12.8271L16.1951 13.3627L16.2009 13.3535L15.3506 12.8271ZM13.6709 17.4463L12.6908 17.2474L12.6887 17.2585L13.6709 17.4463ZM13.4609 44.0693L12.4697 44.2015L12.4708 44.2096L12.472 44.2177L13.4609 44.0693ZM14.5527 48.3945L13.6228 48.7622L13.628 48.7754L13.6336 48.7885L14.5527 48.3945ZM16.3164 51.292L15.569 51.9564L15.582 51.971L15.5956 51.9851L16.3164 51.292ZM18.71 52.8877L18.3588 53.8241L18.3682 53.8275L18.71 52.8877ZM25.3027 52.5938L25.7596 53.4834L25.7685 53.4787L25.3027 52.5938ZM27.9902 49.9902L27.1433 49.4585L27.14 49.4639L27.9902 49.9902ZM41.3516 26.0547V36.6367H43.3516V26.0547H41.3516ZM41.3516 36.6367C41.3516 41.1611 40.8683 45.0226 39.9225 48.2383L41.8412 48.8027C42.855 45.3556 43.3516 41.2946 43.3516 36.6367H41.3516ZM39.9231 48.2361C38.9751 51.4325 37.6212 54.0128 35.8856 56.0113L37.3957 57.3227C39.3554 55.066 40.829 52.2153 41.8406 48.8049L39.9231 48.2361ZM35.8849 56.0121C34.1671 57.9941 32.1283 59.4525 29.7604 60.3996L30.5032 62.2566C33.1745 61.1881 35.4748 59.5391 37.3963 57.3219L35.8849 56.0121ZM29.7604 60.3996C27.3739 61.3543 24.7026 61.8398 21.7334 61.8398V63.8398C24.923 63.8398 27.8507 63.3176 30.5032 62.2566L29.7604 60.3996ZM21.7334 61.8398C19.3535 61.8398 17.1525 61.5424 15.1247 60.9555L14.5686 62.8766C16.7961 63.5214 19.1862 63.8398 21.7334 63.8398V61.8398ZM15.1363 60.9589C13.1252 60.3503 11.3196 59.4136 9.71214 58.1487L8.47536 59.7204C10.2833 61.1431 12.3129 62.194 14.557 62.8731L15.1363 60.9589ZM9.71845 58.1537C8.14058 56.8914 6.76042 55.2907 5.58302 53.3373L3.87011 54.3697C5.15625 56.5036 6.68754 58.2902 8.46905 59.7154L9.71845 58.1537ZM5.59119 53.3511C4.44839 51.3844 3.55686 49.0203 2.93059 46.2429L0.979571 46.6829C1.64106 49.6164 2.59719 52.1794 3.86194 54.3559L5.59119 53.3511ZM2.93059 46.2429C2.30657 43.4756 1.98926 40.2764 1.98926 36.6367H-0.0107422C-0.0107422 40.3877 0.315822 43.7393 0.979571 46.6829L2.93059 46.2429ZM1.98926 36.6367V26.0547H-0.0107422V36.6367H1.98926ZM1.98926 26.0547C1.98926 21.5296 2.4727 17.6983 3.41704 14.5415L1.50093 13.9683C0.485631 17.3623 -0.0107422 21.3975 -0.0107422 26.0547H1.98926ZM3.41546 14.5467C4.3921 11.3455 5.7472 8.77688 7.45588 6.80532L5.94451 5.49546C4.01387 7.72312 2.54149 10.5575 1.50251 13.9631L3.41546 14.5467ZM7.45091 6.81102C9.19653 4.82735 11.2484 3.38297 13.6134 2.46325L12.8885 0.599245C10.2145 1.63916 7.89917 3.27421 5.94948 5.48976L7.45091 6.81102ZM13.6224 2.45973C16.0089 1.5051 18.6802 1.01953 21.6494 1.01953V-0.980469C18.4598 -0.980469 15.5321 -0.458226 12.8796 0.602773L13.6224 2.45973ZM21.6494 1.01953C24.0255 1.01953 26.2071 1.32996 28.201 1.94141L28.7873 0.0292974C26.5819 -0.64702 24.2004 -0.980469 21.6494 -0.980469V1.01953ZM28.2161 1.94592C30.2267 2.52794 32.031 3.43777 33.6367 4.67495L34.8574 3.09067C33.0478 1.69635 31.0168 0.674531 28.7722 0.0247873L28.2161 1.94592ZM33.6367 4.67495C35.2308 5.90317 36.6038 7.49432 37.7496 9.46628L39.4789 8.46145C38.2172 6.29018 36.6787 4.49396 34.8574 3.09067L33.6367 4.67495ZM37.7526 9.4714C38.8931 11.4076 39.784 13.7555 40.4102 16.5325L42.3612 16.0925C41.6997 13.1586 40.743 10.6074 39.4759 8.45633L37.7526 9.4714ZM40.4107 16.5345C41.0343 19.273 41.3516 22.4434 41.3516 26.0547H43.3516C43.3516 22.3313 43.0249 19.007 42.3608 16.0905L40.4107 16.5345ZM31.2158 38.2324V24.417H29.2158V38.2324H31.2158ZM31.2158 24.417C31.2158 22.17 31.088 20.1859 30.8265 18.4713L28.8493 18.7729C29.0917 20.3617 29.2158 22.2408 29.2158 24.417H31.2158ZM30.8288 18.4877C30.597 16.7776 30.2298 15.2891 29.7118 14.0398L27.8643 14.8059C28.2982 15.8522 28.6309 17.1631 28.847 18.7564L30.8288 18.4877ZM29.715 14.0477C29.2031 12.7829 28.5529 11.7142 27.7452 10.8743L26.3036 12.2605C26.8957 12.8763 27.4213 13.7113 27.8611 14.798L29.715 14.0477ZM27.7452 10.8743C26.9477 10.0449 26.0254 9.42663 24.982 9.03535L24.2797 10.908C25.028 11.1886 25.7014 11.6342 26.3036 12.2605L27.7452 10.8743ZM24.982 9.03535C23.9592 8.65181 22.8444 8.46777 21.6494 8.46777V10.4678C22.638 10.4678 23.5108 10.6197 24.2797 10.908L24.982 9.03535ZM21.6494 8.46777C20.1463 8.46777 18.7714 8.75994 17.5489 9.3712L18.4433 11.1601C19.3484 10.7075 20.4091 10.4678 21.6494 10.4678V8.46777ZM17.5393 9.37606C16.3137 10.0054 15.3058 10.9997 14.5003 12.3008L16.2009 13.3535C16.8511 12.3031 17.6069 11.5896 18.4529 11.1552L17.5393 9.37606ZM14.5061 12.2916C13.6905 13.5777 13.0971 15.2454 12.6909 17.2474L14.6509 17.6451C15.0286 15.7839 15.5549 14.3722 16.1951 13.3627L14.5061 12.2916ZM12.6887 17.2585C12.3092 19.2436 12.125 21.6342 12.125 24.417H14.125C14.125 21.7128 14.3048 19.4562 14.6531 17.6341L12.6887 17.2585ZM12.125 24.417V38.2324H14.125V24.417H12.125ZM12.125 38.2324C12.125 40.4757 12.2385 42.4671 12.4697 44.2015L14.4522 43.9372C14.2355 42.3122 14.125 40.4123 14.125 38.2324H12.125ZM12.472 44.2177C12.7319 45.9506 13.1118 47.4698 13.6228 48.7622L15.4827 48.0269C15.0418 46.9117 14.6938 45.5474 14.4499 43.921L12.472 44.2177ZM13.6336 48.7885C14.1691 50.0381 14.8097 51.1021 15.569 51.9564L17.0638 50.6276C16.4794 49.9701 15.9441 49.1025 15.4719 48.0006L13.6336 48.7885ZM15.5956 51.9851C16.3931 52.8145 17.3154 53.4327 18.3588 53.824L19.0611 51.9514C18.3128 51.6708 17.6395 51.2252 17.0372 50.5989L15.5956 51.9851ZM18.3682 53.8275C19.413 54.2074 20.5379 54.3916 21.7334 54.3916V52.3916C20.7453 52.3916 19.8546 52.2398 19.0517 51.9479L18.3682 53.8275ZM21.7334 54.3916C23.2115 54.3916 24.5621 54.0982 25.7595 53.4833L24.8459 51.7042C23.9718 52.1531 22.9428 52.3916 21.7334 52.3916V54.3916ZM25.7685 53.4787C27.0126 52.8239 28.0331 51.8209 28.8405 50.5166L27.14 49.4639C26.4917 50.5111 25.7205 51.2438 24.837 51.7088L25.7685 53.4787ZM28.8371 50.522C29.6797 49.18 30.2738 47.4831 30.6526 45.4723L28.6872 45.102C28.3382 46.9544 27.8124 48.3929 27.1433 49.4585L28.8371 50.522ZM30.6526 45.4723C31.0317 43.4604 31.2158 41.0429 31.2158 38.2324H29.2158C29.2158 40.9649 29.036 43.2505 28.6872 45.102L30.6526 45.4723ZM83.5459 0.229492H84.5459V-0.770508H83.5459V0.229492ZM83.5459 9.8877V10.8877H84.5459V9.8877H83.5459ZM67.9668 15.3887L67.2541 14.6872L67.254 14.6873L67.9668 15.3887ZM64.0195 21.6875L63.0832 21.3364L63.0797 21.3458L64.0195 21.6875ZM63.3057 45.917L62.3355 46.1595L62.3379 46.1692L62.3405 46.1787L63.3057 45.917ZM65.1953 50.0742L64.3857 50.6612L64.394 50.6727L64.4027 50.6839L65.1953 50.0742ZM68.1348 52.5518L67.6876 53.4462L67.6966 53.4507L67.7057 53.455L68.1348 52.5518ZM75.4834 52.5098L75.0271 51.6199L75.0177 51.6248L75.4834 52.5098ZM78.2549 50.1582L77.4575 49.5548L77.4549 49.5582L78.2549 50.1582ZM80.0186 46.5469L79.0606 46.2595L79.057 46.2722L80.0186 46.5469ZM80.0186 37.3926L79.0556 37.6622L79.0581 37.6711L79.0607 37.6799L80.0186 37.3926ZM78.2549 33.7812L77.4574 34.3847L77.4655 34.3952L78.2549 33.7812ZM66.5811 31.8916L67.1005 32.7461L67.1052 32.7433L66.5811 31.8916ZM61.9199 39.5762L61.3787 40.417L62.8543 41.3669L62.9192 39.6132L61.9199 39.5762ZM58.2666 37.2246L57.2674 37.1857L57.2451 37.7564L57.7254 38.0655L58.2666 37.2246ZM59.6104 31.0938L58.6932 30.695L58.6885 30.7063L59.6104 31.0938ZM63.0537 25.9707L62.34 25.2702L62.3399 25.2704L63.0537 25.9707ZM68.3867 22.4434L68.7624 23.3702L68.7731 23.3657L68.3867 22.4434ZM82.916 22.7793L82.4642 23.6714L82.4688 23.6737L82.916 22.7793ZM88.375 27.2725L87.5806 27.8799L88.375 27.2725ZM91.2725 50.1162L90.3391 49.7572L90.3357 49.7662L91.2725 50.1162ZM87.1152 56.793L86.3923 56.102L86.387 56.1076L87.1152 56.793ZM63.3057 61.0762L62.8896 61.9856L62.9013 61.9908L63.3057 61.0762ZM52.0938 48.3525L51.1468 48.6741L51.1496 48.6821L52.0938 48.3525ZM52.7236 20.3857L51.7809 20.0522L51.7796 20.056L52.7236 20.3857ZM58.9805 9.71973L59.7214 10.3914L59.7244 10.3879L58.9805 9.71973ZM68.8066 2.70703L68.4111 1.78858L68.8066 2.70703ZM81.7822 1.22949H83.5459V-0.770508H81.7822V1.22949ZM82.5459 0.229492V9.8877H84.5459V0.229492H82.5459ZM83.5459 8.8877H82.832V10.8877H83.5459V8.8877ZM82.832 8.8877C79.542 8.8877 76.5762 9.37829 73.9507 10.3813L74.6645 12.2496C77.0221 11.3489 79.7392 10.8877 82.832 10.8877V8.8877ZM73.9507 10.3813C71.3359 11.3802 69.098 12.8136 67.2541 14.6872L68.6795 16.0901C70.307 14.4364 72.2963 13.1543 74.6645 12.2496L73.9507 10.3813ZM67.254 14.6873C65.4404 16.5307 64.0522 18.7524 63.0832 21.3364L64.9559 22.0386C65.8345 19.6955 67.0778 17.718 68.6796 16.09L67.254 14.6873ZM63.0797 21.3458C62.1381 23.9352 61.6758 26.8107 61.6758 29.96H63.6758C63.6758 27.0063 64.1093 24.3669 64.9593 22.0292L63.0797 21.3458ZM61.6758 29.96V40.1221H63.6758V29.96H61.6758ZM61.6758 40.1221C61.6758 42.3672 61.8914 44.3831 62.3355 46.1595L64.2758 45.6745C63.8801 44.0916 63.6758 42.2441 63.6758 40.1221H61.6758ZM62.3405 46.1787C62.8129 47.9206 63.4881 49.4231 64.3857 50.6612L66.0049 49.4873C65.2788 48.4858 64.6943 47.2168 64.2708 45.6553L62.3405 46.1787ZM64.4027 50.6839C65.3253 51.8833 66.4195 52.8122 67.6876 53.4462L68.582 51.6573C67.6104 51.1716 66.745 50.4487 65.9879 49.4645L64.4027 50.6839ZM67.7057 53.455C68.9759 54.0584 70.3851 54.3496 71.9141 54.3496V52.3496C70.6435 52.3496 69.5332 52.1089 68.5638 51.6485L67.7057 53.455ZM71.9141 54.3496C73.3764 54.3496 74.7285 54.0371 75.9491 53.3947L75.0177 51.6248C74.1107 52.1022 73.0832 52.3496 71.9141 52.3496V54.3496ZM75.9397 53.3996C77.1703 52.7685 78.2105 51.8841 79.0549 50.7582L77.4549 49.5582C76.7876 50.4479 75.9801 51.1312 75.0271 51.6199L75.9397 53.3996ZM79.0523 50.7616C79.9177 49.6181 80.5576 48.3004 80.9801 46.8216L79.057 46.2722C78.6957 47.5368 78.1598 48.6267 77.4575 49.5548L79.0523 50.7616ZM80.9764 46.8342C81.4276 45.33 81.6484 43.7063 81.6484 41.9697H79.6484C79.6484 43.5366 79.4493 44.9642 79.0607 46.2595L80.9764 46.8342ZM81.6484 41.9697C81.6484 40.2332 81.4276 38.6094 80.9764 37.1052L79.0607 37.6799C79.4493 38.9752 79.6484 40.4029 79.6484 41.9697H81.6484ZM80.9815 37.1229C80.5594 35.6154 79.918 34.2907 79.0442 33.1673L77.4655 34.3952C78.1595 35.2874 78.6938 36.3702 79.0556 37.6622L80.9815 37.1229ZM79.0523 33.1778C78.1792 32.0241 77.1092 31.1246 75.8466 30.4933L74.9522 32.2821C75.9292 32.7706 76.7628 33.4668 77.4575 34.3847L79.0523 33.1778ZM75.8466 30.4933C74.5723 29.8561 73.1566 29.5479 71.6201 29.5479V31.5479C72.8831 31.5479 73.9869 31.7995 74.9522 32.2821L75.8466 30.4933ZM71.6201 29.5479C69.5531 29.5479 67.6878 30.0364 66.057 31.0399L67.1052 32.7433C68.3858 31.9552 69.8799 31.5479 71.6201 31.5479V29.5479ZM66.0616 31.0371C64.5006 31.986 63.2607 33.2217 62.3611 34.7417L64.0823 35.7603C64.8064 34.5368 65.8061 33.5329 67.1005 32.7461L66.0616 31.0371ZM62.3611 34.7417C61.4691 36.2489 60.9831 37.8519 60.9206 39.5392L62.9192 39.6132C62.9687 38.277 63.3506 36.9966 64.0823 35.7603L62.3611 34.7417ZM62.4612 38.7353L58.8078 36.3837L57.7254 38.0655L61.3787 40.417L62.4612 38.7353ZM59.2658 37.2635C59.3453 35.2242 59.7682 33.299 60.5322 31.4812L58.6885 30.7063C57.8288 32.7518 57.3559 34.9138 57.2674 37.1857L59.2658 37.2635ZM60.5274 31.4925C61.3192 29.6714 62.3986 28.0663 63.7675 26.671L62.3399 25.2704C60.7974 26.8425 59.5812 28.6528 58.6933 30.695L60.5274 31.4925ZM63.7674 26.6712C65.1499 25.2626 66.8106 24.1614 68.7624 23.3701L68.011 21.5166C65.8196 22.405 63.925 23.6554 62.34 25.2702L63.7674 26.6712ZM68.7731 23.3657C70.7045 22.5566 72.9077 22.1416 75.3994 22.1416V20.1416C72.6841 20.1416 70.2122 20.5944 68.0003 21.521L68.7731 23.3657ZM75.3994 22.1416C78.1263 22.1416 80.4719 22.6623 82.4642 23.6714L83.3679 21.8872C81.0489 20.7127 78.3835 20.1416 75.3994 20.1416V22.1416ZM82.4688 23.6737C84.519 24.6988 86.2191 26.0994 87.5806 27.8799L89.1694 26.665C87.6195 24.6382 85.6802 23.0434 83.3632 21.8849L82.4688 23.6737ZM87.5806 27.8799C88.9555 29.6778 89.9943 31.7625 90.6905 34.1456L92.6103 33.5848C91.8507 30.9849 90.7059 28.6744 89.1694 26.665L87.5806 27.8799ZM90.6905 34.1456C91.3895 36.5384 91.7422 39.1028 91.7422 41.8438H93.7422C93.7422 38.9298 93.367 36.1752 92.6103 33.5848L90.6905 34.1456ZM91.7422 41.8438C91.7422 44.6992 91.2712 47.3339 90.3391 49.7572L92.2058 50.4752C93.2334 47.8035 93.7422 44.9232 93.7422 41.8438H91.7422ZM90.3357 49.7662C89.4297 52.191 88.1153 54.2996 86.3924 56.102L87.8381 57.4839C89.7545 55.4791 91.2115 53.1365 92.2092 50.4662L90.3357 49.7662ZM86.387 56.1076C84.6952 57.9052 82.6568 59.3107 80.2595 60.3229L81.0374 62.1654C83.6792 61.05 85.9519 59.488 87.8434 57.4783L86.387 56.1076ZM80.2595 60.3229C77.8797 61.3277 75.1872 61.8398 72.166 61.8398V63.8398C75.4156 63.8398 78.3781 63.2882 81.0374 62.1654L80.2595 60.3229ZM72.166 61.8398C69.0416 61.8398 66.228 61.2748 63.71 60.1616L62.9013 61.9908C65.7023 63.2291 68.7957 63.8398 72.166 63.8398V61.8398ZM63.7217 60.1668C61.2166 59.0209 59.0629 57.4252 57.2525 55.3752L55.7534 56.6991C57.7503 58.9602 60.1317 60.7239 62.8897 61.9855L63.7217 60.1668ZM57.2525 55.3752C55.4423 53.3254 54.035 50.8795 53.0379 48.023L51.1496 48.6821C52.2241 51.7605 53.7563 54.4376 55.7534 56.6991L57.2525 55.3752ZM53.0406 48.031C52.0721 45.1792 51.582 42.0419 51.582 38.6104H49.582C49.582 42.2335 50.0998 45.591 51.1469 48.6741L53.0406 48.031ZM51.582 38.6104V33.9072H49.582V38.6104H51.582ZM51.582 33.9072C51.582 29.0771 52.2817 24.6832 53.6677 20.7155L51.7796 20.056C50.3101 24.2627 49.582 28.8831 49.582 33.9072H51.582ZM53.6664 20.7192C55.0815 16.7189 57.1018 13.281 59.7213 10.3914L58.2396 9.04809C55.4282 12.1494 53.2773 15.8221 51.7809 20.0523L53.6664 20.7192ZM59.7244 10.3879C62.3406 7.47514 65.496 5.22157 69.2022 3.62548L68.4111 1.78858C64.4467 3.49588 61.0514 5.91744 58.2365 9.05152L59.7244 10.3879ZM69.2022 3.62548C72.8949 2.0352 77.0825 1.22949 81.7822 1.22949V-0.770508C76.8518 -0.770508 72.389 0.0754752 68.4111 1.78858L69.2022 3.62548Z" fill="#D9D9D9"/>
</svg>
