<svg width="75" height="75" viewBox="0 0 75 75" fill="none" xmlns="http://www.w3.org/2000/svg">
<g clip-path="url(#clip0_152_1237)">
<path d="M35.8887 1.61133C16.0681 1.61133 0 17.6794 0 37.5C0 42.6916 1.10378 47.6252 3.08762 52.0803L25.8774 71.9719C29.0554 72.8931 32.4142 73.3892 35.8892 73.3892C55.7098 73.3892 71.7779 57.3212 71.7779 37.5C71.7779 17.6794 55.7098 1.61133 35.8887 1.61133Z" fill="#B2C3FF"/>
<path d="M56.4822 69.8994V53.9892C56.4822 52.8042 55.5215 51.8434 54.3359 51.8434H14.5374C15.7224 51.8434 16.6831 52.8042 16.6831 53.9892V67.8211C19.5773 69.6579 22.7519 71.093 26.1285 72.0451H54.3359C55.5215 72.0451 56.4822 71.0844 56.4822 69.8994Z" fill="#E6FCFF"/>
<path d="M24.9463 69.8994V53.9892C24.9463 52.8042 25.9071 51.8434 27.0927 51.8434H14.5374C15.7224 51.8434 16.6831 52.8042 16.6831 53.9892V67.8211C19.5773 69.6579 22.7519 71.093 26.1285 72.0451H27.0927C25.9071 72.0451 24.9463 71.0844 24.9463 69.8994Z" fill="#CCEBFF"/>
<path d="M21.9698 61.1395C21.3197 61.1395 20.7927 60.6136 20.791 59.9636C20.7899 59.313 21.3163 58.7843 21.9675 58.7826L46.1099 58.7414H46.1122C46.7622 58.7414 47.2892 59.2672 47.291 59.9173C47.2921 60.5684 46.7657 61.0971 46.1151 61.0983L21.9726 61.1395C21.9715 61.1395 21.9703 61.1395 21.9698 61.1395Z" fill="#B8DFF4"/>
<path d="M21.9812 66.1285C21.3317 66.1285 20.8041 65.6027 20.803 64.9527C20.8013 64.3021 21.3277 63.7733 21.9789 63.7716L41.7354 63.7407H41.7382C42.3877 63.7407 42.9153 64.2666 42.9164 64.9166C42.9181 65.5672 42.3917 66.0959 41.7405 66.0976L21.984 66.1285H21.9812Z" fill="#B8DFF4"/>
<path d="M63.5955 27.3994H23.7964C24.9814 27.3994 25.9427 28.3602 25.9427 29.5452V45.4548C25.9427 46.6404 24.9814 47.6011 23.7964 47.6011H63.5955C64.7805 47.6011 65.7413 46.6404 65.7413 45.4548V29.5452C65.7413 28.3602 64.7805 27.3994 63.5955 27.3994Z" fill="#E6FCFF"/>
<path d="M34.2059 45.4548V29.5452C34.2059 28.3602 35.1667 27.3994 36.3517 27.3994H23.7964C24.9814 27.3994 25.9427 28.3602 25.9427 29.5452V45.4548C25.9427 46.6398 24.9814 47.6006 23.7964 47.6006H36.3517C35.1667 47.6006 34.2059 46.6404 34.2059 45.4548Z" fill="#CCEBFF"/>
<path d="M31.173 36.6743C30.5236 36.6743 29.996 36.1484 29.9949 35.4984C29.9932 34.8478 30.5196 34.3191 31.1708 34.3174L57.1019 34.2722H57.1048C57.7542 34.2722 58.2818 34.798 58.2835 35.4481C58.2847 36.0992 57.7582 36.628 57.1071 36.6291L31.1759 36.6743C31.1753 36.6743 31.1742 36.6743 31.173 36.6743Z" fill="#B8DFF4"/>
<path d="M50.936 41.637H31.1795C30.5283 41.637 30.0007 41.1095 30.0007 40.4583C30.0007 39.8077 30.5283 39.2801 31.1795 39.2801H50.936C51.5866 39.2801 52.1142 39.8077 52.1142 40.4583C52.1142 41.1095 51.5866 41.637 50.936 41.637Z" fill="#B8DFF4"/>
<path d="M72.8543 2.95543H33.0552C34.2408 2.95543 35.2015 3.91616 35.2015 5.1012V21.0108C35.2015 22.1958 34.2408 23.1571 33.0552 23.1571H72.8543C74.0393 23.1571 75.0001 22.1958 75.0001 21.0108V5.1012C75.0001 3.91616 74.0393 2.95543 72.8543 2.95543Z" fill="#E6FCFF"/>
<path d="M43.4647 21.0108V5.1012C43.4647 3.91616 44.4255 2.95543 45.6105 2.95543H33.0552C34.2402 2.95543 35.2015 3.91616 35.2015 5.1012V21.0108C35.2015 22.1958 34.2402 23.1571 33.0552 23.1571H45.6105C44.4255 23.1565 43.4647 22.1958 43.4647 21.0108Z" fill="#CCEBFF"/>
<path d="M35.6723 21.0108V5.1012C35.6723 3.91616 34.7115 2.95543 33.5265 2.95543H17.2582C16.0725 2.95543 15.1118 3.91616 15.1118 5.1012V21.0108C15.1118 22.1958 16.0731 23.1571 17.2582 23.1571H33.5265C34.7121 23.1565 35.6723 22.1958 35.6723 21.0108Z" fill="#3A5FE1"/>
<path d="M24.1532 21.3043C24.1532 20.2566 24.9474 19.3943 25.9665 19.2867V6.84528C24.9474 6.73713 24.1532 5.87539 24.1532 4.82768C24.1532 3.98425 24.6676 3.26156 25.3995 2.95543H17.2576C16.0725 2.95543 15.1118 3.91616 15.1118 5.1012V21.0108C15.1118 22.1958 16.0725 23.1571 17.2576 23.1571H25.3566C24.6476 22.8401 24.1532 22.1306 24.1532 21.3043Z" fill="#3553BF"/>
<path d="M30.9666 6.69994H19.7245C19.3188 6.69994 18.9897 7.02895 18.9897 7.43522V18.6768C18.9897 19.083 19.3188 19.412 19.7245 19.412H30.9666C31.3723 19.412 31.7013 19.083 31.7013 18.6768V7.43522C31.7013 7.02895 31.3723 6.69994 30.9666 6.69994Z" fill="#4770FF"/>
<path d="M24.6872 18.6768V7.43522C24.6872 7.02895 25.0162 6.69994 25.4225 6.69994H19.7245C19.3188 6.69994 18.9897 7.02895 18.9897 7.43522V18.6768C18.9897 19.083 19.3188 19.412 19.7245 19.412H25.4225C25.0162 19.412 24.6872 19.083 24.6872 18.6768Z" fill="#3A5FE1"/>
<path d="M40.377 12.2097C39.727 12.2097 39.2 11.6838 39.1982 11.0338C39.1971 10.3827 39.7235 9.85394 40.3741 9.85279L69.976 9.79958H69.9783C70.6289 9.79958 71.1559 10.3254 71.1576 10.9755C71.1587 11.6261 70.6323 12.1548 69.9817 12.1565L40.3798 12.2097C40.3793 12.2097 40.3776 12.2097 40.377 12.2097Z" fill="#B8DFF4"/>
<path d="M60.1948 17.1925H40.4383C39.7871 17.1925 39.2595 16.6649 39.2595 16.0143C39.2595 15.3637 39.7871 14.8355 40.4383 14.8355H60.1948C60.8454 14.8355 61.3729 15.3637 61.3729 16.0143C61.3729 16.6649 60.8454 17.1925 60.1948 17.1925Z" fill="#B8DFF4"/>
<path d="M23.83 15.4449L22.0831 13.698C21.623 13.2374 21.623 12.4912 22.0831 12.0312C22.5437 11.5705 23.2893 11.5705 23.7499 12.0312L24.6637 12.945L26.9417 10.667C27.4017 10.207 28.1479 10.207 28.6085 10.667C29.0686 11.1277 29.0686 11.8738 28.6085 12.3339L25.4974 15.4449C25.0368 15.905 24.2906 15.905 23.83 15.4449Z" fill="#E6FCFF"/>
<path d="M26.4135 45.4548V29.5452C26.4135 28.3602 25.4528 27.3994 24.2677 27.3994H7.99879C6.81376 27.3994 5.85303 28.3602 5.85303 29.5452V45.4548C5.85303 46.6404 6.81376 47.6011 7.99879 47.6011H24.2677C25.4528 47.6006 26.4135 46.6398 26.4135 45.4548Z" fill="#3A5FE1"/>
<path d="M14.8944 45.7483C14.8944 44.7006 15.6887 43.8389 16.7077 43.7307V31.2893C15.6887 31.1817 14.8944 30.32 14.8944 29.2717C14.8944 28.4288 15.4088 27.7061 16.1407 27.3994H7.99879C6.81376 27.3994 5.85303 28.3602 5.85303 29.5452V45.4548C5.85303 46.6404 6.81376 47.6011 7.99879 47.6011H16.0972C15.3888 47.2841 14.8944 46.5746 14.8944 45.7483Z" fill="#3553BF"/>
<path d="M21.7078 31.1445H10.4657C10.06 31.1445 9.73096 31.4735 9.73096 31.8792V43.1208C9.73096 43.527 10.06 43.8561 10.4657 43.8561H21.7072C22.1135 43.8561 22.4425 43.527 22.4425 43.1208V31.8792C22.4425 31.4735 22.1135 31.1445 21.7078 31.1445Z" fill="#4770FF"/>
<path d="M15.4284 43.1208V31.8792C15.4284 31.4735 15.7574 31.1445 16.1631 31.1445H10.4657C10.06 31.1445 9.73096 31.4735 9.73096 31.8792V43.1208C9.73096 43.527 10.06 43.8561 10.4657 43.8561H16.1631C15.7574 43.8561 15.4284 43.527 15.4284 43.1208Z" fill="#3A5FE1"/>
<path d="M14.5712 39.889L12.8242 38.142C12.3636 37.6814 12.3636 36.9352 12.8242 36.4752C13.2843 36.0146 14.0304 36.0146 14.4911 36.4752L15.4043 37.389L17.6822 35.111C18.1429 34.651 18.8885 34.651 19.3491 35.111C19.8091 35.5717 19.8091 36.3178 19.3491 36.7779L16.238 39.889C15.7779 40.349 15.0312 40.349 14.5712 39.889Z" fill="#E6FCFF"/>
<path d="M15.009 51.8434H2.98413C5.93785 58.6103 10.916 64.2895 17.1548 68.1158V53.9898C17.1548 52.8042 16.194 51.8434 15.009 51.8434Z" fill="#3A5FE1"/>
<path d="M12.4482 55.5885H4.8877C7.0575 59.2993 9.87389 62.586 13.1835 65.2931V56.3232C13.1835 55.9175 12.8545 55.5885 12.4482 55.5885Z" fill="#4770FF"/>
</g>
<defs>
<clipPath id="clip0_152_1237">
<rect width="75" height="75" fill="white"/>
</clipPath>
</defs>
</svg>
