<svg width="645" height="643" viewBox="0 0 645 643" fill="none" xmlns="http://www.w3.org/2000/svg">
<path d="M561.259 286.807C580.416 267.646 611.476 267.646 630.632 286.807C649.789 305.967 649.789 337.033 630.632 356.193L359.75 627.128C338.591 648.291 304.286 648.291 283.127 627.128L15.8692 359.819C-5.28967 338.656 -5.28967 304.344 15.8692 283.181L283.127 15.8722C304.286 -5.29074 338.591 -5.29073 359.75 15.8722L477.319 133.464C498.478 154.627 498.478 188.938 477.319 210.101L359.267 328.175C338.109 349.338 303.803 349.338 282.644 328.175L229.233 274.753C208.074 253.59 173.768 253.59 152.609 274.753L148.917 278.447C127.758 299.609 127.758 333.921 148.917 355.084L240.574 446.76C240.611 446.796 240.611 446.855 240.574 446.891C240.538 446.928 240.538 446.987 240.575 447.023L282.776 489.095C303.945 510.199 338.202 510.171 359.337 489.032L401.338 447.023C401.374 446.987 401.374 446.928 401.338 446.891C401.301 446.855 401.301 446.796 401.338 446.759L561.259 286.807Z" fill="url(#paint0_linear_356_1653)"/>
<defs>
<linearGradient id="paint0_linear_356_1653" x1="322.5" y1="0" x2="322.5" y2="643" gradientUnits="userSpaceOnUse">
<stop stop-color="#F8F6FC"/>
<stop offset="1" stop-color="#F6F8FC"/>
</linearGradient>
</defs>
</svg>
