<svg width="19" height="19" viewBox="0 0 19 19" fill="none" xmlns="http://www.w3.org/2000/svg">
<g clip-path="url(#clip0_79_432)">
<path d="M2.74225 16.2569C3.90284 17.4166 5.768 17.4166 9.49992 17.4166C13.2318 17.4166 15.0978 17.4166 16.2568 16.2569C17.4166 15.0986 17.4166 13.2319 17.4166 9.49998C17.4166 5.76806 17.4166 3.9021 16.2568 2.74231C15.0986 1.58331 13.2318 1.58331 9.49992 1.58331C5.768 1.58331 3.90204 1.58331 2.74225 2.74231C1.58325 3.9029 1.58325 5.76806 1.58325 9.49998C1.58325 13.2319 1.58325 15.0979 2.74225 16.2569Z" stroke="white" stroke-width="1.1875"/>
<path opacity="0.5" d="M14.25 6.72921H11.0833M14.25 11.4792H11.0833M14.25 13.8542H11.0833M7.91667 6.72921H6.33333M6.33333 6.72921H4.75M6.33333 6.72921V5.14587M6.33333 6.72921V8.31254M7.52083 11.4792L6.33333 12.6667M6.33333 12.6667L5.14583 13.8542M6.33333 12.6667L5.14583 11.4792M6.33333 12.6667L7.52083 13.8542" stroke="white" stroke-width="1.1875" stroke-linecap="round"/>
</g>
<defs>
<clipPath id="clip0_79_432">
<rect width="19" height="19" fill="white"/>
</clipPath>
</defs>
</svg>
