<svg width="39" height="39" viewBox="0 0 39 39" fill="none" xmlns="http://www.w3.org/2000/svg">
<path opacity="0.5" fill-rule="evenodd" clip-rule="evenodd" d="M22.75 35.75H16.25C10.1221 35.75 7.05737 35.75 5.1545 33.8455C3.25 31.9426 3.25 28.8779 3.25 22.75V16.25C3.25 10.1221 3.25 7.05737 5.1545 5.1545C7.05737 3.25 10.1384 3.25 16.2987 3.25C17.2835 3.25 18.0716 3.25 18.7362 3.27762C18.7151 3.40762 18.7038 3.53925 18.7038 3.67412L18.6875 8.27937C18.6875 10.062 18.6875 11.6382 18.8581 12.9074C19.0434 14.2837 19.4675 15.6601 20.592 16.7846C21.7132 17.9059 23.0912 18.3316 24.4676 18.5169C25.7367 18.6875 27.313 18.6875 29.0956 18.6875H35.6801C35.75 19.5553 35.75 20.6213 35.75 22.0399V22.75C35.75 28.8779 35.75 31.9426 33.8455 33.8455C31.9426 35.75 28.8779 35.75 22.75 35.75Z" fill="white"/>
<path d="M17.16 25.1842C17.2739 25.066 17.3627 24.926 17.4212 24.7727C17.4796 24.6193 17.5065 24.4557 17.5002 24.2916C17.4938 24.1276 17.4544 23.9666 17.3843 23.8181C17.3142 23.6697 17.2149 23.537 17.0922 23.4279C16.9696 23.3188 16.8261 23.2357 16.6705 23.1834C16.5149 23.1311 16.3504 23.1108 16.1868 23.1236C16.0231 23.1365 15.8638 23.1823 15.7183 23.2583C15.5728 23.3342 15.4441 23.4388 15.34 23.5657L11.9161 27.417L10.6616 26.0032C10.447 25.7615 10.1451 25.6148 9.82239 25.5956C9.49966 25.5765 9.18253 25.6862 8.94075 25.9009C8.69897 26.1155 8.55236 26.4174 8.53316 26.7401C8.51396 27.0628 8.62375 27.38 8.83838 27.6217L11.0061 30.0592C11.1205 30.1876 11.2606 30.2903 11.4175 30.3606C11.5743 30.4309 11.7442 30.4673 11.9161 30.4673C12.088 30.4673 12.2579 30.4309 12.4148 30.3606C12.5716 30.2903 12.7118 30.1876 12.8261 30.0592L17.16 25.1842ZM18.7038 3.67249L18.6875 8.27937C18.6875 10.062 18.6875 11.6366 18.8581 12.9074C19.0434 14.2837 19.4675 15.6601 20.592 16.783C21.7133 17.9059 23.0913 18.3316 24.4676 18.5169C25.7368 18.6875 27.313 18.6875 29.0956 18.6875H35.6801C35.7013 18.9394 35.7159 19.2091 35.7256 19.5H35.75C35.75 19.0645 35.75 18.8467 35.7338 18.59C35.6086 17.0458 35.0709 15.5637 34.177 14.2984C34.0243 14.0904 33.9203 13.9669 33.7139 13.7182C32.4253 12.1777 30.7288 10.257 29.25 8.93749C27.9338 7.76099 26.1284 6.47562 24.5538 5.42424C23.2018 4.52237 22.5258 4.07062 21.5979 3.73424C21.3279 3.63821 21.0535 3.55524 20.7756 3.48562C20.1516 3.33124 19.5439 3.27762 18.6875 3.25812L18.7038 3.67249Z" fill="white"/>
</svg>
