<svg width="44" height="44" viewBox="0 0 44 44" fill="none" xmlns="http://www.w3.org/2000/svg">
<path d="M22 4.8125C17.4416 4.8125 13.0699 6.62332 9.8466 9.8466C6.62332 13.0699 4.8125 17.4416 4.8125 22C4.8125 26.5584 6.62332 30.9301 9.8466 34.1534C13.0699 37.3767 17.4416 39.1875 22 39.1875C25.5681 39.1875 29.3081 38.1167 32.0048 36.3241C32.0801 36.2741 32.1448 36.2097 32.1952 36.1347C32.2456 36.0597 32.2808 35.9756 32.2987 35.887C32.3165 35.7984 32.3168 35.7072 32.2994 35.6185C32.282 35.5298 32.2473 35.4454 32.1973 35.3702C32.1474 35.2949 32.083 35.2302 32.008 35.1798C31.933 35.1294 31.8488 35.0942 31.7603 35.0763C31.6717 35.0585 31.5804 35.0582 31.4918 35.0756C31.4031 35.093 31.3187 35.1277 31.2434 35.1777C28.7633 36.8277 25.3069 37.8125 22 37.8125C18.8726 37.8125 15.8154 36.8851 13.215 35.1476C10.6147 33.4101 8.58797 30.9405 7.39115 28.0512C6.19434 25.1618 5.8812 21.9825 6.49133 18.9151C7.10146 15.8478 8.60746 13.0303 10.8189 10.8189C13.0303 8.60746 15.8478 7.10146 18.9151 6.49133C21.9825 5.8812 25.1618 6.19434 28.0512 7.39115C30.9405 8.58797 33.4101 10.6147 35.1476 13.215C36.8851 15.8154 37.8125 18.8726 37.8125 22C37.8125 27.3831 35.2344 28.1875 33.6875 28.1875C32.1406 28.1875 29.5625 27.3831 29.5625 22V15.125C29.5625 14.9427 29.4901 14.7678 29.3611 14.6389C29.2322 14.5099 29.0573 14.4375 28.875 14.4375C28.6927 14.4375 28.5178 14.5099 28.3889 14.6389C28.2599 14.7678 28.1875 14.9427 28.1875 15.125V17.6602C27.2414 16.3115 25.8809 15.3086 24.3126 14.804C22.7444 14.2994 21.0543 14.3207 19.4992 14.8647C17.9442 15.4087 16.6094 16.4455 15.6976 17.8176C14.7859 19.1898 14.3471 20.8221 14.448 22.4664C14.549 24.1107 15.1841 25.6771 16.2568 26.9274C17.3295 28.1777 18.7812 29.0435 20.3911 29.3932C22.0009 29.7429 23.681 29.5573 25.1757 28.8647C26.6705 28.1721 27.8982 27.0104 28.6722 25.5561C29.4697 28.1153 31.2228 29.5625 33.6875 29.5625C37.125 29.5625 39.1875 26.7352 39.1875 22C39.1825 17.4431 37.3701 13.0743 34.1479 9.85213C30.9257 6.62993 26.5569 4.8175 22 4.8125ZM22 28.1875C20.7762 28.1875 19.5799 27.8246 18.5624 27.1447C17.5449 26.4648 16.7518 25.4985 16.2835 24.3679C15.8152 23.2372 15.6926 21.9931 15.9314 20.7929C16.1701 19.5926 16.7594 18.4901 17.6248 17.6248C18.4901 16.7594 19.5926 16.1701 20.7929 15.9314C21.9931 15.6926 23.2372 15.8152 24.3679 16.2835C25.4985 16.7518 26.4648 17.5449 27.1447 18.5624C27.8246 19.5799 28.1875 20.7762 28.1875 22C28.1875 23.641 27.5356 25.2148 26.3752 26.3752C25.2148 27.5356 23.641 28.1875 22 28.1875Z" fill="#4770FF"/>
</svg>
