<svg width="458" height="606" viewBox="0 0 458 606" fill="none" xmlns="http://www.w3.org/2000/svg">
<rect width="458" height="606" fill="#18295B"/>
<mask id="mask0_133_2065" style="mask-type:alpha" maskUnits="userSpaceOnUse" x="0" y="0" width="458" height="606">
<rect width="458" height="606" rx="20" fill="#18295B"/>
</mask>
<g mask="url(#mask0_133_2065)">
<path d="M538.065 514.464C564.268 488.245 606.75 488.245 632.953 514.464C659.155 540.684 659.155 583.193 632.953 609.412L262.443 980.157C233.502 1009.12 186.58 1009.12 157.639 980.157L-207.913 614.374C-236.853 585.414 -236.853 538.462 -207.913 509.503L157.639 143.719C186.58 114.76 233.502 114.76 262.443 143.719L423.252 304.631C452.193 333.59 452.193 380.542 423.252 409.501L261.783 571.073C232.842 600.032 185.92 600.032 156.979 571.073L83.9232 497.97C54.9824 469.011 8.05994 469.011 -20.8809 497.97L-25.9317 503.024C-54.8726 531.983 -54.8726 578.936 -25.9317 607.895L99.4364 733.343C99.4861 733.392 99.4861 733.473 99.4364 733.523C99.3867 733.572 99.3867 733.653 99.4366 733.703L157.16 791.274C186.115 820.152 232.971 820.114 261.878 791.188L319.326 733.704C319.376 733.654 319.376 733.573 319.326 733.523C319.277 733.473 319.277 733.392 319.326 733.342L538.065 514.464Z" fill="#4770FF"/>
<rect x="-58.3354" y="556.624" width="130.191" height="330.921" rx="65.0953" transform="rotate(-45 -58.3354 556.624)" fill="#4770FF" fill-opacity="0.42"/>
<rect x="595.559" y="253.493" width="130.191" height="500.013" rx="65.0953" transform="rotate(45 595.559 253.493)" fill="#4770FF" fill-opacity="0.42"/>
</g>
</svg>
