<svg width="18" height="18" viewBox="0 0 18 18" fill="none" xmlns="http://www.w3.org/2000/svg">
<path d="M9 0C7.21997 0 5.47991 0.527841 3.99987 1.51677C2.51983 2.50571 1.36628 3.91131 0.685088 5.55585C0.00389956 7.20038 -0.17433 9.00998 0.172936 10.7558C0.520203 12.5016 1.37737 14.1053 2.63604 15.364C3.89471 16.6226 5.49836 17.4798 7.24419 17.8271C8.99002 18.1743 10.7996 17.9961 12.4442 17.3149C14.0887 16.6337 15.4943 15.4802 16.4832 14.0001C17.4722 12.5201 18 10.78 18 9C17.9975 6.61382 17.0485 4.3261 15.3612 2.63882C13.6739 0.95154 11.3862 0.00251984 9 0ZM9 16.6154C7.49382 16.6154 6.02146 16.1687 4.76912 15.332C3.51678 14.4952 2.5407 13.3058 1.96431 11.9143C1.38792 10.5227 1.23711 8.99155 1.53095 7.51431C1.82479 6.03707 2.55008 4.68014 3.61511 3.61511C4.68014 2.55008 6.03708 1.82478 7.51431 1.53094C8.99155 1.2371 10.5228 1.38791 11.9143 1.9643C13.3058 2.54069 14.4952 3.51677 15.332 4.76912C16.1688 6.02146 16.6154 7.49382 16.6154 9C16.6131 11.019 15.81 12.9547 14.3824 14.3824C12.9547 15.81 11.019 16.6131 9 16.6154ZM10.3846 13.1538C10.3846 13.3375 10.3117 13.5135 10.1818 13.6434C10.052 13.7732 9.87592 13.8462 9.69231 13.8462C9.32509 13.8462 8.9729 13.7003 8.71324 13.4406C8.45357 13.1809 8.30769 12.8288 8.30769 12.4615V9C8.12408 9 7.94799 8.92706 7.81816 8.79723C7.68833 8.66739 7.61539 8.4913 7.61539 8.30769C7.61539 8.12408 7.68833 7.94799 7.81816 7.81816C7.94799 7.68832 8.12408 7.61538 8.30769 7.61538C8.67492 7.61538 9.0271 7.76126 9.28677 8.02093C9.54643 8.28059 9.69231 8.63278 9.69231 9V12.4615C9.87592 12.4615 10.052 12.5345 10.1818 12.6643C10.3117 12.7941 10.3846 12.9702 10.3846 13.1538ZM7.61539 5.19231C7.61539 4.98692 7.67629 4.78614 7.7904 4.61537C7.90451 4.44459 8.06669 4.31149 8.25645 4.23289C8.4462 4.15429 8.655 4.13373 8.85644 4.1738C9.05788 4.21387 9.24292 4.31277 9.38815 4.458C9.53338 4.60323 9.63229 4.78827 9.67236 4.98971C9.71243 5.19115 9.69186 5.39995 9.61326 5.58971C9.53466 5.77946 9.40156 5.94165 9.23079 6.05576C9.06001 6.16986 8.85924 6.23077 8.65385 6.23077C8.37843 6.23077 8.11429 6.12136 7.91955 5.92661C7.7248 5.73186 7.61539 5.46772 7.61539 5.19231Z" fill="#5179FF"/>
</svg>
