<svg width="168" height="50" viewBox="0 0 168 50" fill="none" xmlns="http://www.w3.org/2000/svg">
<path d="M43.2034 22.0869C44.678 20.6114 47.0688 20.6114 48.5435 22.0869C50.0181 23.5625 50.0181 25.9548 48.5435 27.4304L27.692 48.2951C26.0633 49.9248 23.4226 49.9248 21.7939 48.2951L1.22146 27.7096C-0.407261 26.0798 -0.407261 23.4375 1.22146 21.8077L21.7939 1.22226C23.4226 -0.407501 26.0633 -0.407501 27.692 1.22226L36.742 10.278C38.3707 11.9077 38.3707 14.5501 36.742 16.1799L27.6549 25.2727C26.0261 26.9025 23.3855 26.9025 21.7567 25.2727L17.6453 21.1587C16.0166 19.5289 13.3759 19.5289 11.7472 21.1587L11.4629 21.4431C9.83421 23.0729 9.83421 25.7152 11.4629 27.345L18.5184 34.4049C18.5212 34.4077 18.5212 34.4122 18.5184 34.415C18.5156 34.4178 18.5156 34.4224 18.5184 34.4252L21.7669 37.6652C23.3964 39.2904 26.0334 39.2882 27.6602 37.6603L30.8933 34.4252C30.8961 34.4224 30.8961 34.4179 30.8933 34.4151C30.8905 34.4123 30.8905 34.4077 30.8933 34.4049L43.2034 22.0869Z" fill="#4770FF"/>
<rect x="9.6394" y="24.4596" width="7.32683" height="18.6235" rx="3.66342" transform="rotate(-45 9.6394 24.4596)" fill="#4770FF" fill-opacity="0.7"/>
<rect x="46.4392" y="7.40027" width="7.32683" height="28.1396" rx="3.66342" transform="rotate(45 46.4392 7.40027)" fill="#4770FF" fill-opacity="0.7"/>
<path d="M75.2328 12.9521V23.2701H73.7602V18.6712H67.8407V23.2701H66.3682V12.9521H67.8407V17.3888H73.7602V12.9521H75.2328Z" fill="#18295B"/>
<path d="M85.1475 20.6906H79.6697L78.5358 23.2701H77.0191L81.687 12.9521H83.1448L87.8275 23.2701H86.2813L85.1475 20.6906ZM84.6321 19.5114L82.4086 14.4556L80.185 19.5114H84.6321Z" fill="#18295B"/>
<path d="M98.0724 12.9521V23.2701H96.6294V14.2345H92.0645L91.9614 17.2562C91.9124 18.6811 91.7946 19.8357 91.608 20.7201C91.4313 21.6045 91.1467 22.2727 90.754 22.7247C90.3613 23.1669 89.8312 23.388 89.1637 23.388C88.8593 23.388 88.5501 23.3487 88.236 23.2701L88.339 21.9583C88.4961 21.9976 88.6532 22.0172 88.8102 22.0172C89.2324 22.0172 89.571 21.8502 89.8263 21.5161C90.0815 21.1721 90.273 20.6611 90.4006 19.9831C90.5282 19.305 90.6116 18.4108 90.6509 17.3004L90.8129 12.9521H98.0724Z" fill="#18295B"/>
<path d="M105.922 23.388C104.881 23.388 103.943 23.162 103.109 22.71C102.275 22.2481 101.617 21.6143 101.136 20.8085C100.665 20.0027 100.429 19.1036 100.429 18.1111C100.429 17.1186 100.665 16.2195 101.136 15.4137C101.617 14.6079 102.275 13.979 103.109 13.527C103.943 13.0651 104.881 12.8342 105.922 12.8342C106.952 12.8342 107.885 13.0651 108.719 13.527C109.554 13.979 110.207 14.6079 110.678 15.4137C111.149 16.2096 111.385 17.1088 111.385 18.1111C111.385 19.1134 111.149 20.0175 110.678 20.8233C110.207 21.6192 109.554 22.2481 108.719 22.71C107.885 23.162 106.952 23.388 105.922 23.388ZM105.922 22.0762C106.677 22.0762 107.355 21.9042 107.954 21.5603C108.562 21.2163 109.038 20.7447 109.382 20.1452C109.735 19.536 109.912 18.8579 109.912 18.1111C109.912 17.3643 109.735 16.6911 109.382 16.0917C109.038 15.4825 108.562 15.0059 107.954 14.6619C107.355 14.318 106.677 14.146 105.922 14.146C105.166 14.146 104.478 14.318 103.86 14.6619C103.251 15.0059 102.77 15.4825 102.417 16.0917C102.073 16.6911 101.902 17.3643 101.902 18.1111C101.902 18.8579 102.073 19.536 102.417 20.1452C102.77 20.7447 103.251 21.2163 103.86 21.5603C104.478 21.9042 105.166 22.0762 105.922 22.0762Z" fill="#18295B"/>
<path d="M120.509 14.2345H115.208L115.223 23.2701H113.765V12.9521H120.524L120.509 14.2345Z" fill="#18295B"/>
<path d="M125.622 23.388C124.582 23.388 123.644 23.162 122.81 22.71C121.975 22.2481 121.318 21.6143 120.837 20.8085C120.365 20.0027 120.13 19.1036 120.13 18.1111C120.13 17.1186 120.365 16.2195 120.837 15.4137C121.318 14.6079 121.975 13.979 122.81 13.527C123.644 13.0651 124.582 12.8342 125.622 12.8342C126.653 12.8342 127.586 13.0651 128.42 13.527C129.255 13.979 129.907 14.6079 130.379 15.4137C130.85 16.2096 131.085 17.1088 131.085 18.1111C131.085 19.1134 130.85 20.0175 130.379 20.8233C129.907 21.6192 129.255 22.2481 128.42 22.71C127.586 23.162 126.653 23.388 125.622 23.388ZM125.622 22.0762C126.378 22.0762 127.056 21.9042 127.654 21.5603C128.263 21.2163 128.739 20.7447 129.083 20.1452C129.436 19.536 129.613 18.8579 129.613 18.1111C129.613 17.3643 129.436 16.6911 129.083 16.0917C128.739 15.4825 128.263 15.0059 127.654 14.6619C127.056 14.318 126.378 14.146 125.622 14.146C124.866 14.146 124.179 14.318 123.561 14.6619C122.952 15.0059 122.471 15.4825 122.118 16.0917C121.774 16.6911 121.602 17.3643 121.602 18.1111C121.602 18.8579 121.774 19.536 122.118 20.1452C122.471 20.7447 122.952 21.2163 123.561 21.5603C124.179 21.9042 124.866 22.0762 125.622 22.0762Z" fill="#18295B"/>
<path d="M139.886 17.9195C140.583 18.0865 141.108 18.3863 141.462 18.8186C141.825 19.2412 142.006 19.7866 142.006 20.4548C142.006 21.349 141.678 22.0418 141.02 22.5331C140.372 23.0244 139.425 23.2701 138.178 23.2701H133.466V12.9521H137.898C139.027 12.9521 139.906 13.183 140.534 13.6449C141.172 14.0969 141.491 14.7504 141.491 15.6053C141.491 16.1654 141.349 16.642 141.064 17.0351C140.789 17.4282 140.396 17.723 139.886 17.9195ZM134.924 17.492H137.795C138.512 17.492 139.057 17.3495 139.43 17.0646C139.812 16.7796 140.004 16.362 140.004 15.8117C140.004 15.2614 139.812 14.8437 139.43 14.5588C139.047 14.264 138.502 14.1166 137.795 14.1166H134.924V17.492ZM138.148 22.1057C139.729 22.1057 140.519 21.5161 140.519 20.3369C140.519 19.7472 140.318 19.3149 139.915 19.0397C139.523 18.7548 138.934 18.6123 138.148 18.6123H134.924V22.1057H138.148Z" fill="#18295B"/>
<path d="M148.987 16.5487C150.214 16.5487 151.152 16.8238 151.8 17.3741C152.458 17.9244 152.786 18.7351 152.786 19.8062C152.786 20.9363 152.433 21.7961 151.726 22.3857C151.029 22.9753 150.028 23.2701 148.722 23.2701H144.467V12.9521H145.924V16.5487H148.987ZM148.663 22.1057C149.517 22.1057 150.17 21.914 150.622 21.5308C151.083 21.1377 151.314 20.5727 151.314 19.8357C151.314 18.4206 150.43 17.7131 148.663 17.7131H145.924V22.1057H148.663ZM154.421 12.9521H155.879V23.2701H154.421V12.9521Z" fill="#18295B"/>
<path d="M159.091 12.9521H160.549V20.9117L166.645 12.9521H168V23.2701H166.557V15.3252L160.446 23.2701H159.091V12.9521ZM163.523 12.2298C162.719 12.2298 162.095 12.0579 161.653 11.7139C161.221 11.3602 161.001 10.859 160.991 10.2104H162.036C162.046 10.5937 162.179 10.8934 162.434 11.1096C162.699 11.316 163.062 11.4191 163.523 11.4191C163.965 11.4191 164.319 11.316 164.584 11.1096C164.859 10.8934 165.001 10.5937 165.011 10.2104H166.042C166.032 10.8492 165.806 11.3454 165.364 11.6992C164.932 12.053 164.319 12.2298 163.523 12.2298Z" fill="#18295B"/>
<path d="M70.3882 29.2338C71.3698 29.2338 72.2534 29.4648 73.0387 29.9266C73.824 30.3786 74.4425 31.0075 74.8941 31.8133C75.3457 32.6093 75.5714 33.5084 75.5714 34.5108C75.5714 35.5131 75.3457 36.4171 74.8941 37.2229C74.4425 38.0189 73.824 38.6478 73.0387 39.1096C72.2534 39.5617 71.3698 39.7877 70.3882 39.7877C69.5439 39.7877 68.7782 39.6501 68.091 39.375C67.4038 39.0998 66.8296 38.6969 66.3682 38.1663L67.2959 37.2377C68.0714 38.0533 69.0776 38.4611 70.3145 38.4611C70.9723 38.4611 71.5711 38.3186 72.111 38.0336C72.6509 37.7388 73.0927 37.331 73.4363 36.8102C73.7799 36.2894 73.986 35.6949 74.0547 35.0267H69.0629V33.818H74.04C73.9418 33.1792 73.721 32.6142 73.3774 32.1229C73.0338 31.6315 72.5969 31.2483 72.0668 30.9731C71.5367 30.698 70.9526 30.5604 70.3145 30.5604C69.0874 30.5604 68.0812 30.9682 67.2959 31.7838L66.3682 30.8552C66.8296 30.3246 67.4038 29.9217 68.091 29.6465C68.788 29.3714 69.5537 29.2338 70.3882 29.2338Z" fill="#18295B"/>
<path d="M81.5504 35.1298H79.4005V39.6698H77.9574V29.3517H79.4005V33.8327H81.5798L84.8194 29.3517H86.395L82.7136 34.3486L86.5717 39.6698H84.893L81.5504 35.1298Z" fill="#18295B"/>
<path d="M92.6612 39.7877C91.6305 39.7877 90.6979 39.5617 89.8634 39.1096C89.0388 38.6478 88.3909 38.0189 87.9197 37.2229C87.4485 36.4171 87.2129 35.5131 87.2129 34.5108C87.2129 33.5084 87.4485 32.6093 87.9197 31.8133C88.3909 31.0075 89.0437 30.3786 89.8782 29.9266C90.7126 29.4648 91.6452 29.2338 92.676 29.2338C93.4809 29.2338 94.2172 29.3714 94.8848 29.6465C95.5523 29.9119 96.1217 30.3098 96.5929 30.8405L95.6357 31.7691C94.8602 30.9535 93.8933 30.5457 92.7349 30.5457C91.9692 30.5457 91.2771 30.7177 90.6586 31.0616C90.0402 31.4055 89.5542 31.8821 89.2008 32.4914C88.8572 33.0908 88.6854 33.7639 88.6854 34.5108C88.6854 35.2576 88.8572 35.9356 89.2008 36.5449C89.5542 37.1443 90.0402 37.616 90.6586 37.9599C91.2771 38.3039 91.9692 38.4758 92.7349 38.4758C93.8834 38.4758 94.8504 38.0631 95.6357 37.2377L96.5929 38.1663C96.1217 38.6969 95.5474 39.0998 94.87 39.375C94.2025 39.6501 93.4662 39.7877 92.6612 39.7877Z" fill="#18295B"/>
<path d="M107.501 29.3517V39.6698H106.058V30.6341H100.079V39.6698H98.6216V29.3517H107.501Z" fill="#18295B"/>
<path d="M118.196 38.3874V39.6698H110.715V29.3517H117.99V30.6341H112.188V33.8032H117.356V35.0561H112.188V38.3874H118.196Z" fill="#18295B"/>
<path d="M124.528 29.3517C125.863 29.3517 126.914 29.6711 127.679 30.3098C128.445 30.9486 128.828 31.8281 128.828 32.9483C128.828 34.0686 128.445 34.948 127.679 35.5868C126.914 36.2255 125.863 36.5449 124.528 36.5449H121.981V39.6698H120.508V29.3517H124.528ZM124.484 35.2625C125.417 35.2625 126.128 35.066 126.619 34.6729C127.11 34.27 127.355 33.6951 127.355 32.9483C127.355 32.2015 127.11 31.6315 126.619 31.2385C126.128 30.8356 125.417 30.6341 124.484 30.6341H121.981V35.2625H124.484Z" fill="#18295B"/>
<path d="M137.628 30.6341H134.094V39.6698H132.651V30.6341H129.132V29.3517H137.628V30.6341Z" fill="#18295B"/>
</svg>
