<svg width="168" height="50" viewBox="0 0 168 50" fill="none" xmlns="http://www.w3.org/2000/svg">
<path d="M43.2034 22.087C44.678 20.6115 47.0688 20.6115 48.5435 22.087C50.0181 23.5626 50.0181 25.9549 48.5435 27.4304L27.692 48.2951C26.0633 49.9249 23.4226 49.9249 21.7939 48.2951L1.22146 27.7097C-0.407261 26.0799 -0.407261 23.4375 1.22146 21.8078L21.7939 1.22232C23.4226 -0.40744 26.0633 -0.40744 27.692 1.22232L36.742 10.278C38.3707 11.9078 38.3707 14.5502 36.742 16.1799L27.6549 25.2728C26.0261 26.9026 23.3855 26.9026 21.7567 25.2728L17.6453 21.1588C16.0166 19.529 13.3759 19.529 11.7472 21.1588L11.4629 21.4432C9.83421 23.0729 9.83421 25.7153 11.4629 27.3451L18.5184 34.405C18.5212 34.4078 18.5212 34.4123 18.5184 34.4151C18.5156 34.4179 18.5156 34.4225 18.5184 34.4253L21.7669 37.6652C23.3964 39.2904 26.0334 39.2883 27.6602 37.6604L30.8933 34.4253C30.8961 34.4225 30.8961 34.4179 30.8933 34.4151C30.8905 34.4123 30.8905 34.4078 30.8933 34.405L43.2034 22.087Z" fill="#4770FF"/>
<rect x="9.63965" y="24.4595" width="7.32683" height="18.6235" rx="3.66342" transform="rotate(-45 9.63965 24.4595)" fill="#4770FF" fill-opacity="0.7"/>
<rect x="46.4392" y="7.40039" width="7.32683" height="28.1396" rx="3.66342" transform="rotate(45 46.4392 7.40039)" fill="#4770FF" fill-opacity="0.7"/>
<path d="M75.233 12.9521V23.2701H73.7605V18.6712H67.8409V23.2701H66.3684V12.9521H67.8409V17.3888H73.7605V12.9521H75.233Z" fill="white"/>
<path d="M85.1477 20.6906H79.6699L78.5361 23.2701H77.0194L81.6873 12.9521H83.1451L87.8277 23.2701H86.2815L85.1477 20.6906ZM84.6323 19.5114L82.4088 14.4556L80.1853 19.5114H84.6323Z" fill="white"/>
<path d="M98.0727 12.9521V23.2701H96.6296V14.2345H92.0648L91.9617 17.2562C91.9126 18.6811 91.7948 19.8357 91.6083 20.7201C91.4316 21.6045 91.1469 22.2727 90.7542 22.7247C90.3615 23.1669 89.8314 23.388 89.1639 23.388C88.8596 23.388 88.5503 23.3487 88.2362 23.2701L88.3393 21.9583C88.4964 21.9976 88.6534 22.0172 88.8105 22.0172C89.2326 22.0172 89.5713 21.8502 89.8265 21.5161C90.0818 21.1721 90.2732 20.6611 90.4008 19.9831C90.5284 19.305 90.6119 18.4108 90.6511 17.3004L90.8131 12.9521H98.0727Z" fill="white"/>
<path d="M105.922 23.388C104.881 23.388 103.944 23.162 103.109 22.71C102.275 22.2481 101.617 21.6143 101.136 20.8085C100.665 20.0027 100.429 19.1036 100.429 18.1111C100.429 17.1186 100.665 16.2195 101.136 15.4137C101.617 14.6079 102.275 13.979 103.109 13.527C103.944 13.0651 104.881 12.8342 105.922 12.8342C106.953 12.8342 107.885 13.0651 108.72 13.527C109.554 13.979 110.207 14.6079 110.678 15.4137C111.149 16.2096 111.385 17.1088 111.385 18.1111C111.385 19.1134 111.149 20.0175 110.678 20.8233C110.207 21.6192 109.554 22.2481 108.72 22.71C107.885 23.162 106.953 23.388 105.922 23.388ZM105.922 22.0762C106.678 22.0762 107.355 21.9042 107.954 21.5603C108.563 21.2163 109.039 20.7447 109.382 20.1452C109.736 19.536 109.912 18.8579 109.912 18.1111C109.912 17.3643 109.736 16.6911 109.382 16.0917C109.039 15.4825 108.563 15.0059 107.954 14.6619C107.355 14.318 106.678 14.146 105.922 14.146C105.166 14.146 104.479 14.318 103.86 14.6619C103.252 15.0059 102.771 15.4825 102.417 16.0917C102.074 16.6911 101.902 17.3643 101.902 18.1111C101.902 18.8579 102.074 19.536 102.417 20.1452C102.771 20.7447 103.252 21.2163 103.86 21.5603C104.479 21.9042 105.166 22.0762 105.922 22.0762Z" fill="white"/>
<path d="M120.509 14.2345H115.208L115.223 23.2701H113.765V12.9521H120.524L120.509 14.2345Z" fill="white"/>
<path d="M125.623 23.388C124.582 23.388 123.644 23.162 122.81 22.71C121.976 22.2481 121.318 21.6143 120.837 20.8085C120.366 20.0027 120.13 19.1036 120.13 18.1111C120.13 17.1186 120.366 16.2195 120.837 15.4137C121.318 14.6079 121.976 13.979 122.81 13.527C123.644 13.0651 124.582 12.8342 125.623 12.8342C126.653 12.8342 127.586 13.0651 128.42 13.527C129.255 13.979 129.908 14.6079 130.379 15.4137C130.85 16.2096 131.086 17.1088 131.086 18.1111C131.086 19.1134 130.85 20.0175 130.379 20.8233C129.908 21.6192 129.255 22.2481 128.42 22.71C127.586 23.162 126.653 23.388 125.623 23.388ZM125.623 22.0762C126.378 22.0762 127.056 21.9042 127.655 21.5603C128.263 21.2163 128.739 20.7447 129.083 20.1452C129.436 19.536 129.613 18.8579 129.613 18.1111C129.613 17.3643 129.436 16.6911 129.083 16.0917C128.739 15.4825 128.263 15.0059 127.655 14.6619C127.056 14.318 126.378 14.146 125.623 14.146C124.867 14.146 124.18 14.318 123.561 14.6619C122.952 15.0059 122.471 15.4825 122.118 16.0917C121.774 16.6911 121.603 17.3643 121.603 18.1111C121.603 18.8579 121.774 19.536 122.118 20.1452C122.471 20.7447 122.952 21.2163 123.561 21.5603C124.18 21.9042 124.867 22.0762 125.623 22.0762Z" fill="white"/>
<path d="M139.886 17.9195C140.583 18.0865 141.108 18.3863 141.462 18.8186C141.825 19.2412 142.007 19.7866 142.007 20.4548C142.007 21.349 141.678 22.0418 141.02 22.5331C140.372 23.0244 139.425 23.2701 138.178 23.2701H133.466V12.9521H137.898C139.027 12.9521 139.906 13.183 140.534 13.6449C141.172 14.0969 141.491 14.7504 141.491 15.6053C141.491 16.1654 141.349 16.642 141.064 17.0351C140.789 17.4282 140.397 17.723 139.886 17.9195ZM134.924 17.492H137.795C138.512 17.492 139.057 17.3495 139.43 17.0646C139.813 16.7796 140.004 16.362 140.004 15.8117C140.004 15.2614 139.813 14.8437 139.43 14.5588C139.047 14.264 138.502 14.1166 137.795 14.1166H134.924V17.492ZM138.149 22.1057C139.729 22.1057 140.519 21.5161 140.519 20.3369C140.519 19.7472 140.318 19.3149 139.916 19.0397C139.523 18.7548 138.934 18.6123 138.149 18.6123H134.924V22.1057H138.149Z" fill="white"/>
<path d="M148.988 16.5487C150.215 16.5487 151.152 16.8238 151.8 17.3741C152.458 17.9244 152.787 18.7351 152.787 19.8062C152.787 20.9363 152.433 21.7961 151.726 22.3857C151.029 22.9753 150.028 23.2701 148.722 23.2701H144.467V12.9521H145.925V16.5487H148.988ZM148.664 22.1057C149.518 22.1057 150.17 21.914 150.622 21.5308C151.083 21.1377 151.314 20.5727 151.314 19.8357C151.314 18.4206 150.431 17.7131 148.664 17.7131H145.925V22.1057H148.664ZM154.421 12.9521H155.879V23.2701H154.421V12.9521Z" fill="white"/>
<path d="M159.091 12.9521H160.549V20.9117L166.645 12.9521H168V23.2701H166.557V15.3252L160.446 23.2701H159.091V12.9521ZM163.524 12.2298C162.719 12.2298 162.095 12.0579 161.654 11.7139C161.222 11.3602 161.001 10.859 160.991 10.2104H162.036C162.046 10.5937 162.179 10.8934 162.434 11.1096C162.699 11.316 163.062 11.4191 163.524 11.4191C163.965 11.4191 164.319 11.316 164.584 11.1096C164.859 10.8934 165.001 10.5937 165.011 10.2104H166.042C166.032 10.8492 165.806 11.3454 165.364 11.6992C164.932 12.053 164.319 12.2298 163.524 12.2298Z" fill="white"/>
<path d="M70.3884 29.2339C71.3701 29.2339 72.2536 29.4648 73.0389 29.9267C73.8243 30.3787 74.4428 31.0076 74.8943 31.8134C75.3459 32.6094 75.5717 33.5085 75.5717 34.5108C75.5717 35.5131 75.3459 36.4172 74.8943 37.223C74.4428 38.0189 73.8243 38.6479 73.0389 39.1097C72.2536 39.5617 71.3701 39.7877 70.3884 39.7877C69.5442 39.7877 68.7784 39.6502 68.0913 39.375C67.4041 39.0999 66.8298 38.697 66.3684 38.1663L67.2961 37.2377C68.0716 38.0533 69.0779 38.4611 70.3148 38.4611C70.9725 38.4611 71.5713 38.3187 72.1113 38.0337C72.6512 37.7389 73.0929 37.3311 73.4365 36.8103C73.7801 36.2894 73.9863 35.6949 74.055 35.0267H69.0631V33.818H74.0403C73.9421 33.1793 73.7212 32.6143 73.3776 32.1229C73.034 31.6316 72.5972 31.2484 72.0671 30.9732C71.537 30.6981 70.9529 30.5605 70.3148 30.5605C69.0877 30.5605 68.0814 30.9683 67.2961 31.7839L66.3684 30.8553C66.8298 30.3246 67.4041 29.9218 68.0913 29.6466C68.7883 29.3715 69.554 29.2339 70.3884 29.2339Z" fill="white"/>
<path d="M81.5506 35.1299H79.4007V39.6698H77.9576V29.3518H79.4007V33.8328H81.58L84.8196 29.3518H86.3952L82.7139 34.3487L86.5719 39.6698H84.8932L81.5506 35.1299Z" fill="white"/>
<path d="M92.6615 39.7877C91.6307 39.7877 90.6981 39.5617 89.8637 39.1097C89.0391 38.6479 88.3912 38.0189 87.92 37.223C87.4488 36.4172 87.2131 35.5131 87.2131 34.5108C87.2131 33.5085 87.4488 32.6094 87.92 31.8134C88.3912 31.0076 89.044 30.3787 89.8784 29.9267C90.7129 29.4648 91.6454 29.2339 92.6762 29.2339C93.4812 29.2339 94.2175 29.3715 94.885 29.6466C95.5525 29.9119 96.1219 30.3099 96.5931 30.8405L95.636 31.7692C94.8605 30.9536 93.8935 30.5457 92.7351 30.5457C91.9694 30.5457 91.2773 30.7177 90.6589 31.0617C90.0404 31.4056 89.5545 31.8822 89.2011 32.4914C88.8575 33.0909 88.6857 33.764 88.6857 34.5108C88.6857 35.2576 88.8575 35.9357 89.2011 36.5449C89.5545 37.1444 90.0404 37.6161 90.6589 37.96C91.2773 38.3039 91.9694 38.4759 92.7351 38.4759C93.8837 38.4759 94.8506 38.0632 95.636 37.2377L96.5931 38.1663C96.1219 38.697 95.5476 39.0999 94.8703 39.375C94.2027 39.6502 93.4665 39.7877 92.6615 39.7877Z" fill="white"/>
<path d="M107.501 29.3518V39.6698H106.058V30.6342H100.08V39.6698H98.6219V29.3518H107.501Z" fill="white"/>
<path d="M118.196 38.3874V39.6698H110.716V29.3518H117.99V30.6342H112.188V33.8033H117.357V35.0562H112.188V38.3874H118.196Z" fill="white"/>
<path d="M124.528 29.3518C125.864 29.3518 126.914 29.6712 127.68 30.3099C128.445 30.9486 128.828 31.8281 128.828 32.9484C128.828 34.0686 128.445 34.9481 127.68 35.5868C126.914 36.2256 125.864 36.5449 124.528 36.5449H121.981V39.6698H120.508V29.3518H124.528ZM124.484 35.2626C125.417 35.2626 126.129 35.066 126.619 34.673C127.11 34.2701 127.356 33.6952 127.356 32.9484C127.356 32.2015 127.11 31.6316 126.619 31.2385C126.129 30.8356 125.417 30.6342 124.484 30.6342H121.981V35.2626H124.484Z" fill="white"/>
<path d="M137.629 30.6342H134.095V39.6698H132.651V30.6342H129.132V29.3518H137.629V30.6342Z" fill="white"/>
</svg>
