<svg width="44" height="44" viewBox="0 0 44 44" fill="none" xmlns="http://www.w3.org/2000/svg">
<path d="M5.5 15.9683C5.5 13.266 5.5 11.9167 6.2205 11.1283C6.47549 10.8479 6.78571 10.6232 7.13167 10.4683C8.107 10.0357 9.3885 10.4628 11.9515 11.3172C13.9077 11.9698 14.8848 12.2962 15.8748 12.2613C16.238 12.2494 16.5991 12.2015 16.9528 12.1183C17.9153 11.8892 18.7733 11.3172 20.4893 10.175L23.023 8.48468C25.223 7.01801 26.3212 6.28468 27.5825 6.11784C28.8438 5.94734 30.0978 6.36534 32.604 7.20134L34.7398 7.91268C36.5548 8.51768 37.4623 8.82018 37.9812 9.54068C38.5 10.2612 38.5 11.2182 38.5 13.1303V28.0335C38.5 30.734 38.5 32.0852 37.7795 32.8735C37.5242 33.1526 37.214 33.3761 36.8683 33.5298C35.893 33.9643 34.6115 33.5372 32.0485 32.6828C30.0923 32.0302 29.1152 31.7038 28.1252 31.7387C27.762 31.7506 27.4009 31.7985 27.0472 31.8817C26.0847 32.1108 25.2267 32.6828 23.5107 33.825L20.977 35.5153C18.777 36.982 17.6788 37.7153 16.4175 37.8822C15.1562 38.0527 13.9022 37.6347 11.396 36.7987L9.26017 36.0873C7.44517 35.4823 6.53767 35.1798 6.01883 34.4593C5.5 33.7388 5.5 32.78 5.5 30.8697V15.9665V15.9683Z" stroke="#4770FF" stroke-width="1.5"/>
<path opacity="0.5" d="M16.5 12.1715V37.5833M27.5 5.5V31.1667" stroke="#4770FF" stroke-width="1.5"/>
</svg>
