<svg width="672" height="385" viewBox="0 0 672 385" fill="none" xmlns="http://www.w3.org/2000/svg">
<path d="M638.77 192.56C660.573 170.744 695.922 170.744 717.724 192.56C739.526 214.376 739.526 249.747 717.724 271.563L409.432 580.051C385.351 604.147 346.308 604.147 322.227 580.051L18.0607 275.692C-6.02024 251.596 -6.02024 212.528 18.0607 188.432L322.227 -115.928C346.308 -140.024 385.351 -140.024 409.432 -115.928L543.237 17.9624C567.318 42.0587 567.318 81.1264 543.237 105.223L408.883 239.662C384.802 263.759 345.759 263.759 321.678 239.662L260.89 178.836C236.809 154.739 197.766 154.739 173.685 178.836L169.482 183.041C145.401 207.137 145.401 246.205 169.482 270.301L273.798 374.683C273.84 374.724 273.84 374.791 273.798 374.833C273.757 374.874 273.757 374.941 273.798 374.983L321.828 422.886C345.921 446.915 384.909 446.883 408.962 422.815L456.763 374.983C456.805 374.942 456.805 374.875 456.763 374.833C456.722 374.792 456.722 374.724 456.763 374.683L638.77 192.56Z" fill="#86A1FF" fill-opacity="0.08"/>
<path d="M180.82 265.94C159.667 244.787 159.667 210.492 180.82 189.34C201.972 168.188 236.267 168.188 257.42 189.34L375.523 307.443C396.675 328.596 396.675 362.89 375.523 384.043C354.37 405.195 320.075 405.195 298.923 384.043L180.82 265.94Z" fill="#86A1FF" fill-opacity="0.08"/>
<path d="M724.909 13.7115C703.757 -7.44089 669.462 -7.44087 648.31 13.7116L430.719 231.302C409.567 252.455 409.567 286.749 430.719 307.902C451.872 329.054 486.166 329.054 507.319 307.902L724.909 90.3113C746.062 69.1588 746.062 34.864 724.909 13.7115Z" fill="#86A1FF" fill-opacity="0.08"/>
</svg>
