<svg width="44" height="44" viewBox="0 0 44 44" fill="none" xmlns="http://www.w3.org/2000/svg">
<path d="M29.5166 24.4915L30.3526 23.661C31.5076 22.5134 33.3061 22.2769 34.7837 23.0799L38.2854 24.9847C40.5349 26.2075 41.0317 29.205 39.2736 30.9522L36.6702 33.5409C36.0066 34.2009 35.1852 34.6812 34.2392 34.7692M7.33873 10.5325C7.27457 9.39586 7.80623 8.37286 8.6019 7.58086L11.4802 4.72086C13.0826 3.12586 15.7849 3.37336 17.1837 5.24152L19.4956 8.32886C20.6267 9.83952 20.5039 11.9075 19.2077 13.1945L18.6834 13.7189" stroke="#4770FF" stroke-width="1.5"/>
<path opacity="0.5" d="M34.2394 34.7692C31.251 35.0479 23.947 34.7399 16.1627 26.9995C8.8202 19.6992 7.50387 13.442 7.33887 10.5344" stroke="#4770FF" stroke-width="1.5"/>
<path opacity="0.5" d="M29.5165 24.4915C29.5165 24.4915 27.5328 26.4642 22.1153 21.0779C16.6978 15.6915 18.6833 13.717 18.6833 13.717" stroke="#4770FF" stroke-width="1.5" stroke-linecap="round"/>
</svg>
