<svg width="23" height="23" viewBox="0 0 23 23" fill="none" xmlns="http://www.w3.org/2000/svg">
<path fill-rule="evenodd" clip-rule="evenodd" d="M9.88707 0.669472L8.15456 2.40046C8.01466 2.54041 7.82502 2.61924 7.62714 2.6197H4.90111C3.64081 2.6197 2.6197 3.64081 2.6197 4.90111V7.62714C2.61931 7.82548 2.5405 8.01563 2.40046 8.15609L0.667939 9.88707C0.240257 10.3149 0 10.8951 0 11.5C0 12.1049 0.240257 12.6851 0.667939 13.1129L2.40046 14.8454C2.54041 14.9853 2.61924 15.175 2.6197 15.3729V18.0989C2.6197 19.3592 3.64081 20.3803 4.90111 20.3803H7.62714C7.82548 20.3807 8.01563 20.4595 8.15609 20.5995L9.88707 22.3321C10.3149 22.7597 10.8951 23 11.5 23C12.1049 23 12.6851 22.7597 13.1129 22.3321L14.8454 20.5995C14.9853 20.4596 15.175 20.3808 15.3729 20.3803H18.0989C19.3592 20.3803 20.3803 19.3592 20.3803 18.0989V15.3729C20.3807 15.1745 20.4595 14.9844 20.5995 14.8439L22.3321 13.1129C22.7597 12.6851 23 12.1049 23 11.5C23 10.8951 22.7597 10.3149 22.3321 9.88707L20.5995 8.15456C20.4596 8.01466 20.3808 7.82502 20.3803 7.62714V4.90111C20.3803 3.64081 19.3592 2.6197 18.0989 2.6197H15.3729C15.1744 2.61965 14.9842 2.54078 14.8439 2.40046L13.1129 0.667939C12.6851 0.240257 12.1049 0 11.5 0C10.8951 0 10.3149 0.24179 9.88707 0.669472ZM7.12425 14.7902L14.7902 7.12425L15.8758 8.20975L8.20975 15.8758L7.12425 14.7902ZM7.667 7.667V9.2002H9.2002V7.667H7.667ZM13.7998 15.333H15.333V13.7998H13.7998V15.333Z" fill="#4770FF"/>
</svg>
