<svg width="38" height="38" viewBox="0 0 38 38" fill="none" xmlns="http://www.w3.org/2000/svg">
<rect x="0.991211" width="37.0089" height="37.0089" rx="10" fill="#54B6E0" fill-opacity="0.2"/>
<rect x="1.49121" y="0.5" width="36.0089" height="36.0089" rx="9.5" stroke="#54B6E0" stroke-opacity="0.5"/>
<path d="M19.1329 10.8849C15.1272 10.8849 11.8762 14.1359 11.8762 18.1416C11.8762 22.1472 15.1272 25.3982 19.1329 25.3982C23.1385 25.3982 26.3895 22.1472 26.3895 18.1416C26.3895 14.1359 23.1385 10.8849 19.1329 10.8849ZM22.4999 15.8195C22.3911 16.966 21.9194 19.7526 21.6799 21.037C21.5783 21.5812 21.3752 21.7626 21.1865 21.7844C20.7656 21.8207 20.4463 21.5087 20.0399 21.2402C19.4014 20.8193 19.0385 20.558 18.4217 20.1517C17.7033 19.68 18.1677 19.4188 18.5814 18.9979C18.6902 18.889 20.5479 17.1982 20.5842 17.0458C20.5892 17.0228 20.5886 16.9988 20.5822 16.976C20.5759 16.9533 20.5641 16.9324 20.5479 16.9152C20.5044 16.8789 20.4463 16.8934 20.3955 16.9007C20.3302 16.9152 19.3143 17.5901 17.3332 18.9253C17.0429 19.1212 16.7817 19.2228 16.5495 19.2156C16.2883 19.2083 15.7948 19.0704 15.4247 18.9471C14.9675 18.8019 14.612 18.7221 14.641 18.4681C14.6555 18.3375 14.8369 18.2069 15.178 18.069C17.2969 17.1474 18.7047 16.5379 19.4086 16.2476C21.426 15.4058 21.8396 15.2607 22.1153 15.2607C22.1734 15.2607 22.3113 15.2752 22.3983 15.3478C22.4709 15.4058 22.4927 15.4857 22.4999 15.5437C22.4927 15.5872 22.5072 15.7179 22.4999 15.8195Z" fill="#54B6E0"/>
</svg>
