<svg width="51" height="51" viewBox="0 0 51 51" fill="none" xmlns="http://www.w3.org/2000/svg">
<rect x="0.5" y="0.5" width="50" height="50" rx="9.5" fill="#577DFF" stroke="#7090FF"/>
<path d="M25 15C19.48 15 15 19.48 15 25C15 30.52 19.48 35 25 35C30.52 35 35 30.52 35 25C35 19.48 30.52 15 25 15ZM29.64 21.8C29.49 23.38 28.84 27.22 28.51 28.99C28.37 29.74 28.09 29.99 27.83 30.02C27.25 30.07 26.81 29.64 26.25 29.27C25.37 28.69 24.87 28.33 24.02 27.77C23.03 27.12 23.67 26.76 24.24 26.18C24.39 26.03 26.95 23.7 27 23.49C27.0069 23.4582 27.006 23.4252 26.9973 23.3938C26.9886 23.3624 26.9724 23.3337 26.95 23.31C26.89 23.26 26.81 23.28 26.74 23.29C26.65 23.31 25.25 24.24 22.52 26.08C22.12 26.35 21.76 26.49 21.44 26.48C21.08 26.47 20.4 26.28 19.89 26.11C19.26 25.91 18.77 25.8 18.81 25.45C18.83 25.27 19.08 25.09 19.55 24.9C22.47 23.63 24.41 22.79 25.38 22.39C28.16 21.23 28.73 21.03 29.11 21.03C29.19 21.03 29.38 21.05 29.5 21.15C29.6 21.23 29.63 21.34 29.64 21.42C29.63 21.48 29.65 21.66 29.64 21.8Z" fill="white"/>
</svg>
