<svg width="38" height="38" viewBox="0 0 38 38" fill="none" xmlns="http://www.w3.org/2000/svg">
<rect x="0.991211" width="37.0089" height="37.0089" rx="10" fill="white" fill-opacity="0.2"/>
<rect x="1.49121" y="0.5" width="36.0089" height="36.0089" rx="9.5" stroke="white" stroke-opacity="0.5"/>
<path d="M19.1329 10.8848C15.1272 10.8848 11.8762 14.1357 11.8762 18.1414C11.8762 22.1471 15.1272 25.398 19.1329 25.398C23.1385 25.398 26.3895 22.1471 26.3895 18.1414C26.3895 14.1357 23.1385 10.8848 19.1329 10.8848ZM22.4999 15.8193C22.3911 16.9658 21.9194 19.7524 21.6799 21.0368C21.5783 21.581 21.3752 21.7625 21.1865 21.7842C20.7656 21.8205 20.4463 21.5085 20.0399 21.24C19.4014 20.8191 19.0385 20.5579 18.4217 20.1515C17.7033 19.6798 18.1677 19.4186 18.5814 18.9977C18.6902 18.8888 20.5479 17.198 20.5842 17.0457C20.5892 17.0226 20.5886 16.9986 20.5822 16.9758C20.5759 16.9531 20.5641 16.9322 20.5479 16.915C20.5044 16.8787 20.4463 16.8933 20.3955 16.9005C20.3302 16.915 19.3143 17.5899 17.3332 18.9251C17.0429 19.121 16.7817 19.2226 16.5495 19.2154C16.2883 19.2081 15.7948 19.0703 15.4247 18.9469C14.9675 18.8018 14.612 18.7219 14.641 18.468C14.6555 18.3373 14.8369 18.2067 15.178 18.0688C17.2969 17.1472 18.7047 16.5377 19.4086 16.2474C21.426 15.4057 21.8396 15.2605 22.1153 15.2605C22.1734 15.2605 22.3113 15.275 22.3983 15.3476C22.4709 15.4057 22.4927 15.4855 22.4999 15.5435C22.4927 15.5871 22.5072 15.7177 22.4999 15.8193Z" fill="white"/>
</svg>
