<svg width="38" height="38" viewBox="0 0 38 38" fill="none" xmlns="http://www.w3.org/2000/svg">
<rect width="37.0089" height="37.0089" rx="10" fill="#3DDE6A" fill-opacity="0.2"/>
<rect x="0.5" y="0.5" width="36.0089" height="36.0089" rx="9.5" stroke="#3DDE6A" stroke-opacity="0.5"/>
<path fill-rule="evenodd" clip-rule="evenodd" d="M18.1416 10.8849C14.1338 10.8849 10.885 14.1337 10.885 18.1416C10.885 19.5131 11.266 20.7975 11.9285 21.8918L11.2812 24.092C11.2441 24.2184 11.2416 24.3524 11.2741 24.48C11.3067 24.6076 11.373 24.724 11.4661 24.8171C11.5592 24.9103 11.6757 24.9766 11.8033 25.0091C11.9309 25.0416 12.0649 25.0392 12.1912 25.002L14.3914 24.3547C15.5225 25.0391 16.8196 25.4 18.1416 25.3982C22.1495 25.3982 25.3983 22.1494 25.3983 18.1416C25.3983 14.1337 22.1495 10.8849 18.1416 10.8849ZM16.5002 19.7838C17.9682 21.2511 19.3695 21.4448 19.8644 21.4629C20.6169 21.4905 21.3498 20.9158 21.635 20.2489C21.671 20.166 21.6841 20.0748 21.6728 19.9851C21.6616 19.8954 21.6265 19.8103 21.5711 19.7388C21.1735 19.2308 20.6358 18.8658 20.1104 18.503C20.0007 18.4271 19.8659 18.3967 19.7342 18.4181C19.6026 18.4394 19.4844 18.511 19.4043 18.6176L18.9689 19.2816C18.946 19.3173 18.9103 19.3429 18.8692 19.3531C18.828 19.3634 18.7845 19.3575 18.7476 19.3368C18.4522 19.1677 18.0219 18.8803 17.7128 18.5712C17.4036 18.262 17.1337 17.8513 16.982 17.5748C16.9632 17.5397 16.9578 17.499 16.9667 17.4601C16.9757 17.4213 16.9984 17.387 17.0307 17.3637L17.7012 16.8659C17.7969 16.7827 17.8586 16.6672 17.8747 16.5414C17.8907 16.4156 17.86 16.2883 17.7882 16.1837C17.4632 15.7077 17.0844 15.1025 16.535 14.7012C16.4641 14.6498 16.3811 14.6178 16.2941 14.6083C16.207 14.5987 16.119 14.612 16.0387 14.6468C15.3711 14.9327 14.7934 15.6656 14.821 16.4196C14.8392 16.9145 15.0329 18.3157 16.5002 19.7838Z" fill="#3DDE6A"/>
</svg>
