<svg width="51" height="51" viewBox="0 0 51 51" fill="none" xmlns="http://www.w3.org/2000/svg">
<rect x="0.5" y="0.5" width="50" height="50" rx="9.5" fill="#577DFF" stroke="#7090FF"/>
<path fill-rule="evenodd" clip-rule="evenodd" d="M25 15C19.477 15 15 19.477 15 25C15 26.89 15.525 28.66 16.438 30.168L15.546 33.2C15.4948 33.3741 15.4914 33.5587 15.5362 33.7346C15.5811 33.9104 15.6724 34.0709 15.8008 34.1992C15.9291 34.3276 16.0896 34.4189 16.2654 34.4638C16.4413 34.5086 16.6259 34.5052 16.8 34.454L19.832 33.562C21.3907 34.5051 23.1782 35.0025 25 35C30.523 35 35 30.523 35 25C35 19.477 30.523 15 25 15ZM22.738 27.263C24.761 29.285 26.692 29.552 27.374 29.577C28.411 29.615 29.421 28.823 29.814 27.904C29.8636 27.7897 29.8816 27.6641 29.8661 27.5405C29.8507 27.4168 29.8023 27.2996 29.726 27.201C29.178 26.501 28.437 25.998 27.713 25.498C27.5618 25.3935 27.3761 25.3516 27.1947 25.381C27.0133 25.4105 26.8503 25.509 26.74 25.656L26.14 26.571C26.1085 26.6202 26.0593 26.6555 26.0026 26.6696C25.9459 26.6837 25.8859 26.6756 25.835 26.647C25.428 26.414 24.835 26.018 24.409 25.592C23.983 25.166 23.611 24.6 23.402 24.219C23.3761 24.1706 23.3686 24.1144 23.3809 24.0609C23.3932 24.0074 23.4245 23.9602 23.469 23.928L24.393 23.242C24.5249 23.1273 24.61 22.9682 24.6321 22.7949C24.6542 22.6215 24.6118 22.4461 24.513 22.302C24.065 21.646 23.543 20.812 22.786 20.259C22.6883 20.1882 22.5739 20.1441 22.4539 20.1309C22.334 20.1178 22.2127 20.1361 22.102 20.184C21.182 20.578 20.386 21.588 20.424 22.627C20.449 23.309 20.716 25.24 22.738 27.263Z" fill="white"/>
</svg>
