<svg width="38" height="38" viewBox="0 0 38 38" fill="none" xmlns="http://www.w3.org/2000/svg">
<rect width="37.0089" height="37.0089" rx="10" fill="white" fill-opacity="0.2"/>
<rect x="0.5" y="0.5" width="36.0089" height="36.0089" rx="9.5" stroke="white" stroke-opacity="0.5"/>
<path fill-rule="evenodd" clip-rule="evenodd" d="M18.1416 10.8848C14.1338 10.8848 10.885 14.1336 10.885 18.1414C10.885 19.5129 11.266 20.7973 11.9285 21.8916L11.2812 24.0918C11.2441 24.2182 11.2416 24.3522 11.2741 24.4798C11.3067 24.6074 11.373 24.7238 11.4661 24.817C11.5592 24.9101 11.6757 24.9764 11.8033 25.0089C11.9309 25.0414 12.0649 25.039 12.1912 25.0018L14.3914 24.3545C15.5225 25.0389 16.8196 25.3998 18.1416 25.398C22.1495 25.398 25.3983 22.1492 25.3983 18.1414C25.3983 14.1336 22.1495 10.8848 18.1416 10.8848ZM16.5002 19.7836C17.9682 21.2509 19.3695 21.4446 19.8644 21.4628C20.6169 21.4903 21.3498 20.9156 21.635 20.2487C21.671 20.1658 21.6841 20.0747 21.6728 19.9849C21.6616 19.8952 21.6265 19.8101 21.5711 19.7386C21.1735 19.2306 20.6358 18.8656 20.1104 18.5028C20.0007 18.4269 19.8659 18.3965 19.7342 18.4179C19.6026 18.4393 19.4844 18.5108 19.4043 18.6174L18.9689 19.2814C18.946 19.3171 18.9103 19.3427 18.8692 19.353C18.828 19.3632 18.7845 19.3574 18.7476 19.3366C18.4522 19.1675 18.0219 18.8801 17.7128 18.571C17.4036 18.2619 17.1337 17.8511 16.982 17.5747C16.9632 17.5395 16.9578 17.4988 16.9667 17.46C16.9757 17.4211 16.9984 17.3869 17.0307 17.3635L17.7012 16.8657C17.7969 16.7825 17.8586 16.667 17.8747 16.5412C17.8907 16.4154 17.86 16.2881 17.7882 16.1836C17.4632 15.7075 17.0844 15.1023 16.535 14.701C16.4641 14.6497 16.3811 14.6176 16.2941 14.6081C16.207 14.5985 16.119 14.6118 16.0387 14.6466C15.3711 14.9325 14.7934 15.6654 14.821 16.4194C14.8392 16.9143 15.0329 18.3156 16.5002 19.7836Z" fill="white"/>
</svg>
